<svg xmlns="http://www.w3.org/2000/svg" width="113.051" height="101.68" viewBox="0 0 113.051 101.68">
  <g id="Group_12" data-name="Group 12" transform="translate(3104.853 3228.405)">
    <path id="Subtraction_1" data-name="Subtraction 1" d="M6.94,68.022h0a6.407,6.407,0,0,1-3.89-1.181,6.8,6.8,0,0,1-2.073-2.6A10.843,10.843,0,0,1,0,60.464V32.583L28.216,0l30.9,35.61V68.021c-.323,0-20.375-.04-35.56-.04-8.957,0-14.511.013-16.505.04Zm22.692-41.16v6.71h6.71v-6.71Zm-8.051,0v6.71h6.709v-6.71Zm8.051-7.716v6.709h6.71V19.146Zm-8.051,0v6.709h6.709V19.146Z" transform="translate(-3104.821 -3194.814)" fill="#666667"/>
    <path id="Union_2" data-name="Union 2" d="M61.54,67.182a0,0,0,0,1,0,0A0,0,0,0,1,61.54,67.182ZM24.576,24.489.009,52.874s.176-37.881,0-42.857S2.238,1.29,8.619,1.4s77.794.113,85.294,0c4.682-.07,6.2,3.307,6.684,5.853L112.753,0l-12,10.068v-.013C99.314,11.189,65.93,37.494,65.905,37.494S50.986,23.34,50.986,23.34H29.167L61.54,59.405s44.944-44.793,51.054-49.388S61.582,66.875,61.54,67.182C61.5,66.968,24.576,24.489,24.576,24.489Z" transform="translate(-3104.853 -3228.405)" fill="#26255e"/>
    <path id="Path_5" data-name="Path 5" d="M-1669.424-1959.719v57.461a8.532,8.532,0,0,1-8.618,7.181c-7.613.053-12.816,0-12.816,0v-33.044Z" transform="translate(-1334.785 -1231.671)" fill="#707070"/>
  </g>
</svg>
