<svg xmlns="http://www.w3.org/2000/svg" width="247.033" height="183.145" viewBox="0 0 247.033 183.145">
  <g id="House_searching-rafiki" data-name="House searching-rafiki" transform="translate(0 -55)">
    <g id="freepik--background-complete--inject-61" transform="translate(0 55)">
      <rect id="Rectangle_396" data-name="Rectangle 396" width="247.033" height="0.124" transform="translate(0 160.756)" fill="#e6e6e6"/>
      <rect id="Rectangle_397" data-name="Rectangle 397" width="13.173" height="0.124" transform="translate(25.607 166.289)" fill="#e6e6e6"/>
      <rect id="Rectangle_398" data-name="Rectangle 398" width="11.353" height="0.124" transform="translate(32.19 163.81)" fill="#e6e6e6"/>
      <rect id="Rectangle_399" data-name="Rectangle 399" width="30.465" height="0.124" transform="translate(130.351 164.177)" fill="#e6e6e6"/>
      <rect id="Rectangle_400" data-name="Rectangle 400" width="7.308" height="0.124" transform="translate(163.603 164.177)" fill="#e6e6e6"/>
      <rect id="Rectangle_401" data-name="Rectangle 401" width="24.124" height="0.124" transform="translate(188.066 165.025)" fill="#e6e6e6"/>
      <rect id="Rectangle_402" data-name="Rectangle 402" width="42.949" height="0.124" transform="translate(52.6 167.003)" fill="#e6e6e6"/>
      <rect id="Rectangle_403" data-name="Rectangle 403" width="3.515" height="0.124" transform="translate(216.543 165.025)" fill="#e6e6e6"/>
      <path id="Path_991" data-name="Path 991" d="M136.764,195.2H41.036a2.831,2.831,0,0,1-2.826-2.831V57.806A2.831,2.831,0,0,1,41.036,55h95.728a2.831,2.831,0,0,1,2.831,2.831V192.373A2.831,2.831,0,0,1,136.764,195.2ZM41.036,55.1a2.707,2.707,0,0,0-2.7,2.707V192.373a2.707,2.707,0,0,0,2.7,2.707h95.728a2.712,2.712,0,0,0,2.707-2.707V57.806a2.712,2.712,0,0,0-2.707-2.707Z" transform="translate(-19.267 -55)" fill="#e6e6e6"/>
      <path id="Path_992" data-name="Path 992" d="M353.064,195.2H257.331a2.836,2.836,0,0,1-2.831-2.831V57.806A2.836,2.836,0,0,1,257.331,55h95.733a2.831,2.831,0,0,1,2.821,2.806V192.373A2.831,2.831,0,0,1,353.064,195.2ZM257.331,55.1a2.712,2.712,0,0,0-2.707,2.707V192.373a2.712,2.712,0,0,0,2.707,2.707h95.733a2.712,2.712,0,0,0,2.707-2.707V57.806a2.712,2.712,0,0,0-2.707-2.707Z" transform="translate(-129.178 -55)" fill="#e6e6e6"/>
      <circle id="Ellipse_1" data-name="Ellipse 1" cx="11.125" cy="11.125" r="11.125" transform="translate(51.685 82.225) rotate(-77.02)" fill="#f0f0f0"/>
      <path id="Path_993" data-name="Path 993" d="M282.365,195.521c-1.383-2.975-.283-5.131,3.108-5.131A16.7,16.7,0,0,1,292.8,192.6c.293-.778,1.106-1.244,2.419-1.244,2.315,0,5.5,1.443,8,3.47a4.611,4.611,0,0,1,2.608-.778,14.182,14.182,0,0,1,7.223,2.087,1.413,1.413,0,0,1,1.026-.387,5.3,5.3,0,0,1,3.862,1.869c.055.064.1.134.149.2H280.644C279.459,196.756,280.768,195.576,282.365,195.521Z" transform="translate(-141.842 -123.916)" fill="#f5f5f5"/>
      <path id="Path_994" data-name="Path 994" d="M137.44,240.025,168.118,233v74.068H137.44Z" transform="translate(-69.569 -146.312)" fill="#fafafa"/>
      <rect id="Rectangle_404" data-name="Rectangle 404" width="15.919" height="74.068" transform="translate(98.454 86.688)" fill="#ebebeb"/>
      <rect id="Rectangle_405" data-name="Rectangle 405" width="26.112" height="91.782" transform="translate(135.227 160.756) rotate(180)" fill="#fafafa"/>
      <rect id="Rectangle_406" data-name="Rectangle 406" width="13.549" height="91.782" transform="translate(135.155 68.974)" fill="#ebebeb"/>
      <rect id="Rectangle_407" data-name="Rectangle 407" width="22.597" height="6.822" transform="translate(135.22 69.92) rotate(180)" fill="#fafafa"/>
      <rect id="Rectangle_408" data-name="Rectangle 408" width="22.597" height="1.532" transform="translate(135.22 69.89) rotate(180)" fill="#ebebeb"/>
      <rect id="Rectangle_409" data-name="Rectangle 409" width="10.039" height="6.822" transform="translate(135.162 63.098)" fill="#ebebeb"/>
      <rect id="Rectangle_410" data-name="Rectangle 410" width="19.082" height="6.822" transform="translate(135.209 63.164) rotate(180)" fill="#fafafa"/>
      <rect id="Rectangle_411" data-name="Rectangle 411" width="19.082" height="1.532" transform="translate(135.209 63.132) rotate(180)" fill="#ebebeb"/>
      <rect id="Rectangle_412" data-name="Rectangle 412" width="6.524" height="6.822" transform="translate(135.169 56.347)" fill="#ebebeb"/>
      <rect id="Rectangle_413" data-name="Rectangle 413" width="1.269" height="9.529" transform="translate(128.287 46.902)" fill="#ebebeb"/>
      <rect id="Rectangle_414" data-name="Rectangle 414" width="19.067" height="79.854" transform="translate(163.397 160.756) rotate(180)" fill="#fafafa"/>
      <rect id="Rectangle_415" data-name="Rectangle 415" width="9.896" height="79.854" transform="translate(163.355 80.903)" fill="#ebebeb"/>
      <path id="Path_995" data-name="Path 995" d="M340.66,254l14.457,12.394v51.263H340.66Z" transform="translate(-172.387 -156.901)" fill="#fafafa"/>
      <rect id="Rectangle_416" data-name="Rectangle 416" width="7.506" height="51.263" transform="translate(182.696 109.494)" fill="#ebebeb"/>
      <path id="Path_996" data-name="Path 996" d="M362.623,266.394h-7.506L340.66,254h7.5Z" transform="translate(-172.408 -156.326)" fill="#ebebeb"/>
      <path id="Path_997" data-name="Path 997" d="M439.9,376.889a7.278,7.278,0,0,1,4.318-5.419,9.117,9.117,0,0,0-1.269,5.419Z" transform="translate(-222.662 -216.132)" fill="#ebebeb"/>
      <path id="Path_998" data-name="Path 998" d="M181.908,376.889a7.278,7.278,0,0,0-4.318-5.419,9.117,9.117,0,0,1,1.269,5.419Z" transform="translate(-89.854 -216.132)" fill="#ebebeb"/>
      <path id="Path_999" data-name="Path 999" d="M55.925,374.07s-.243-6.346-2.9-8.19c1.086,2.593.853,8.19.853,8.19Z" transform="translate(-26.739 -213.314)" fill="#ebebeb"/>
      <path id="Path_1000" data-name="Path 1000" d="M56.86,377.62s.248-3.644,2.9-4.7c-1.091,1.487-.853,4.7-.853,4.7Z" transform="translate(-28.671 -216.863)" fill="#ebebeb"/>
      <path id="Path_1001" data-name="Path 1001" d="M185.717,374.07s-.268-6.009-5.077-8.19c2.152,3.084,2.028,8.19,2.028,8.19Z" transform="translate(-91.398 -213.314)" fill="#ebebeb"/>
      <path id="Path_1002" data-name="Path 1002" d="M93.68,300.81l3.5,24.689.347,2.469h2.246l-.352-2.469-3.5-24.689Z" transform="translate(-47.4 -180.504)" fill="#e0e0e0"/>
      <path id="Path_1003" data-name="Path 1003" d="M287.67,300.81l3.5,24.689.347,2.469h2.246l-.352-2.469-3.5-24.689Z" transform="translate(-145.554 -180.504)" fill="#e0e0e0"/>
      <path id="Path_1004" data-name="Path 1004" d="M122.67,350.61l.352,2.469,1.889,13.311h2.246l-1.889-13.311-.347-2.469Z" transform="translate(-62.067 -205.614)" fill="#e6e6e6"/>
      <path id="Path_1005" data-name="Path 1005" d="M316.67,350.61l.352,2.469,1.884,13.311h2.241l-1.884-13.311-.347-2.469Z" transform="translate(-160.224 -205.614)" fill="#e6e6e6"/>
      <path id="Path_1006" data-name="Path 1006" d="M289.247,350.61l-.352,2.469-1.889,13.311H284.76l1.889-13.311L287,350.61Z" transform="translate(-144.079 -205.614)" fill="#e6e6e6"/>
      <path id="Path_1007" data-name="Path 1007" d="M95.257,350.61l-.352,2.469L93.021,366.39H90.78l1.884-13.311.352-2.469Z" transform="translate(-45.774 -205.614)" fill="#e6e6e6"/>
      <path id="Path_1008" data-name="Path 1008" d="M85.229,300.746H188.017l-1.909-6.876H83.32Z" transform="translate(-42.258 -176.586)" fill="#f5f5f5"/>
      <path id="Path_1009" data-name="Path 1009" d="M89.959,300.746H192.752l-1.909-6.876H88.05Z" transform="translate(-44.657 -176.586)" fill="#e6e6e6"/>
      <path id="Path_1010" data-name="Path 1010" d="M88.114,318.041H190.9l-1.909-6.871H86.2Z" transform="translate(-43.719 -185.392)" fill="#f5f5f5"/>
      <path id="Path_1011" data-name="Path 1011" d="M92.849,318.041H195.637l-1.909-6.871H90.94Z" transform="translate(-46.123 -185.392)" fill="#e6e6e6"/>
      <path id="Path_1012" data-name="Path 1012" d="M91,335.361H193.792l-1.909-6.871H89.09Z" transform="translate(-45.185 -194.461)" fill="#f5f5f5"/>
      <path id="Path_1013" data-name="Path 1013" d="M95.739,335.361H198.527l-1.909-6.871H93.83Z" transform="translate(-47.589 -194.461)" fill="#e6e6e6"/>
      <rect id="Rectangle_417" data-name="Rectangle 417" width="102.337" height="2.469" transform="translate(57.892 144.996)" fill="#e6e6e6"/>
      <rect id="Rectangle_418" data-name="Rectangle 418" width="14.065" height="2.469" transform="translate(44.007 144.996)" fill="#f5f5f5"/>
      <path id="Path_1014" data-name="Path 1014" d="M70.437,140.254c-1.919-4.145-.392-7.094,4.3-7.094a23.058,23.058,0,0,1,10.139,3.049c.4-1.076,1.532-1.72,3.346-1.72,3.2,0,7.61,1.983,11.071,4.814a6.346,6.346,0,0,1,3.6-1.076,19.585,19.585,0,0,1,9.995,2.885,1.983,1.983,0,0,1,1.418-.535,7.343,7.343,0,0,1,5.339,2.583c.074.094.139.183.2.278H68.058C66.422,141.965,68.231,140.329,70.437,140.254Z" transform="translate(-33.998 -94.792)" fill="#f5f5f5"/>
      <path id="Path_1015" data-name="Path 1015" d="M345.329,159.274a3.388,3.388,0,0,1,.392,0,1.86,1.86,0,0,1,2.082-2.221,8.16,8.16,0,0,1,3.763,1.215c-.387-2.628.858-4.338,3.664-4.338,2.266,0,5.136,1.111,7.972,2.925a2.243,2.243,0,0,1,2.479-1.651c2.479,0,5.949,1.914,8.775,4.611h0a3.966,3.966,0,0,1,2.717-1.031c2.345-.124,5.26.992,7.843,2.766a1.264,1.264,0,0,1,1.066-.5,5.639,5.639,0,0,1,4.08,2.241H343.266C342.161,161.253,343.038,159.5,345.329,159.274Z" transform="translate(-173.697 -105.363)" fill="#f5f5f5"/>
      <path id="Path_1016" data-name="Path 1016" d="M186.2,98.789a3.315,3.315,0,0,1,.387,0,1.86,1.86,0,0,1,2.082-2.221,8.161,8.161,0,0,1,3.768,1.215c-.387-2.633.853-4.343,3.659-4.343,2.271,0,5.136,1.115,7.972,2.93a2.243,2.243,0,0,1,2.479-1.651c2.479,0,5.949,1.909,8.775,4.611h0a4.011,4.011,0,0,1,2.717-1.036c2.345-.119,5.26.992,7.843,2.766a1.269,1.269,0,0,1,1.066-.5,5.6,5.6,0,0,1,4.08,2.241H184.13C183.029,100.767,183.907,99.017,186.2,98.789Z" transform="translate(-92.992 -74.383)" fill="#f5f5f5"/>
      <path id="Path_1017" data-name="Path 1017" d="M408.831,356.14l-8.81-8.81H393.16l7.615,7.615h-2.092v9.772h8.056V356.14Z" transform="translate(-198.958 -203.96)" fill="#ebebeb"/>
      <path id="Path_1018" data-name="Path 1018" d="M393.01,356.14l-8.81-8.81-8.81,8.81h3.287v8.577h11.046V356.14Z" transform="translate(-189.971 -203.96)" fill="#fafafa"/>
    </g>
    <g id="freepik--Shadow--inject-61" transform="translate(27.818 226.921)">
      <ellipse id="Ellipse_2" data-name="Ellipse 2" cx="95.699" cy="5.612" rx="95.699" ry="5.612" fill="#f5f5f5"/>
    </g>
    <g id="freepik--Houses--inject-61" transform="translate(110.587 67.925)">
      <path id="Path_1019" data-name="Path 1019" d="M377.254,94.282,364.042,81.07H353.75l11.423,11.423h-3.143v14.65h12.082V94.282Z" transform="translate(-289.582 -81.07)" fill="#407bff"/>
      <path id="Path_1020" data-name="Path 1020" d="M377.254,94.282,364.042,81.07H353.75l11.423,11.423h-3.143v14.65h12.082V94.282Z" transform="translate(-289.582 -81.07)" fill="#fff" opacity="0.4"/>
      <path id="Path_1021" data-name="Path 1021" d="M353.525,94.282,340.312,81.07,327.1,94.282h4.933v12.86h16.559V94.282Z" transform="translate(-276.145 -81.07)" fill="#407bff"/>
      <path id="Path_1022" data-name="Path 1022" d="M353.525,94.282,340.312,81.07,327.1,94.282h4.933v12.86h16.559V94.282Z" transform="translate(-276.145 -81.07)" fill="#fff" opacity="0.7"/>
      <path id="Path_1023" data-name="Path 1023" d="M394.414,200.657,381.2,187.44H370.91l11.423,11.423h-3.143v14.65h12.082V200.657Z" transform="translate(-298.235 -134.705)" fill="#407bff"/>
      <path id="Path_1024" data-name="Path 1024" d="M394.414,200.657,381.2,187.44H370.91l11.423,11.423h-3.143v14.65h12.082V200.657Z" transform="translate(-298.235 -134.705)" fill="#fff" opacity="0.4"/>
      <path id="Path_1025" data-name="Path 1025" d="M370.685,200.657,357.472,187.44,344.26,200.657h4.928v12.855h16.564V200.657Z" transform="translate(-284.797 -134.705)" fill="#407bff"/>
      <path id="Path_1026" data-name="Path 1026" d="M370.685,200.657,357.472,187.44,344.26,200.657h4.928v12.855h16.564V200.657Z" transform="translate(-284.797 -134.705)" fill="#fff" opacity="0.7"/>
      <path id="Path_1027" data-name="Path 1027" d="M274.474,228.372,261.257,215.16H250.97l11.423,11.418h-3.143v14.655h12.082v-12.86Z" transform="translate(-237.758 -148.682)" fill="#407bff"/>
      <path id="Path_1028" data-name="Path 1028" d="M274.474,228.372,261.257,215.16H250.97l11.423,11.418h-3.143v14.655h12.082v-12.86Z" transform="translate(-237.758 -148.682)" fill="#fff" opacity="0.4"/>
      <path id="Path_1029" data-name="Path 1029" d="M250.745,228.372,237.532,215.16,224.32,228.372h4.928v12.855h16.564V228.372Z" transform="translate(-224.32 -148.682)" fill="#407bff"/>
      <path id="Path_1030" data-name="Path 1030" d="M250.745,228.372,237.532,215.16,224.32,228.372h4.928v12.855h16.564V228.372Z" transform="translate(-224.32 -148.682)" fill="#fff" opacity="0.7"/>
      <path id="Path_1031" data-name="Path 1031" d="M280.13,135.6h-7.109L272,134.589,263.75,119.22Z" transform="translate(-244.202 -100.306)" fill="#2f54c6"/>
      <rect id="Rectangle_419" data-name="Rectangle 419" width="14.977" height="18.165" transform="translate(43.772 50.222) rotate(180)" fill="#407bff"/>
      <rect id="Rectangle_420" data-name="Rectangle 420" width="14.977" height="18.165" transform="translate(43.772 50.222) rotate(180)" opacity="0.3"/>
      <path id="Path_1032" data-name="Path 1032" d="M278.08,133.555h12.761L274.456,117.17H261.7Z" transform="translate(-243.168 -99.273)" fill="#407bff"/>
      <path id="Path_1033" data-name="Path 1033" d="M278.08,133.555h12.761L274.456,117.17H261.7Z" transform="translate(-243.168 -99.273)" opacity="0.3"/>
      <path id="Path_1034" data-name="Path 1034" d="M261.52,130.81v20.535H240.99V130.81l10.267-9.97.1.1.912.882Z" transform="translate(-232.726 -101.123)" fill="#407bff"/>
      <path id="Path_1035" data-name="Path 1035" d="M252.274,119.22v7.109L243,135.6H240.99v-5.1l10.372-10.376Z" transform="translate(-232.726 -100.306)" opacity="0.3"/>
      <path id="Path_1036" data-name="Path 1036" d="M278.08,133.555h-7.109l-9.271-9.276V117.17Z" transform="translate(-243.168 -99.273)" fill="#407bff"/>
      <path id="Path_1037" data-name="Path 1037" d="M228.65,133.555h7.109l9.276-9.276V117.17Z" transform="translate(-226.503 -99.273)" fill="#407bff"/>
    </g>
    <g id="freepik--Character--inject-61" transform="translate(51.703 67.894)">
      <path id="Path_1038" data-name="Path 1038" d="M163.993,185.888c-4.229,3.431-8.592,6.658-12.979,9.831s-8.835,6.257-13.3,9.316-9,6-13.554,8.924c-2.266,1.487-4.566,2.9-6.852,4.343a12.687,12.687,0,0,1-3.689,1.745,10.938,10.938,0,0,1-2.181.357,9.127,9.127,0,0,1-2.479-.134,4.958,4.958,0,0,1-3.867-5.86,1.176,1.176,0,0,1,.055-.248,8.923,8.923,0,0,1,.992-2.281,10.669,10.669,0,0,1,1.284-1.77,12.706,12.706,0,0,1,3.188-2.548c2.305-1.418,4.591-2.861,6.906-4.249,4.616-2.821,9.276-5.563,13.961-8.269s9.42-5.33,14.194-7.888,9.588-5.052,14.526-7.352a3.624,3.624,0,0,1,3.793,6.083Z" transform="translate(-104.994 -131.281)" fill="#407bff"/>
      <path id="Path_1039" data-name="Path 1039" d="M163.993,185.888c-4.229,3.431-8.592,6.658-12.979,9.831s-8.835,6.257-13.3,9.316-9,6-13.554,8.924c-2.266,1.487-4.566,2.9-6.852,4.343a12.687,12.687,0,0,1-3.689,1.745,10.938,10.938,0,0,1-2.181.357,9.127,9.127,0,0,1-2.479-.134,4.958,4.958,0,0,1-3.867-5.86,1.176,1.176,0,0,1,.055-.248,8.923,8.923,0,0,1,.992-2.281,10.669,10.669,0,0,1,1.284-1.77,12.706,12.706,0,0,1,3.188-2.548c2.305-1.418,4.591-2.861,6.906-4.249,4.616-2.821,9.276-5.563,13.961-8.269s9.42-5.33,14.194-7.888,9.588-5.052,14.526-7.352a3.624,3.624,0,0,1,3.793,6.083Z" transform="translate(-104.994 -131.281)" fill="#407bff"/>
      <path id="Path_1040" data-name="Path 1040" d="M163.993,185.888c-4.229,3.431-8.592,6.658-12.979,9.831s-8.835,6.257-13.3,9.316-9,6-13.554,8.924c-2.266,1.487-4.566,2.9-6.852,4.343a12.687,12.687,0,0,1-3.689,1.745,10.938,10.938,0,0,1-2.181.357,9.127,9.127,0,0,1-2.479-.134,4.958,4.958,0,0,1-3.867-5.86,1.176,1.176,0,0,1,.055-.248,8.923,8.923,0,0,1,.992-2.281,10.669,10.669,0,0,1,1.284-1.77,12.706,12.706,0,0,1,3.188-2.548c2.305-1.418,4.591-2.861,6.906-4.249,4.616-2.821,9.276-5.563,13.961-8.269s9.42-5.33,14.194-7.888,9.588-5.052,14.526-7.352a3.624,3.624,0,0,1,3.793,6.083Z" transform="translate(-104.994 -131.281)" fill="#fff" opacity="0.5"/>
      <path id="Path_1041" data-name="Path 1041" d="M185.174,397.082l4.045-.937-1.894-9.435-4.045.937Z" transform="translate(-144.468 -236.71)" fill="#ebb376"/>
      <path id="Path_1042" data-name="Path 1042" d="M124.6,178.985c-.56,1.983-1.1,4.07-1.616,6.113s-.992,4.115-1.388,6.177c-.218,1.026-.407,2.077-.57,3.044a27.9,27.9,0,0,0-.317,3,29.5,29.5,0,0,0,0,3.034c0,.5.064.992.114,1.517s.139,1.026.208,1.458l-1.983.749a13.056,13.056,0,0,1-.669-1.646,16.468,16.468,0,0,1-.5-1.651,22.491,22.491,0,0,1-.555-3.391,26.7,26.7,0,0,1-.05-3.47c.079-1.17.218-2.246.372-3.337.312-2.176.714-4.333,1.19-6.445s.992-4.239,1.661-6.376Z" transform="translate(-111.169 -130.327)" fill="#ebb376"/>
      <path id="Path_1043" data-name="Path 1043" d="M120.31,174.835l4.169,3.322,2.5,1.983s.263-.7.58-1.7c.6-1.934,1.393-5,.848-6.405-.858-2.231-2.479-4.244-4.531-3.8C122.139,168.628,120.31,174.835,120.31,174.835Z" transform="translate(-112.717 -125.396)" fill="#263238"/>
      <path id="Path_1044" data-name="Path 1044" d="M131.6,397.908h4.15l-.322-9.618H131.27Z" transform="translate(-118.243 -237.507)" fill="#ebb376"/>
      <path id="Path_1045" data-name="Path 1045" d="M187.32,386.72l1.016,5.052-4.085.744-.982-4.859Z" transform="translate(-144.463 -236.715)" fill="#da9d62"/>
      <path id="Path_1046" data-name="Path 1046" d="M131.27,388.29h4.155l.164,4.958h-4.155Z" transform="translate(-118.243 -237.507)" fill="#da9d62"/>
      <path id="Path_1047" data-name="Path 1047" d="M142.228,219.1s-2.409,28.5-4.908,44.565c-2.018,12.974-3.614,43.306-3.614,43.306h-5.642s-2.7-29.29-1.671-42.141c2.593-32.468-1.983-38.219,3.446-45.745Z" transform="translate(-115.666 -152.191)" fill="#407bff"/>
      <path id="Path_1048" data-name="Path 1048" d="M142.228,219.1s-2.409,28.5-4.908,44.565c-2.018,12.974-3.614,43.306-3.614,43.306h-5.642s-2.7-29.29-1.671-42.141c2.593-32.468-1.983-38.219,3.446-45.745Z" transform="translate(-115.666 -152.191)" opacity="0.6"/>
      <path id="Path_1049" data-name="Path 1049" d="M118.939,229.56l-2.449,1.666.347,1.423s5.1-2.647,3.738-3.708Z" transform="translate(-110.79 -156.303)" fill="#ebb376"/>
      <path id="Path_1050" data-name="Path 1050" d="M142.639,407.109a5.047,5.047,0,0,1-1.1-.149.109.109,0,0,1-.074-.079.1.1,0,0,1,.045-.1c.144-.094,1.4-.907,1.884-.689a.332.332,0,0,1,.2.278.56.56,0,0,1-.164.521A1.18,1.18,0,0,1,142.639,407.109Zm-.818-.292a2,2,0,0,0,1.487-.069.382.382,0,0,0,.1-.352.149.149,0,0,0-.084-.124c-.263-.114-.992.253-1.507.545Z" transform="translate(-123.385 -246.465)" fill="#407bff"/>
      <path id="Path_1051" data-name="Path 1051" d="M141.569,405.978a.079.079,0,0,1-.05,0,.1.1,0,0,1-.05-.084c0-.055,0-1.249.456-1.651a.5.5,0,0,1,.416-.129.342.342,0,0,1,.332.273c.094.5-.664,1.368-1.056,1.591A.089.089,0,0,1,141.569,405.978Zm.7-1.681a.347.347,0,0,0-.218.084,2.241,2.241,0,0,0-.382,1.309c.392-.317.868-.992.808-1.274,0-.045-.035-.1-.164-.119Z" transform="translate(-123.386 -245.483)" fill="#407bff"/>
      <path id="Path_1052" data-name="Path 1052" d="M195.9,402.771a.1.1,0,0,1-.079-.164c.134-.159,1.289-1.517,1.879-1.517h.04a.3.3,0,0,1,.253.173.535.535,0,0,1,0,.5c-.258.545-1.423.853-2.1.992Zm1.795-1.487c-.322,0-1.036.674-1.527,1.225.907-.213,1.522-.5,1.666-.818a.332.332,0,0,0,0-.332.124.124,0,0,0-.1-.074Z" transform="translate(-150.782 -243.961)" fill="#407bff"/>
      <path id="Path_1053" data-name="Path 1053" d="M195.755,402.264h0a.084.084,0,0,1-.069-.065,2.872,2.872,0,0,1-.04-1.715.714.714,0,0,1,.436-.367c.263-.079.392,0,.446.114.253.406-.307,1.606-.679,1.983a.1.1,0,0,1-.094.05Zm.5-1.983a.365.365,0,0,0-.114,0,.521.521,0,0,0-.322.268,2.285,2.285,0,0,0,0,1.388c.352-.5.694-1.383.545-1.626a.114.114,0,0,0-.139-.03Z" transform="translate(-150.637 -243.455)" fill="#407bff"/>
      <path id="Path_1054" data-name="Path 1054" d="M142.173,148.07c.5,2.479,1.487,7.437-.223,9.1,0,0,.674,2.479,5.255,2.479,5.032,0,2.4-2.479,2.4-2.479-2.747-.654-2.677-2.692-2.2-4.611Z" transform="translate(-123.628 -115.157)" fill="#ebb376"/>
      <path id="Path_1055" data-name="Path 1055" d="M162.38,136.235a.194.194,0,0,1-.114-.035.2.2,0,0,1-.045-.278,1.983,1.983,0,0,1,1.582-.843.2.2,0,0,1,0,.392,1.562,1.562,0,0,0-1.249.684A.193.193,0,0,1,162.38,136.235Z" transform="translate(-133.831 -108.272)" fill="#263238"/>
      <path id="Path_1056" data-name="Path 1056" d="M164.7,142.18a8.879,8.879,0,0,0,1.111,2.186,1.453,1.453,0,0,1-1.2.174Z" transform="translate(-135.054 -111.852)" fill="#de5753"/>
      <path id="Path_1057" data-name="Path 1057" d="M164.24,140.4c0,.337.154.615.372.62s.407-.253.421-.59-.154-.61-.372-.62S164.255,140.068,164.24,140.4Z" transform="translate(-134.867 -110.657)" fill="#263238"/>
      <path id="Path_1058" data-name="Path 1058" d="M164.89,139.638l.813-.2S165.267,140.05,164.89,139.638Z" transform="translate(-135.195 -110.471)" fill="#263238"/>
      <path id="Path_1059" data-name="Path 1059" d="M135.373,406.72h-4.665a.322.322,0,0,0-.332.283l-.53,3.689a.659.659,0,0,0,.664.739c1.626-.025,2.409-.124,4.462-.124,1.264,0,3.1.134,4.849.134s1.834-1.725,1.111-1.879a8.141,8.141,0,0,1-4.864-2.588,1.1,1.1,0,0,0-.694-.253Z" transform="translate(-117.522 -246.8)" fill="#263238"/>
      <path id="Path_1060" data-name="Path 1060" d="M190.506,403.508,186.2,405.3a.327.327,0,0,0-.2.387l.922,3.614a.664.664,0,0,0,.9.426c1.487-.649,2.181-1.036,4.075-1.824,1.165-.5,3.629-1.363,5.24-2.033s1.031-2.3.3-2.162a11.211,11.211,0,0,1-6.192-.228A1.081,1.081,0,0,0,190.506,403.508Z" transform="translate(-145.834 -245.14)" fill="#263238"/>
      <path id="Path_1061" data-name="Path 1061" d="M172.171,176.79c.808,1.9,1.681,3.852,2.563,5.746q.669,1.428,1.393,2.806c.5.922.992,1.824,1.487,2.687.263.426.525.853.8,1.244l.407.565a2.229,2.229,0,0,0,.283.327,3.416,3.416,0,0,0,1.929.823,15.238,15.238,0,0,0,5.711-.61l.882,1.909a14.121,14.121,0,0,1-1.557.808,13.906,13.906,0,0,1-1.621.635,11.631,11.631,0,0,1-3.619.62,7.352,7.352,0,0,1-2.033-.268,6.183,6.183,0,0,1-2.038-.992,6.3,6.3,0,0,1-.868-.8c-.223-.253-.387-.466-.585-.7-.372-.466-.7-.937-1.036-1.408a51.364,51.364,0,0,1-3.332-5.8c-.992-1.983-1.884-3.966-2.707-6.019Z" transform="translate(-136.879 -129.802)" fill="#ebb376"/>
      <path id="Path_1062" data-name="Path 1062" d="M203.838,205.182l4.531-.714-1.2-2.568s-3.51.61-4.184,2.2Z" transform="translate(-154.401 -142.538)" fill="#ebb376"/>
      <path id="Path_1063" data-name="Path 1063" d="M212.62,201.926l-.5-1.1-.7.53,1.2,2.568Z" transform="translate(-158.657 -141.993)" fill="#ebb376"/>
      <path id="Path_1064" data-name="Path 1064" d="M141.637,131.879c.089,4.12.04,5.865,2.033,8.056,2.975,3.3,8.041,2.286,9.182-1.78,1.026-3.659.7-9.782-3.252-11.576a5.622,5.622,0,0,0-7.962,5.3Z" transform="translate(-123.469 -103.728)" fill="#ebb376"/>
      <path id="Path_1065" data-name="Path 1065" d="M130.639,121.093c4.234-3.069,8.964-1.329,11.551.793,2.707,2.221,2.276,6.49.62,8.255a2.181,2.181,0,0,1,.278,1.79h0a5.379,5.379,0,0,1-3.966,6.048l-.233.059c-5.29,1.259-11.4-2.32-12.325-7.675C126,127.1,126.9,123.8,130.639,121.093Z" transform="translate(-115.793 -100.383)" fill="#263238"/>
      <path id="Path_1066" data-name="Path 1066" d="M157.576,140.364a3.4,3.4,0,0,0,.942,2.067c.734.759,1.487.322,1.621-.575a2.635,2.635,0,0,0-1.021-2.608A1.04,1.04,0,0,0,157.576,140.364Z" transform="translate(-131.505 -110.304)" fill="#ebb376"/>
      <path id="Path_1067" data-name="Path 1067" d="M146.93,242.28c-.471,8.517,1.581,14.947,2.518,18.71.664-5.563,1.274-11.368,1.785-16.489C149.483,238.7,147.272,235.869,146.93,242.28Z" transform="translate(-126.104 -161.328)" opacity="0.3"/>
      <path id="Path_1068" data-name="Path 1068" d="M135.225,393.746h-7.213l-.382-2.528,7.635-.258Z" transform="translate(-116.408 -238.853)" fill="#407bff"/>
      <path id="Path_1069" data-name="Path 1069" d="M128.72,181.11l2.5,1.983s.263-.7.58-1.7l-1.487-7.362Z" transform="translate(-116.957 -128.37)" opacity="0.3"/>
      <path id="Path_1070" data-name="Path 1070" d="M139.7,121.594c1.294-1.433,5.691-3.619,9.464-1.9a6.148,6.148,0,0,1,3.6,5.612l-3.4,2.281Z" transform="translate(-122.494 -100.196)" fill="#263238"/>
      <path id="Path_1071" data-name="Path 1071" d="M129.2,126.11c1.869-1.532,3.966-7.085,0-5.151S124.029,130.349,129.2,126.11Z" transform="translate(-115.464 -100.948)" fill="#407bff"/>
      <path id="Path_1072" data-name="Path 1072" d="M124.471,120.058c.808-2.36-4.521-7.055-8.116-2.593S122.146,126.85,124.471,120.058Z" transform="translate(-110.314 -98.455)" fill="#263238"/>
      <path id="Path_1073" data-name="Path 1073" d="M147.5,124.939c-3.1-1.319-4.64-6.316.679-6.172S153.341,127.433,147.5,124.939Z" transform="translate(-125 -100.045)" fill="#407bff"/>
      <path id="Path_1074" data-name="Path 1074" d="M147.66,119.064c-1.879-2.345.2-8.374,5.587-6.445S151.973,124.423,147.66,119.064Z" transform="translate(-126.165 -96.758)" fill="#263238"/>
      <path id="Path_1075" data-name="Path 1075" d="M155.69,219.12s4.68,31.977,6.326,44.56c1.71,13.064,6.708,42.354,6.708,42.354l-5.553.848s-8.775-27.937-11.219-40.653c-2.667-13.857-7.932-47.1-7.932-47.1Z" transform="translate(-124.672 -152.207)" fill="#407bff"/>
      <path id="Path_1076" data-name="Path 1076" d="M155.69,219.12s4.68,31.977,6.326,44.56c1.71,13.064,6.708,42.354,6.708,42.354l-5.553.848s-8.775-27.937-11.219-40.653c-2.667-13.857-7.932-47.1-7.932-47.1Z" transform="translate(-124.672 -152.207)" opacity="0.6"/>
      <path id="Path_1077" data-name="Path 1077" d="M166.711,168.425c2.062.5,4.606,6.167,4.606,6.167l-4.913,6.3s-5.077-7.184-4.4-9.375C162.71,169.229,164.208,167.816,166.711,168.425Z" transform="translate(-133.71 -125.454)" fill="#263238"/>
      <path id="Path_1078" data-name="Path 1078" d="M148.782,165.7c.679.1.05-1.453-.233-1.616-.649-.387-8.924-1.165-8.83-.293a2.335,2.335,0,0,0,.635,1.388C140.726,165.431,142.833,164.747,148.782,165.7Z" transform="translate(-122.503 -122.939)" fill="#407bff"/>
      <path id="Path_1079" data-name="Path 1079" d="M148.782,165.7c.679.1.05-1.453-.233-1.616-.649-.387-8.924-1.165-8.83-.293a2.335,2.335,0,0,0,.635,1.388C140.726,165.431,142.833,164.747,148.782,165.7Z" transform="translate(-122.503 -122.939)" fill="#fff" opacity="0.6"/>
      <path id="Path_1080" data-name="Path 1080" d="M149.374,167.346s1.983.694-1.983,25.061H130.535c.283-6.861.292-11.1-2.975-25.185a49.714,49.714,0,0,1,7.159-.942,53.316,53.316,0,0,1,7.66,0C145.626,166.567,149.374,167.346,149.374,167.346Z" transform="translate(-116.372 -124.405)" fill="#263238"/>
      <path id="Path_1081" data-name="Path 1081" d="M132.214,217l-.759,1.487c-.059.119.079.238.273.238h17.689c.149,0,.278-.074.288-.174l.149-1.487c0-.1-.119-.193-.288-.193H132.5a.3.3,0,0,0-.288.129Z" transform="translate(-118.33 -150.149)" fill="#407bff"/>
      <path id="Path_1082" data-name="Path 1082" d="M132.214,217l-.759,1.487c-.059.119.079.238.273.238h17.689c.149,0,.278-.074.288-.174l.149-1.487c0-.1-.119-.193-.288-.193H132.5a.3.3,0,0,0-.288.129Z" transform="translate(-118.33 -150.149)" fill="#fff" opacity="0.6"/>
      <path id="Path_1083" data-name="Path 1083" d="M137.035,218.771h-.461c-.089,0-.159-.05-.154-.1l.218-1.983c0-.059.084-.1.174-.1h.461c.089,0,.159.045.154.1l-.218,1.983C137.2,218.712,137.124,218.771,137.035,218.771Z" transform="translate(-120.84 -150.006)" fill="#407bff"/>
      <path id="Path_1084" data-name="Path 1084" d="M159.379,218.771h-.456c-.094,0-.164-.05-.154-.1l.213-1.983c0-.059.084-.1.178-.1h.456c.089,0,.159.045.154.1l-.213,1.983C159.557,218.712,159.478,218.771,159.379,218.771Z" transform="translate(-132.108 -150.006)" fill="#407bff"/>
      <path id="Path_1085" data-name="Path 1085" d="M137.035,218.771h-.461c-.089,0-.159-.05-.154-.1l.218-1.983c0-.059.084-.1.174-.1h.461c.089,0,.159.045.154.1l-.218,1.983C137.2,218.712,137.124,218.771,137.035,218.771Z" transform="translate(-120.84 -150.006)" opacity="0.6"/>
      <path id="Path_1086" data-name="Path 1086" d="M159.379,218.771h-.456c-.094,0-.164-.05-.154-.1l.213-1.983c0-.059.084-.1.178-.1h.456c.089,0,.159.045.154.1l-.213,1.983C159.557,218.712,159.478,218.771,159.379,218.771Z" transform="translate(-132.108 -150.006)" opacity="0.6"/>
      <path id="Path_1087" data-name="Path 1087" d="M187.447,391.606l-7.109,1.21-.808-2.682,7.61-1.3Z" transform="translate(-142.577 -237.779)" fill="#407bff"/>
      <path id="Path_1088" data-name="Path 1088" d="M270.553,97.989a36.1,36.1,0,1,0-11.5,49.741,36.1,36.1,0,0,0,11.5-49.741ZM215.775,132.2a28.482,28.482,0,1,1,39.245,9.078,28.482,28.482,0,0,1-39.245-9.078Z" transform="translate(-154.832 -81.007)" fill="#407bff"/>
      <path id="Path_1089" data-name="Path 1089" d="M270.553,97.989a36.1,36.1,0,1,0-11.5,49.741,36.1,36.1,0,0,0,11.5-49.741ZM215.775,132.2a28.482,28.482,0,1,1,39.245,9.078,28.482,28.482,0,0,1-39.245-9.078Z" transform="translate(-154.832 -81.007)" fill="#407bff"/>
      <path id="Path_1090" data-name="Path 1090" d="M270.553,97.989a36.1,36.1,0,1,0-11.5,49.741,36.1,36.1,0,0,0,11.5-49.741ZM215.775,132.2a28.482,28.482,0,1,1,39.245,9.078,28.482,28.482,0,0,1-39.245-9.078Z" transform="translate(-154.832 -81.007)" fill="#fff" opacity="0.5"/>
      <path id="Path_1091" data-name="Path 1091" d="M271.359,105.407a31.3,31.3,0,1,1-43.132-9.975A31.3,31.3,0,0,1,271.359,105.407Z" transform="translate(-159.708 -85.882)" fill="#fafafa" opacity="0.2"/>
      <path id="Path_1092" data-name="Path 1092" d="M279.968,131.462l-48.585,30.331a31.288,31.288,0,0,1-9.623-10.411l53.047-33.122A31.312,31.312,0,0,1,279.968,131.462Z" transform="translate(-163.871 -99.791)" fill="#e6e6e6" opacity="0.1"/>
    </g>
  </g>
</svg>
