<svg xmlns="http://www.w3.org/2000/svg" width="215.621" height="164.861" viewBox="0 0 215.621 164.861">
  <g id="Login-bro" transform="translate(-44.828 -88.787)">
    <g id="freepik--background-simple--inject-75" transform="translate(44.828 88.787)">
      <path id="Path_1093" data-name="Path 1093" d="M208.158,110.843s-21.105-23.124-54.52-22.018-61.917,23.512-85.481,41.042-29.881,44.759-16.183,66.016,35.527,12.309,63.316,26.107,33.068,21.635,64.024,18.28,54.52-37.671,51.007-74.225S208.158,110.843,208.158,110.843Z" transform="translate(-44.828 -88.787)" fill="#80a7ff"/>
      <path id="Path_1094" data-name="Path 1094" d="M208.158,110.843s-21.105-23.124-54.52-22.018-61.917,23.512-85.481,41.042-29.881,44.759-16.183,66.016,35.527,12.309,63.316,26.107,33.068,21.635,64.024,18.28,54.52-37.671,51.007-74.225S208.158,110.843,208.158,110.843Z" transform="translate(-44.828 -88.787)" fill="#fff" opacity="0.7"/>
    </g>
    <g id="freepik--Floor--inject-75" transform="translate(52.31 242.293)">
      <ellipse id="Ellipse_3" data-name="Ellipse 3" cx="104.07" cy="5.677" rx="104.07" ry="5.677" fill="#80a7ff"/>
      <ellipse id="Ellipse_4" data-name="Ellipse 4" cx="104.07" cy="5.677" rx="104.07" ry="5.677" fill="#fff" opacity="0.3"/>
    </g>
    <g id="freepik--Plants--inject-75" transform="translate(178.921 149.12)">
      <path id="Path_1095" data-name="Path 1095" d="M374.938,223.828c-.031,0,.362-1.955.4-2.1.451-1.394,2.149-3.827,3.79-3.822A1.945,1.945,0,0,1,381,220.117a4.079,4.079,0,0,1-2.1,2.71A13.441,13.441,0,0,1,374.938,223.828Z" transform="translate(-335.978 -210.554)" fill="#80a7ff"/>
      <path id="Path_1096" data-name="Path 1096" d="M360.519,203.989c1.547.556,2.317,3.418,2.265,4.886,0,.126-.294,2.1-.32,2.1h-.031c.121.451.252.938.383,1.468.231.986.482,2.1.676,3.334a34.492,34.492,0,0,1,.44,4.01,25.321,25.321,0,0,1-.152,4.508.151.151,0,0,0,0,.052c.2-.435.807-1.641.865-1.73.807-1.227,3.083-3.145,4.671-2.684a1.945,1.945,0,0,1,1.216,2.621,4.061,4.061,0,0,1-2.731,2.055,13.5,13.5,0,0,1-4.052-.094,34.04,34.04,0,0,1-.975,4.487q-.367,1.29-.8,2.579c.184-.372.357-.7.383-.75.807-1.227,3.082-3.145,4.671-2.689a1.94,1.94,0,0,1,1.216,2.621,4.068,4.068,0,0,1-2.731,2.06,13.173,13.173,0,0,1-3.937-.079c-.11.325-.22.655-.336.98-.524,1.573-1.09,3.145-1.573,4.687-.173.524-.325,1.09-.477,1.636.168-.33.309-.608.336-.645.8-1.227,3.082-3.145,4.666-2.689a1.95,1.95,0,0,1,1.221,2.621,4.071,4.071,0,0,1-2.737,2.055,12.112,12.112,0,0,1-3.827-.063c-.142.566-.278,1.127-.388,1.678-.068.377-.157.739-.2,1.122s-.1.755-.157,1.122c-.073.718-.157,1.463-.21,2.165-.042.488-.073.954-.1,1.421.162-.524.524-1.6.55-1.693a7.6,7.6,0,0,1,2.516-2.862,2.016,2.016,0,0,1,.215-.372,1.945,1.945,0,0,1,2.857-.451c1.248,1.048.933,4.026.362,5.379-.031.079-.5.9-.8,1.415.225-.273.435-.524.671-.828.456-.556.928-1.1,1.431-1.688l.771-.833c.252-.288.556-.556.833-.834.655-.634,1.352-1.248,2.071-1.85a12.617,12.617,0,0,1-2.7-2.836,4.056,4.056,0,0,1-.33-3.4A1.945,1.945,0,0,1,369,237.1c1.389.87,1.531,3.832,1.169,5.242,0,.089-.4,1.08-.613,1.62.435-.356.865-.718,1.316-1.048,1.3-1.007,2.647-1.982,3.984-2.962l1.221-.907a13.7,13.7,0,0,1-2.8-2.92,4.084,4.084,0,0,1-.33-3.407,1.95,1.95,0,0,1,2.763-.875c1.389.875,1.531,3.837,1.169,5.242-.026.11-.566,1.536-.723,1.892.9-.671,1.782-1.342,2.621-2.039a33.928,33.928,0,0,0,3.25-3.03,13.677,13.677,0,0,1-2.82-2.936,4.055,4.055,0,0,1-.33-3.4,1.94,1.94,0,0,1,2.757-.875c1.394.87,1.536,3.832,1.174,5.242-.026.089-.435,1.18-.645,1.693l.084.047a25.1,25.1,0,0,0,2.668-3.586c.435-.692.818-1.379,1.174-2.06a12.494,12.494,0,0,1-3.051-2.558,4.018,4.018,0,0,1-.7-3.345,1.945,1.945,0,0,1,2.621-1.174c1.484.713,1.945,3.643,1.74,5.1,0,.079-.21.87-.362,1.447.152-.309.32-.624.461-.923.524-1.122.97-2.181,1.337-3.145.21-.524.383-1.048.524-1.484a13.263,13.263,0,0,1-1.52-3.67,4.019,4.019,0,0,1,.923-3.3,1.945,1.945,0,0,1,2.888.184c.986,1.316.047,4.126-.8,5.326-.073.1-1.41,1.573-1.426,1.573v-.031c-.147.446-.3.923-.493,1.436-.346.949-.755,2.024-1.269,3.145a35.058,35.058,0,0,1-1.851,3.586,25.44,25.44,0,0,1-2.621,3.67l-.037.042c.409-.257,1.573-.923,1.672-.965,1.352-.577,4.3-.907,5.379.336a1.95,1.95,0,0,1-.43,2.862,4.116,4.116,0,0,1-3.418.2,14.086,14.086,0,0,1-3.329-2.312,34.009,34.009,0,0,1-3.287,3.2c-.681.587-1.379,1.153-2.1,1.709.362-.2.687-.388.734-.409,1.347-.577,4.293-.907,5.373.335a1.945,1.945,0,0,1-.43,2.862,4.1,4.1,0,0,1-3.413.2,12.722,12.722,0,0,1-3.24-2.233l-.823.634c-1.321,1.012-2.621,2.013-3.906,3.035-.446.362-.87.734-1.3,1.1.325-.184.592-.336.64-.351,1.347-.582,4.293-.907,5.373.33a1.939,1.939,0,0,1-.43,2.862,4.123,4.123,0,0,1-3.413.21,11.385,11.385,0,0,1-3.145-2.165c-.425.393-.854.781-1.248,1.185-.267.278-.524.524-.786.823s-.524.566-.755.849c-.456.556-.933,1.132-1.368,1.688-.3.383-.587.755-.87,1.127.435-.362,1.316-1.048,1.394-1.106,1.242-.776,4.1-1.546,5.363-.488a1.95,1.95,0,0,1,0,2.9,4.079,4.079,0,0,1-3.339.723,12.769,12.769,0,0,1-3.622-1.772c-.472.619-.923,1.227-1.342,1.809-1.452,2.008-2.584,3.733-3.36,4.954l-.079.121-1.007-.488c.052-.079.1-.152.157-.236.813-1.216,2-2.936,3.507-4.933.477-.629,1-1.295,1.536-1.976a20.956,20.956,0,0,1-1.573-1.929,14.353,14.353,0,0,1-3.874.472c-.047.776-.089,1.531-.121,2.244-.1,2.48-.094,4.545-.068,5.987v.173l-1.106-.524c0-1.431.058-3.376.2-5.667.047-.792.115-1.636.194-2.5a13.422,13.422,0,0,1-3.753-1.478,4.062,4.062,0,0,1-1.725-2.951,1.94,1.94,0,0,1,2.139-1.95c1.63.21,2.993,2.841,3.266,4.283,0,.084.084,1.048.115,1.625.037-.356.063-.7.1-1.048.073-.718.168-1.436.267-2.207.058-.367.121-.739.178-1.117s.157-.765.236-1.153c.2-.891.44-1.788.708-2.684a13.052,13.052,0,0,1-3.816-.875,4.027,4.027,0,0,1-2.149-2.658,1.94,1.94,0,0,1,1.819-2.254c1.641-.042,3.392,2.354,3.874,3.738.031.089.267,1.122.383,1.693.168-.524.325-1.08.524-1.615.524-1.573,1.117-3.114,1.693-4.671.178-.477.346-.954.524-1.426a12.926,12.926,0,0,1-3.953-.891,4.031,4.031,0,0,1-2.155-2.658,1.95,1.95,0,0,1,1.819-2.254c1.646-.042,3.4,2.354,3.879,3.738.037.1.372,1.573.44,1.976.377-1.048.75-2.1,1.048-3.145a33.984,33.984,0,0,0,1.048-4.32,13.4,13.4,0,0,1-3.974-.891,4,4,0,0,1-2.155-2.658A1.95,1.95,0,0,1,359,218.693c1.641-.037,3.392,2.354,3.874,3.738.031.094.288,1.227.4,1.767h.094a25.088,25.088,0,0,0,.252-4.461,22.861,22.861,0,0,0-.157-2.37,13.5,13.5,0,0,1-3.953-.451,4,4,0,0,1-2.438-2.406,1.945,1.945,0,0,1,1.573-2.438c1.63-.22,3.633,1.966,4.267,3.292.031.073.3.844.488,1.4-.037-.341-.073-.7-.121-1.022-.162-1.232-.393-2.354-.6-3.339-.126-.561-.246-1.048-.367-1.536a12.876,12.876,0,0,1-3.287-2.217,4.03,4.03,0,0,1-1.048-3.255,1.945,1.945,0,0,1,2.548-1.41Z" transform="translate(-324.741 -203.877)" fill="#80a7ff"/>
      <path id="Path_1097" data-name="Path 1097" d="M422.053,248.5a13.772,13.772,0,0,1-3.853-1.373c0-.005,1.379-1.426,1.478-1.5,1.148-.917,3.906-2.008,5.274-1.1a1.95,1.95,0,0,1,.341,2.878A4.128,4.128,0,0,1,422.053,248.5Z" transform="translate(-356.561 -223.052)" fill="#80a7ff"/>
      <g id="Group_16" data-name="Group 16" transform="translate(26.578 0)" opacity="0.5">
        <path id="Path_1098" data-name="Path 1098" d="M374.938,223.828c-.031,0,.362-1.955.4-2.1.451-1.394,2.149-3.827,3.79-3.822A1.945,1.945,0,0,1,381,220.117a4.079,4.079,0,0,1-2.1,2.71A13.441,13.441,0,0,1,374.938,223.828Z" transform="translate(-362.555 -210.554)" fill="#fff"/>
        <path id="Path_1099" data-name="Path 1099" d="M360.519,203.989c1.547.556,2.317,3.418,2.265,4.886,0,.126-.294,2.1-.32,2.1h-.031c.121.451.252.938.383,1.468.231.986.482,2.1.676,3.334a34.492,34.492,0,0,1,.44,4.01,25.321,25.321,0,0,1-.152,4.508.151.151,0,0,0,0,.052c.2-.435.807-1.641.865-1.73.807-1.227,3.083-3.145,4.671-2.684a1.945,1.945,0,0,1,1.216,2.621,4.061,4.061,0,0,1-2.731,2.055,13.5,13.5,0,0,1-4.052-.094,34.04,34.04,0,0,1-.975,4.487q-.367,1.29-.8,2.579c.184-.372.357-.7.383-.75.807-1.227,3.082-3.145,4.671-2.689a1.94,1.94,0,0,1,1.216,2.621,4.068,4.068,0,0,1-2.731,2.06,13.173,13.173,0,0,1-3.937-.079c-.11.325-.22.655-.336.98-.524,1.573-1.09,3.145-1.573,4.687-.173.524-.325,1.09-.477,1.636.168-.33.309-.608.336-.645.8-1.227,3.082-3.145,4.666-2.689a1.95,1.95,0,0,1,1.221,2.621,4.071,4.071,0,0,1-2.737,2.055,12.112,12.112,0,0,1-3.827-.063c-.142.566-.278,1.127-.388,1.678-.068.377-.157.739-.2,1.122s-.1.755-.157,1.122c-.073.718-.157,1.463-.21,2.165-.042.488-.073.954-.1,1.421.162-.524.524-1.6.55-1.693a7.6,7.6,0,0,1,2.516-2.862,2.016,2.016,0,0,1,.215-.372,1.945,1.945,0,0,1,2.857-.451c1.248,1.048.933,4.026.362,5.379-.031.079-.5.9-.8,1.415.225-.273.435-.524.671-.828.456-.556.928-1.1,1.431-1.688l.771-.833c.252-.288.556-.556.833-.834.655-.634,1.352-1.248,2.071-1.85a12.617,12.617,0,0,1-2.7-2.836,4.056,4.056,0,0,1-.33-3.4A1.945,1.945,0,0,1,369,237.1c1.389.87,1.531,3.832,1.169,5.242,0,.089-.4,1.08-.613,1.62.435-.356.865-.718,1.316-1.048,1.3-1.007,2.647-1.982,3.984-2.962l1.221-.907a13.7,13.7,0,0,1-2.8-2.92,4.084,4.084,0,0,1-.33-3.407,1.95,1.95,0,0,1,2.763-.875c1.389.875,1.531,3.837,1.169,5.242-.026.11-.566,1.536-.723,1.892.9-.671,1.782-1.342,2.621-2.039a33.928,33.928,0,0,0,3.25-3.03,13.677,13.677,0,0,1-2.82-2.936,4.055,4.055,0,0,1-.33-3.4,1.94,1.94,0,0,1,2.757-.875c1.394.87,1.536,3.832,1.174,5.242-.026.089-.435,1.18-.645,1.693l.084.047a25.1,25.1,0,0,0,2.668-3.586c.435-.692.818-1.379,1.174-2.06a12.494,12.494,0,0,1-3.051-2.558,4.018,4.018,0,0,1-.7-3.345,1.945,1.945,0,0,1,2.621-1.174c1.484.713,1.945,3.643,1.74,5.1,0,.079-.21.87-.362,1.447.152-.309.32-.624.461-.923.524-1.122.97-2.181,1.337-3.145.21-.524.383-1.048.524-1.484a13.263,13.263,0,0,1-1.52-3.67,4.019,4.019,0,0,1,.923-3.3,1.945,1.945,0,0,1,2.888.184c.986,1.316.047,4.126-.8,5.326-.073.1-1.41,1.573-1.426,1.573v-.031c-.147.446-.3.923-.493,1.436-.346.949-.755,2.024-1.269,3.145a35.058,35.058,0,0,1-1.851,3.586,25.44,25.44,0,0,1-2.621,3.67l-.037.042c.409-.257,1.573-.923,1.672-.965,1.352-.577,4.3-.907,5.379.336a1.95,1.95,0,0,1-.43,2.862,4.116,4.116,0,0,1-3.418.2,14.086,14.086,0,0,1-3.329-2.312,34.009,34.009,0,0,1-3.287,3.2c-.681.587-1.379,1.153-2.1,1.709.362-.2.687-.388.734-.409,1.347-.577,4.293-.907,5.373.335a1.945,1.945,0,0,1-.43,2.862,4.1,4.1,0,0,1-3.413.2,12.722,12.722,0,0,1-3.24-2.233l-.823.634c-1.321,1.012-2.621,2.013-3.906,3.035-.446.362-.87.734-1.3,1.1.325-.184.592-.336.64-.351,1.347-.582,4.293-.907,5.373.33a1.939,1.939,0,0,1-.43,2.862,4.123,4.123,0,0,1-3.413.21,11.385,11.385,0,0,1-3.145-2.165c-.425.393-.854.781-1.248,1.185-.267.278-.524.524-.786.823s-.524.566-.755.849c-.456.556-.933,1.132-1.368,1.688-.3.383-.587.755-.87,1.127.435-.362,1.316-1.048,1.394-1.106,1.242-.776,4.1-1.546,5.363-.488a1.95,1.95,0,0,1,0,2.9,4.079,4.079,0,0,1-3.339.723,12.769,12.769,0,0,1-3.622-1.772c-.472.619-.923,1.227-1.342,1.809-1.452,2.008-2.584,3.733-3.36,4.954l-.079.121-1.007-.488c.052-.079.1-.152.157-.236.813-1.216,2-2.936,3.507-4.933.477-.629,1-1.295,1.536-1.976a20.956,20.956,0,0,1-1.573-1.929,14.353,14.353,0,0,1-3.874.472c-.047.776-.089,1.531-.121,2.244-.1,2.48-.094,4.545-.068,5.987v.173l-1.106-.524c0-1.431.058-3.376.2-5.667.047-.792.115-1.636.194-2.5a13.422,13.422,0,0,1-3.753-1.478,4.062,4.062,0,0,1-1.725-2.951,1.94,1.94,0,0,1,2.139-1.95c1.63.21,2.993,2.841,3.266,4.283,0,.084.084,1.048.115,1.625.037-.356.063-.7.1-1.048.073-.718.168-1.436.267-2.207.058-.367.121-.739.178-1.117s.157-.765.236-1.153c.2-.891.44-1.788.708-2.684a13.052,13.052,0,0,1-3.816-.875,4.027,4.027,0,0,1-2.149-2.658,1.94,1.94,0,0,1,1.819-2.254c1.641-.042,3.392,2.354,3.874,3.738.031.089.267,1.122.383,1.693.168-.524.325-1.08.524-1.615.524-1.573,1.117-3.114,1.693-4.671.178-.477.346-.954.524-1.426a12.926,12.926,0,0,1-3.953-.891,4.031,4.031,0,0,1-2.155-2.658,1.95,1.95,0,0,1,1.819-2.254c1.646-.042,3.4,2.354,3.879,3.738.037.1.372,1.573.44,1.976.377-1.048.75-2.1,1.048-3.145a33.984,33.984,0,0,0,1.048-4.32,13.4,13.4,0,0,1-3.974-.891,4,4,0,0,1-2.155-2.658A1.95,1.95,0,0,1,359,218.693c1.641-.037,3.392,2.354,3.874,3.738.031.094.288,1.227.4,1.767h.094a25.088,25.088,0,0,0,.252-4.461,22.861,22.861,0,0,0-.157-2.37,13.5,13.5,0,0,1-3.953-.451,4,4,0,0,1-2.438-2.406,1.945,1.945,0,0,1,1.573-2.438c1.63-.22,3.633,1.966,4.267,3.292.031.073.3.844.488,1.4-.037-.341-.073-.7-.121-1.022-.162-1.232-.393-2.354-.6-3.339-.126-.561-.246-1.048-.367-1.536a12.876,12.876,0,0,1-3.287-2.217,4.03,4.03,0,0,1-1.048-3.255,1.945,1.945,0,0,1,2.548-1.41Z" transform="translate(-351.318 -203.877)" fill="#fff"/>
        <path id="Path_1100" data-name="Path 1100" d="M422.053,248.5a13.772,13.772,0,0,1-3.853-1.373c0-.005,1.379-1.426,1.478-1.5,1.148-.917,3.906-2.008,5.274-1.1a1.95,1.95,0,0,1,.341,2.878A4.128,4.128,0,0,1,422.053,248.5Z" transform="translate(-383.139 -223.052)" fill="#fff"/>
      </g>
      <path id="Path_1101" data-name="Path 1101" d="M351.114,297.442s-7.8-18.794-12.157-17.976,7.47,29.954,7.47,29.954-13.714-25.871-23.066-25.871,3.428,28.6,15.271,38.127c0,0-18.7-20.151-29.608-15.8s21.818,24.78,21.818,24.78-19.014-5.992-16.833-1.363,8.1,5.447,8.1,5.447l-21.493,1.09h74.807L358.594,334.2s17.457-8.713,12.781-12.251-14.961,4.084-14.961,4.084,17.766-19.606,14.338-26.961-18.7,13.347-18.7,13.347,12.471-26.416,9.96-31.045S351.114,297.442,351.114,297.442Z" transform="translate(-300.62 -239.828)" fill="#80a7ff"/>
      <path id="Path_1102" data-name="Path 1102" d="M351.114,297.442s-7.8-18.794-12.157-17.976,7.47,29.954,7.47,29.954-13.714-25.871-23.066-25.871,3.428,28.6,15.271,38.127c0,0-18.7-20.151-29.608-15.8s21.818,24.78,21.818,24.78-19.014-5.992-16.833-1.363,8.1,5.447,8.1,5.447l-21.493,1.09h74.807L358.594,334.2s17.457-8.713,12.781-12.251-14.961,4.084-14.961,4.084,17.766-19.606,14.338-26.961-18.7,13.347-18.7,13.347,12.471-26.416,9.96-31.045S351.114,297.442,351.114,297.442Z" transform="translate(-300.62 -239.828)" fill="#fff" opacity="0.4"/>
      <path id="Path_1103" data-name="Path 1103" d="M395.472,315.66c-6.862,20.261-6.862,34.6-6.862,34.6s8.1.309,16.524-5.924" transform="translate(-342.483 -257.06)" fill="none" stroke="#263238" stroke-linecap="round" stroke-linejoin="round" stroke-width="1"/>
      <path id="Path_1104" data-name="Path 1104" d="M390.064,320.351a121.893,121.893,0,0,0-5.614-17.771" transform="translate(-340.504 -250.837)" fill="none" stroke="#263238" stroke-linecap="round" stroke-linejoin="round" stroke-width="1"/>
      <path id="Path_1105" data-name="Path 1105" d="M356.51,313.88l17.452,25.871s11.848-9.96,15.9-15.585" transform="translate(-327.211 -256.213)" fill="none" stroke="#263238" stroke-linecap="round" stroke-linejoin="round" stroke-width="1"/>
      <path id="Path_1106" data-name="Path 1106" d="M365.731,362.7s-18.39-8.728-25.871-13.7" transform="translate(-319.289 -272.922)" fill="none" stroke="#263238" stroke-linecap="round" stroke-linejoin="round" stroke-width="1"/>
    </g>
    <g id="freepik--Device--inject-75" transform="translate(143.845 99.383)">
      <rect id="Rectangle_421" data-name="Rectangle 421" width="64.312" height="145.746" rx="7.92" transform="translate(4.849)" stroke-width="1" stroke="#263238" stroke-linecap="round" stroke-linejoin="round" fill="#fff"/>
      <path id="Path_1107" data-name="Path 1107" d="M360.764,145.78a.855.855,0,0,1-.854-.855V133.471a.86.86,0,0,1,1.714,0V144.9a.86.86,0,0,1-.86.875Z" transform="translate(-293.752 -120.265)" fill="#263238"/>
      <path id="Path_1108" data-name="Path 1108" d="M360.764,170.606a.854.854,0,0,1-.854-.854v-6.4a.86.86,0,0,1,1.714,0v6.4A.86.86,0,0,1,360.764,170.606Z" transform="translate(-293.752 -134.481)" fill="#263238"/>
      <rect id="Rectangle_422" data-name="Rectangle 422" width="64.312" height="145.746" rx="7.92" fill="#263238" stroke="#263238" stroke-linecap="round" stroke-linejoin="round" stroke-width="1"/>
      <rect id="Rectangle_423" data-name="Rectangle 423" width="55.746" height="125.007" transform="translate(4.283 9.703)" fill="#80a7ff"/>
      <line id="Line_1" data-name="Line 1" x2="14.841" transform="translate(23.879 5.709)" fill="none" stroke="#fff" stroke-linecap="round" stroke-linejoin="round" stroke-width="3"/>
      <path id="Path_1109" data-name="Path 1109" d="M288.647,372.726a1.478,1.478,0,1,1-1.431-1.856A1.681,1.681,0,0,1,288.647,372.726Z" transform="translate(-258.488 -233.59)" fill="#fff"/>
      <ellipse id="Ellipse_5" data-name="Ellipse 5" cx="9.667" cy="11.271" rx="9.667" ry="11.271" transform="translate(22.489 18.269)" fill="#fff"/>
      <ellipse id="Ellipse_6" data-name="Ellipse 6" cx="3.67" cy="4.283" rx="3.67" ry="4.283" transform="translate(28.487 20.833)" fill="#263238" stroke="#263238" stroke-linecap="round" stroke-linejoin="round" stroke-width="1"/>
      <path id="Path_1110" data-name="Path 1110" d="M288.993,167.25a6.5,6.5,0,0,0-6.673,6.291,5.842,5.842,0,0,0,.089.965,8.671,8.671,0,0,0,13.169,0,6.248,6.248,0,0,0-6.584-7.255Z" transform="translate(-256.837 -136.714)" fill="#263238" stroke="#263238" stroke-linecap="round" stroke-linejoin="round" stroke-width="1"/>
      <path id="Path_1111" data-name="Path 1111" d="M294.089,229.854H270.583a2.349,2.349,0,0,1-2.254-2.438V212.906c0-8.361,6.291-15.166,14.007-15.166s14,6.815,14,15.166v14.5a2.349,2.349,0,0,1-2.249,2.448Zm-21.257-4.875h19V212.922c0-5.672-4.262-10.291-9.5-10.291s-9.5,4.618-9.5,10.291Z" transform="translate(-250.18 -151.22)" fill="#263238"/>
      <rect id="Rectangle_424" data-name="Rectangle 424" width="32.638" height="30.877" transform="translate(15.837 68.732)" fill="#fff"/>
      <path id="Path_1112" data-name="Path 1112" d="M295.78,268.418l-2.422-5.824a4.293,4.293,0,0,0,1.7-3.47,3.889,3.889,0,1,0-7.753,0,4.288,4.288,0,0,0,1.7,3.47l-2.417,5.824Z" transform="translate(-258.869 -178.429)" fill="#263238" stroke="#263238" stroke-linecap="round" stroke-linejoin="round" stroke-width="1"/>
      <path id="Path_1113" data-name="Path 1113" d="M275.985,304.815a.3.3,0,0,0,.173.058.273.273,0,0,0,.225-.121l37.419-50.9v-.965l-37.86,51.526a.283.283,0,0,0,.042.4Z" transform="translate(-253.773 -177.459)" fill="#fff"/>
      <path id="Path_1114" data-name="Path 1114" d="M333.81,153.217a.283.283,0,0,0,.063.4.288.288,0,0,0,.4-.063l7.067-9.609V143Z" transform="translate(-281.308 -125.176)" fill="#fff"/>
      <path id="Path_1115" data-name="Path 1115" d="M241.88,232.037l46.195-62.818a.285.285,0,1,0-.461-.335L241.9,231.073Z" transform="translate(-237.597 -137.435)" fill="#fff"/>
      <path id="Path_1116" data-name="Path 1116" d="M267.539,360.029a.3.3,0,0,0,.231-.115l2.621-3.544a.283.283,0,0,0-.063-.4.288.288,0,0,0-.4.063l-2.621,3.539a.283.283,0,0,0,.058.4.267.267,0,0,0,.173.058Z" transform="translate(-249.668 -226.477)" fill="#fff"/>
      <path id="Path_1117" data-name="Path 1117" d="M320.29,274.17l-30.72,41.786a.283.283,0,0,0,.231.451.278.278,0,0,0,.231-.115l30.258-41.162Z" transform="translate(-260.26 -187.583)" fill="#fff"/>
    </g>
    <g id="freepik--Character--inject-75" transform="translate(55.558 119.435)">
      <path id="Path_1118" data-name="Path 1118" d="M105.722,155.056a8.33,8.33,0,0,0,.734-3.67c0-2.343-2.836-3.7-6.17-4.073s-4.812.986-4.32,1.851a8.073,8.073,0,0,0,1.851,1.851s-3.334-1.851-5.557-.367.991.865.372,2.343-4.073.865-4.938,4.812,1.6,7.9-.619,9.63-8.912-.619-10.862,3.7.818,6.238-3.869,8.954-8.1,5.368-6.747,12.031,5.8,9,14.568,6.642,8.147-7.654,11.009-13.106,7.287-4.32,8.645-7.407-.372-6.789-.246-9.63,2.962-3.455,4.073-6.815S105.722,155.056,105.722,155.056Z" transform="translate(-65.297 -147.249)" fill="#263238" stroke="#263238" stroke-linecap="round" stroke-linejoin="round" stroke-width="1"/>
      <path id="Path_1119" data-name="Path 1119" d="M67.511,232.6a3.282,3.282,0,0,0-.341,1.494" transform="translate(-66.188 -187.857)" fill="none" stroke="#fff" stroke-linecap="round" stroke-linejoin="round" stroke-width="0.5"/>
      <path id="Path_1120" data-name="Path 1120" d="M103.04,156.4s-1.541-1.782,1.426-.954c3.738,1.048-.65,5.373-2.338,6.244-3.387,1.735-7.863,1.18-10.485,4.335-2.38,2.852.834,5.824-.592,8.084s-7.135.949-9.032,3.67,3.444,8.561-2.024,11.769c-3.953,2.322-8.283,3.214-10.374,5.054" transform="translate(-67.354 -151.047)" fill="none" stroke="#fff" stroke-linecap="round" stroke-linejoin="round" stroke-width="0.5"/>
      <path id="Path_1121" data-name="Path 1121" d="M97.96,177.59A4.283,4.283,0,0,0,97.677,180c.472,2.018,3.208,5.824.713,7.963s-6.778,2.018-7.486,4.524.713,9.389-1.662,12.581-7.014,2.972-9.509,5.111-2.139,3.329-2.139,3.329" transform="translate(-71.139 -161.685)" fill="none" stroke="#fff" stroke-linecap="round" stroke-linejoin="round" stroke-width="0.5"/>
      <path id="Path_1122" data-name="Path 1122" d="M118.318,173.11a10.449,10.449,0,0,0-.6.949" transform="translate(-90.238 -159.553)" fill="none" stroke="#fff" stroke-linecap="round" stroke-linejoin="round" stroke-width="0.5"/>
      <path id="Path_1123" data-name="Path 1123" d="M141.348,232.169l.6,4.718s3.145,3.145,5.457,5.09,8.236,6.06,8.236,6.06l-3,.854s-9.819-5.819-11.758-6.291-3.392-3.271-3.995-4.12S139.77,231.32,141.348,232.169Z" transform="translate(-99.325 -187.614)" fill="#fff" stroke="#263238" stroke-linecap="round" stroke-linejoin="round" stroke-width="1"/>
      <path id="Path_1124" data-name="Path 1124" d="M152.822,378.137s2.967,2.506,4.194,3.345,2.658,1.216,2.432,1.672-.839.912-3.727.524a10.364,10.364,0,0,1-4.257-1.52c-.535-.152-1.824.231-2.81-.377s.577-4.231.577-4.231a2.82,2.82,0,0,0,3.591.587Z" transform="translate(-104.801 -256.82)" fill="#fff" stroke="#263238" stroke-linecap="round" stroke-linejoin="round" stroke-width="1"/>
      <path id="Path_1125" data-name="Path 1125" d="M159.347,386.147a.388.388,0,0,0,0-.073,13.508,13.508,0,0,1-4.959-.467c-1.866-.44-2.417-1.431-4.194-1.431a6.092,6.092,0,0,1-2.05-.336,1.08,1.08,0,0,0,.372.938c.986.608,2.28.225,2.81.377a10.161,10.161,0,0,0,4.257,1.52C158.471,387.053,159.116,386.6,159.347,386.147Z" transform="translate(-104.71 -259.813)" fill="#fff" stroke="#263238" stroke-linecap="round" stroke-linejoin="round" stroke-width="1"/>
      <path id="Path_1126" data-name="Path 1126" d="M106,185.4s.571,3.848-.163,5.4-3.03,1.719-4.991,2.05-6.464,2.044-5.976,6.464S101.008,213.3,101.008,216s-1.719,4.089-3.6,9.326-1.636,14.977-1.048,21.278a66.523,66.523,0,0,0,2.453,12.272S94.093,266.493,92,269.764s-9.436,17.514-9.436,17.514,0,.488,1.143.818a7.171,7.171,0,0,0,2.459.163s14.07-16.938,16.691-19.8,5.075-7.863,5.4-10.149-.079-16.282-.079-16.282a92.21,92.21,0,0,0,5.242,10.637,75.612,75.612,0,0,1,3.837,6.815,41.193,41.193,0,0,0,0,8.912c.571,4.089.089,17.226.661,18.29s2.789.619,3.282.131.723-3.67.723-3.67.98-9.96,1.573-14.647,1.573-8.676,1.232-9.74-2.375-12.44-3.932-17.824-6.291-15.465-7.339-18.081-1.641-5-1.473-5.814,3.355-5.725,4.194-7.035a6.469,6.469,0,0,0,.163-5.808c-.98-2.128,0-5-.163-6.71s-2.7-2.459-4.01-3.109a3.654,3.654,0,0,1-1.8-3.355,9.436,9.436,0,0,1,.739-3S107.062,185.4,106,185.4Z" transform="translate(-73.51 -165.4)" fill="#fff" stroke="#263238" stroke-linecap="round" stroke-linejoin="round" stroke-width="1"/>
      <path id="Path_1127" data-name="Path 1127" d="M145.215,215.74a27.005,27.005,0,0,1-1.075-3.36" transform="translate(-102.808 -178.237)" fill="none" stroke="#263238" stroke-linecap="round" stroke-linejoin="round" stroke-width="1"/>
      <path id="Path_1128" data-name="Path 1128" d="M125.92,235.123s1.478.325,4.44-1.153" transform="translate(-94.14 -188.509)" fill="none" stroke="#263238" stroke-linecap="round" stroke-linejoin="round" stroke-width="1"/>
      <path id="Path_1129" data-name="Path 1129" d="M120.808,274.312c-1.484-5.158-5.882-14.579-7.2-17.687-6.291,2.359-12.173.346-14.935-.954-.4.87-.828,1.877-1.269,3.093-1.882,5.242-1.636,14.977-1.048,21.278a66.525,66.525,0,0,0,2.453,12.272S94.093,299.925,92,303.2s-9.436,17.514-9.436,17.514,0,.488,1.143.818a7.172,7.172,0,0,0,2.459.163s14.07-16.938,16.691-19.8,5.075-7.863,5.4-10.149-.079-16.283-.079-16.283a92.212,92.212,0,0,0,5.242,10.637,75.609,75.609,0,0,1,3.837,6.815,41.193,41.193,0,0,0,0,8.912c.571,4.089.089,17.226.661,18.29s2.789.619,3.282.131.723-3.67.723-3.67.98-9.96,1.573-14.647,1.573-8.676,1.232-9.74S122.365,279.711,120.808,274.312Z" transform="translate(-73.51 -198.833)" fill="#263238" stroke="#263238" stroke-linecap="round" stroke-linejoin="round" stroke-width="1"/>
      <path id="Path_1130" data-name="Path 1130" d="M207.811,272.728v-1.069h.9v-8.4H198.065v8.4h.9v1.069h-.9v1.95h3.455v-.655h3.743v.655h3.455v-1.95Z" transform="translate(-128.462 -202.444)" fill="#80a7ff" stroke="#263238" stroke-linecap="round" stroke-linejoin="round" stroke-width="1"/>
      <path id="Path_1131" data-name="Path 1131" d="M107.56,258.465h61.733a.933.933,0,0,1,.933.933v1.877a.933.933,0,0,1-.933.933H107.56v-3.743Z" transform="translate(-85.404 -200.16)" fill="#80a7ff" stroke="#263238" stroke-linecap="round" stroke-linejoin="round" stroke-width="1"/>
      <rect id="Rectangle_425" data-name="Rectangle 425" width="4.797" height="4.87" rx="0.99" transform="translate(62.186 57.744)" stroke-width="1" stroke="#263238" stroke-linecap="round" stroke-linejoin="round" fill="#80a7ff"/>
      <circle id="Ellipse_7" data-name="Ellipse 7" cx="9.745" cy="9.745" r="9.745" transform="translate(3.278 68.222) rotate(-80.7)" stroke-width="1" stroke="#263238" stroke-linecap="round" stroke-linejoin="round" fill="#80a7ff"/>
      <path id="Path_1132" data-name="Path 1132" d="M91.329,256.153a3.407,3.407,0,0,0,1.934-2.978,3.969,3.969,0,0,0-7.874,0,3.4,3.4,0,0,0,1.934,2.978,3.413,3.413,0,0,0-1.934,2.983,3.969,3.969,0,0,0,7.874,0A3.423,3.423,0,0,0,91.329,256.153Z" transform="translate(-74.857 -195.997)" fill="#fff" stroke="#263238" stroke-linecap="round" stroke-linejoin="round" stroke-width="1"/>
      <path id="Path_1133" data-name="Path 1133" d="M169.06,263.3a19.8,19.8,0,0,0,3.995,1.29,3.4,3.4,0,0,0,2.574-2.1c.54-1.148.524-1.693.2-1.421l-.676.524s.524-1.148-.068-1.012a1.656,1.656,0,0,0-.949.813s-.068-1.017-.608-.524a6.208,6.208,0,0,0-.949,1.085s-.068-1.284-.409-.949-1.62,2.165-1.62,2.165Z" transform="translate(-114.664 -201.164)" fill="#fff" stroke="#263238" stroke-linecap="round" stroke-linejoin="round" stroke-width="1"/>
      <path id="Path_1134" data-name="Path 1134" d="M174.676,263.19s-.2,1.625-1.216,1.9" transform="translate(-116.758 -202.411)" fill="#fff" stroke="#263238" stroke-linecap="round" stroke-linejoin="round" stroke-width="1"/>
      <path id="Path_1135" data-name="Path 1135" d="M177.522,262.16s-.524,2.569-1.353,2.978" transform="translate(-118.047 -201.921)" fill="#fff" stroke="#263238" stroke-linecap="round" stroke-linejoin="round" stroke-width="1"/>
      <path id="Path_1136" data-name="Path 1136" d="M179.705,262.54a14.608,14.608,0,0,1-1.085,2.71" transform="translate(-119.213 -202.101)" fill="#fff" stroke="#263238" stroke-linecap="round" stroke-linejoin="round" stroke-width="1"/>
      <path id="Path_1137" data-name="Path 1137" d="M132.1,194.217a3.722,3.722,0,0,1-1.636-3.25,9.436,9.436,0,0,1,.765-2.946s-4.01-2.621-5.075-2.621c0,0,.571,3.848-.163,5.4a2.464,2.464,0,0,1-1.117,1.111,31.254,31.254,0,0,0,3.906,7.339C130.259,201.1,130.977,197.2,132.1,194.217Z" transform="translate(-93.645 -165.4)" fill="#fff" stroke="#263238" stroke-linecap="round" stroke-linejoin="round" stroke-width="1"/>
      <path id="Path_1138" data-name="Path 1138" d="M103.413,200.62a6.548,6.548,0,0,0-4.718,3.455c-1.615,3.114-8.671,17.247-8.068,18.091,3.428,4.823,15.9,8.293,17.168,9.562a28.834,28.834,0,0,0,4.157,3.591,6.171,6.171,0,0,0,4.262.231c.461-.231.807-1.269,0-1.269a1.347,1.347,0,0,1-1.332-1.048c-.115-.461,1.269.461,1.961.115s-1.546-1.609-2.238-2.186-1.269-1.379-2.191-1.379h-2.658s-4.246-3.077-6.815-5.368a38.986,38.986,0,0,0-6.506-4.75l7.785-12.807" transform="translate(-77.331 -172.642)" fill="#fff" stroke="#263238" stroke-linecap="round" stroke-linejoin="round" stroke-width="1"/>
      <path id="Path_1139" data-name="Path 1139" d="M114.579,242.438c-.692-.577-1.269-1.379-2.191-1.379H109.73s-4.246-3.077-6.815-5.368a38.986,38.986,0,0,0-6.506-4.75l3.114-5.127a10.416,10.416,0,0,0-5.274-1.5c-2.1,4.372-3.979,8.692-3.67,9.148,3.428,4.823,15.9,8.293,17.168,9.562a28.833,28.833,0,0,0,4.157,3.591,6.17,6.17,0,0,0,4.262.231c.461-.231.807-1.269,0-1.269a1.347,1.347,0,0,1-1.332-1.048c-.115-.461,1.269.461,1.961.115S115.271,243.02,114.579,242.438Z" transform="translate(-77.31 -183.913)" fill="#fff" stroke="#263238" stroke-linecap="round" stroke-linejoin="round" stroke-width="1"/>
      <path id="Path_1140" data-name="Path 1140" d="M133.235,168.683a3.942,3.942,0,0,1-.246-2.621,13.194,13.194,0,0,0-.818-3.932h0c-1,1.73-3.9,2.757-5.174,3.145-1.41.43.65,1.4.43,2.71s-3.035,2.06-3.035,2.06-.823-1.693-1.966-1.693-1.955,2.621-1.305,4.01a1.856,1.856,0,0,0,2.05,1.075s-.079,2.459,1.473,3.193a28.832,28.832,0,0,0,5.158,1.882c.98.163,1.961-.325,2.37-1.8a33.651,33.651,0,0,0,.655-4.5,10.531,10.531,0,0,0,1.882-1.573C135.1,170.072,133.644,169.5,133.235,168.683Z" transform="translate(-91.746 -154.329)" fill="#fff" stroke="#263238" stroke-linecap="round" stroke-linejoin="round" stroke-width="1"/>
      <path id="Path_1141" data-name="Path 1141" d="M140.81,173.963c0,.451-.147.813-.325.813s-.325-.362-.325-.813.147-.813.325-.813S140.81,173.512,140.81,173.963Z" transform="translate(-100.915 -159.572)" fill="#263238"/>
      <path id="Path_1142" data-name="Path 1142" d="M138.71,171.4s.87-.98,1.52-.76" transform="translate(-100.225 -158.363)" fill="none" stroke="#263238" stroke-linecap="round" stroke-linejoin="round" stroke-width="1"/>
      <path id="Path_1143" data-name="Path 1143" d="M139.54,184.464a2.359,2.359,0,0,1-2.28-.524" transform="translate(-99.535 -164.706)" fill="none" stroke="#263238" stroke-linecap="round" stroke-linejoin="round" stroke-width="1"/>
      <path id="Path_1144" data-name="Path 1144" d="M80.92,379.74s-1.955,3.921-1.882,4.456,3.953,3.345,5.767,4.33,5.1,1.143,4.865-.225-3.345-2.28-4.1-4.335a33.224,33.224,0,0,1-1.048-3.245A6.72,6.72,0,0,1,80.92,379.74Z" transform="translate(-71.834 -257.862)" fill="#fff" stroke="#263238" stroke-linecap="round" stroke-linejoin="round" stroke-width="1"/>
      <path id="Path_1145" data-name="Path 1145" d="M89.677,391.566a7.658,7.658,0,0,1-4.1-.582,24.863,24.863,0,0,1-6.291-4.424,2.811,2.811,0,0,0-.252.9c.079.524,3.953,3.345,5.767,4.33S89.866,392.908,89.677,391.566Z" transform="translate(-71.831 -261.107)" fill="#fff" stroke="#263238" stroke-linecap="round" stroke-linejoin="round" stroke-width="1"/>
    </g>
  </g>
</svg>
