<svg xmlns="http://www.w3.org/2000/svg" width="265.564" height="197.877" viewBox="0 0 265.564 197.877">
  <g id="Login-rafiki" transform="translate(0 -55)">
    <g id="freepik--background-complete--inject-74" transform="translate(0 55)">
      <rect id="Rectangle_426" data-name="Rectangle 426" width="265.564" height="0.133" transform="translate(0 173.891)" fill="#ebebeb"/>
      <rect id="Rectangle_427" data-name="Rectangle 427" width="11.515" height="0.133" transform="translate(227.44 182.437)" fill="#ebebeb"/>
      <rect id="Rectangle_428" data-name="Rectangle 428" width="18.117" height="0.133" transform="translate(164.947 179.686)" fill="#ebebeb"/>
      <rect id="Rectangle_429" data-name="Rectangle 429" width="23.651" height="0.133" transform="translate(210.64 177.508)" fill="#ebebeb"/>
      <rect id="Rectangle_430" data-name="Rectangle 430" width="5.917" height="0.133" transform="translate(85.979 180.185)" fill="#ebebeb"/>
      <rect id="Rectangle_431" data-name="Rectangle 431" width="20.39" height="0.133" transform="translate(60.857 180.185)" fill="#ebebeb"/>
      <rect id="Rectangle_432" data-name="Rectangle 432" width="14.712" height="0.133" transform="translate(35.219 177.944)" fill="#ebebeb"/>
      <path id="Path_1146" data-name="Path 1146" d="M143.793,205.2H41.237a3.033,3.033,0,0,1-3.027-3.033V58.006A3.033,3.033,0,0,1,41.237,55H143.793a3.033,3.033,0,0,1,3.033,3.033V202.17A3.033,3.033,0,0,1,143.793,205.2ZM41.237,55.106a2.9,2.9,0,0,0-2.895,2.9V202.17a2.9,2.9,0,0,0,2.895,2.9H143.793a2.905,2.905,0,0,0,2.9-2.9V58.006a2.905,2.905,0,0,0-2.9-2.9Z" transform="translate(-17.916 -55)" fill="#ebebeb"/>
      <path id="Path_1147" data-name="Path 1147" d="M360.094,205.2H257.533a3.038,3.038,0,0,1-3.033-3.033V58.006A3.038,3.038,0,0,1,257.533,55H360.094a3.033,3.033,0,0,1,3.022,3.006V202.17A3.033,3.033,0,0,1,360.094,205.2ZM257.533,55.106a2.905,2.905,0,0,0-2.9,2.9V202.17a2.905,2.905,0,0,0,2.9,2.9H360.094a2.905,2.905,0,0,0,2.9-2.9V58.006a2.905,2.905,0,0,0-2.9-2.9Z" transform="translate(-119.328 -55)" fill="#ebebeb"/>
      <path id="Path_1148" data-name="Path 1148" d="M113.795,155.022a11.106,11.106,0,0,0,0-22.212H112.43v22.212Z" transform="translate(-52.715 -91.483)" fill="#e0e0e0"/>
      <circle id="Ellipse_8" data-name="Ellipse 8" cx="11.106" cy="11.106" r="11.106" transform="translate(48.598 41.327)" fill="#f5f5f5"/>
      <path id="Path_1149" data-name="Path 1149" d="M98.322,134.144A14.872,14.872,0,0,1,83.45,119.272V110.4a1.4,1.4,0,1,1,2.794,0v8.88a12.088,12.088,0,0,0,12.073,12.078,1.4,1.4,0,1,1,0,2.788Z" transform="translate(-39.127 -80.319)" fill="#e0e0e0"/>
      <path id="Path_1150" data-name="Path 1150" d="M60.566,114.642H85.274a2.581,2.581,0,0,0,2.5-3.24l-2.151-8.1a2.581,2.581,0,0,0-2.491-1.923H62.711a2.587,2.587,0,0,0-2.5,1.923l-2.125,8.089a2.576,2.576,0,0,0,2.475,3.251Z" transform="translate(-27.195 -76.746)" fill="#f5f5f5"/>
      <path id="Path_1151" data-name="Path 1151" d="M409.075,155.022a11.106,11.106,0,1,0,0-22.212H407.71v22.212Z" transform="translate(-191.164 -91.483)" fill="#e0e0e0"/>
      <circle id="Ellipse_9" data-name="Ellipse 9" cx="11.106" cy="11.106" r="11.106" transform="translate(205.44 41.327)" fill="#f5f5f5"/>
      <path id="Path_1152" data-name="Path 1152" d="M393.622,134.144a14.872,14.872,0,0,1-14.872-14.872V110.4a1.4,1.4,0,1,1,2.794,0v8.88a12.088,12.088,0,0,0,12.073,12.078,1.4,1.4,0,1,1,0,2.788Z" transform="translate(-177.585 -80.319)" fill="#e0e0e0"/>
      <path id="Path_1153" data-name="Path 1153" d="M355.868,114.652h24.708a2.581,2.581,0,0,0,2.5-3.24l-2.125-8.089a2.581,2.581,0,0,0-2.491-1.923H358.014a2.587,2.587,0,0,0-2.5,1.923l-2.125,8.089a2.576,2.576,0,0,0,2.475,3.24Z" transform="translate(-165.655 -76.756)" fill="#f5f5f5"/>
      <rect id="Rectangle_433" data-name="Rectangle 433" width="8.078" height="31.299" transform="translate(79.239 138.55) rotate(180)" fill="#e6e6e6"/>
      <path id="Path_1154" data-name="Path 1154" d="M92.75,283.512h26.806L123.6,246.88H96.8Z" transform="translate(-43.488 -144.967)" fill="#f0f0f0"/>
      <path id="Path_1155" data-name="Path 1155" d="M87.28,283.512h27.693l4.047-36.632H91.333Z" transform="translate(-40.923 -144.967)" fill="#f5f5f5"/>
      <path id="Path_1156" data-name="Path 1156" d="M115.3,283.179l3.41-30.859H95.66l-3.41,30.859Z" transform="translate(-43.253 -147.518)" fill="#fff"/>
      <path id="Path_1157" data-name="Path 1157" d="M117.568,282.311l.165-1.238c.855-7.744-3.978-14.643-10.256-14.643h0l-.143,1.259c-.855,7.739,3.978,14.638,10.261,14.638Z" transform="translate(-50.279 -154.134)" fill="#f5f5f5"/>
      <rect id="Rectangle_434" data-name="Rectangle 434" width="23.816" height="35.347" transform="translate(55.2 173.891) rotate(180)" fill="#e6e6e6"/>
      <path id="Path_1158" data-name="Path 1158" d="M61.475,376.384h-2.4V369.57h4.908Z" transform="translate(-27.701 -202.493)" fill="#f0f0f0"/>
      <rect id="Rectangle_435" data-name="Rectangle 435" width="23.816" height="35.347" transform="translate(121.947 173.891) rotate(180)" fill="#e6e6e6"/>
      <rect id="Rectangle_436" data-name="Rectangle 436" width="68.839" height="31.161" transform="translate(100.218 169.711) rotate(180)" fill="#f0f0f0"/>
      <path id="Path_1159" data-name="Path 1159" d="M181.962,376.384h2.4V369.57H179.45Z" transform="translate(-84.139 -202.493)" fill="#f0f0f0"/>
      <rect id="Rectangle_437" data-name="Rectangle 437" width="65.122" height="12.577" transform="translate(98.36 153.071) rotate(180)" fill="#e6e6e6"/>
      <path id="Path_1160" data-name="Path 1160" d="M106.9,331.212h8.684a13.724,13.724,0,0,0,9.975-4.292H96.93A13.74,13.74,0,0,0,106.9,331.212Z" transform="translate(-45.448 -182.496)" fill="#f0f0f0"/>
      <rect id="Rectangle_438" data-name="Rectangle 438" width="65.122" height="12.577" transform="translate(98.36 167.677) rotate(180)" fill="#e6e6e6"/>
      <path id="Path_1161" data-name="Path 1161" d="M106.9,358.672h8.684a13.724,13.724,0,0,0,9.975-4.292H96.93A13.74,13.74,0,0,0,106.9,358.672Z" transform="translate(-45.448 -195.371)" fill="#f0f0f0"/>
      <path id="Path_1162" data-name="Path 1162" d="M179.764,290.17h.616c0-1.269,0-4.483.064-11.849.112-13.358.324-14.17.324-14.17l-1.466,6.166C178.373,277.141,179.573,284,179.764,290.17Z" transform="translate(-83.906 -153.065)" fill="#e6e6e6"/>
      <path id="Path_1163" data-name="Path 1163" d="M168.009,270.573c-2.125-2.512-6.613-3.245-11.223-3.872-1.811-.244,4.754,3.893,7.967,6.83,2.5,2.284,4.09,2.916,4.78,5.189C169.883,275.884,169.825,272.756,168.009,270.573Z" transform="translate(-73.367 -154.256)" fill="#e6e6e6"/>
      <path id="Path_1164" data-name="Path 1164" d="M181.962,279.057c2.125-2.512,6.613-3.24,11.223-3.867,1.811-.244-4.78,3.893-7.967,6.83-2.5,2.284-4.09,2.916-4.78,5.189C180.087,284.374,180.124,281.224,181.962,279.057Z" transform="translate(-84.521 -158.237)" fill="#e6e6e6"/>
      <path id="Path_1165" data-name="Path 1165" d="M180.8,256.886c1.593-3.006,5.556-5.842,10.022-6.9,1.753-.42-4.063,5.545-6.273,9.4-1.716,2.985-3.989,6.5-4.345,9.029C179.671,263.424,179.214,259.908,180.8,256.886Z" transform="translate(-84.259 -146.412)" fill="#e6e6e6"/>
      <path id="Path_1166" data-name="Path 1166" d="M177.991,312.132h0c-1.88,0-3.436-.94-3.548-2.151l-.313-2.061h7.728l-.319,2.061C181.433,311.192,179.9,312.132,177.991,312.132Z" transform="translate(-81.645 -173.587)" fill="#f0f0f0"/>
      <path id="Path_1167" data-name="Path 1167" d="M181.7,307.38H172.97l-.25-2.3h9.226Z" transform="translate(-80.984 -172.256)" fill="#f0f0f0"/>
      <rect id="Rectangle_439" data-name="Rectangle 439" width="85.092" height="77.614" transform="translate(175.139 91.205) rotate(180)" fill="#e6e6e6"/>
      <rect id="Rectangle_440" data-name="Rectangle 440" width="86.17" height="77.614" transform="translate(174.305 91.205) rotate(180)" fill="#f5f5f5"/>
      <rect id="Rectangle_441" data-name="Rectangle 441" width="70.661" height="79.297" transform="translate(170.864 17.07) rotate(90)" fill="#fafafa"/>
      <path id="Path_1168" data-name="Path 1168" d="M266.48,157.8,235.271,87.14h-10.6L255.879,157.8Z" transform="translate(-105.342 -70.07)" fill="#fff"/>
      <path id="Path_1169" data-name="Path 1169" d="M243.777,157.8,212.568,87.14h-7.3L236.479,157.8Z" transform="translate(-96.245 -70.07)" fill="#fff"/>
      <rect id="Rectangle_442" data-name="Rectangle 442" width="70.661" height="4.1" transform="translate(121.012 17.065) rotate(90)" fill="#e6e6e6"/>
      <rect id="Rectangle_443" data-name="Rectangle 443" width="70.661" height="4.1" transform="translate(148.27 17.065) rotate(90)" fill="#e6e6e6"/>
      <rect id="Rectangle_444" data-name="Rectangle 444" width="75.452" height="5.184" transform="translate(120.274 14.484) rotate(90)" fill="#f5f5f5"/>
      <rect id="Rectangle_445" data-name="Rectangle 445" width="75.452" height="5.184" transform="translate(147.531 14.484) rotate(90)" fill="#f5f5f5"/>
      <rect id="Rectangle_446" data-name="Rectangle 446" width="70.661" height="0.366" transform="translate(91.938 17.07) rotate(90)" fill="#e6e6e6"/>
      <path id="Path_1170" data-name="Path 1170" d="M162.826,72.17h92.183a.451.451,0,0,1,.446.446h0a.446.446,0,0,1-.446.441H162.826a.446.446,0,0,1-.446-.441h0A.451.451,0,0,1,162.826,72.17Z" transform="translate(-76.135 -63.051)" fill="#e6e6e6"/>
      <path id="Path_1171" data-name="Path 1171" d="M329.22,75.486h0a.6.6,0,0,0,.595-.6V73.6a.595.595,0,0,0-.595-.6h0a.6.6,0,0,0-.6.595V74.88a.606.606,0,0,0,.6.605Z" transform="translate(-154.081 -63.44)" fill="#e6e6e6"/>
      <path id="Path_1172" data-name="Path 1172" d="M175.275,75.486h0a.605.605,0,0,0,.6-.6V73.6a.6.6,0,0,0-.6-.6h0a.6.6,0,0,0-.595.595V74.88A.6.6,0,0,0,175.275,75.486Z" transform="translate(-81.903 -63.44)" fill="#e6e6e6"/>
      <rect id="Rectangle_447" data-name="Rectangle 447" width="86.112" height="60.782" transform="translate(172.941 70.343) rotate(180)" fill="#e0e0e0" opacity="0.6"/>
      <rect id="Rectangle_448" data-name="Rectangle 448" width="20.565" height="12.588" rx="5.38" transform="translate(163.03 108.865)" fill="#fafafa"/>
      <rect id="Rectangle_449" data-name="Rectangle 449" width="20.565" height="2.698" rx="1.349" transform="translate(163.03 106.539)" fill="#e6e6e6"/>
      <path id="Path_1173" data-name="Path 1173" d="M307.52,310s.271,8.854,10.585,8.854S328.691,310,328.691,310Z" transform="translate(-144.188 -174.562)" fill="#f0f0f0"/>
      <path id="Path_1174" data-name="Path 1174" d="M351.8,310s.271,8.854,10.585,8.854S372.971,310,372.971,310Z" transform="translate(-164.949 -174.562)" fill="#f0f0f0"/>
      <rect id="Rectangle_450" data-name="Rectangle 450" width="28.256" height="18.292" rx="7.4" transform="translate(178.586 103.166)" fill="#f0f0f0"/>
      <rect id="Rectangle_451" data-name="Rectangle 451" width="28.256" height="3.707" rx="1.854" transform="translate(178.586 99.969)" fill="#f5f5f5"/>
      <rect id="Rectangle_452" data-name="Rectangle 452" width="2.677" height="43.892" transform="translate(158.239 173.891) rotate(180)" fill="#e6e6e6"/>
      <rect id="Rectangle_453" data-name="Rectangle 453" width="14.494" height="8.541" transform="translate(218.363 121.453)" fill="#e6e6e6"/>
      <rect id="Rectangle_454" data-name="Rectangle 454" width="72.063" height="8.541" transform="translate(218.357 129.999) rotate(180)" fill="#f5f5f5"/>
      <rect id="Rectangle_455" data-name="Rectangle 455" width="14.494" height="8.541" transform="translate(218.363 144.265)" fill="#e6e6e6"/>
      <rect id="Rectangle_456" data-name="Rectangle 456" width="72.063" height="8.541" transform="translate(218.357 152.805) rotate(180)" fill="#f5f5f5"/>
      <rect id="Rectangle_457" data-name="Rectangle 457" width="2.677" height="43.892" transform="translate(230.302 173.891) rotate(180)" fill="#e6e6e6"/>
      <rect id="Rectangle_458" data-name="Rectangle 458" width="2.677" height="43.892" transform="translate(218.363 173.891) rotate(180)" fill="#f5f5f5"/>
      <rect id="Rectangle_459" data-name="Rectangle 459" width="2.677" height="43.892" transform="translate(148.971 173.891) rotate(180)" fill="#f5f5f5"/>
    </g>
    <g id="freepik--Shadow--inject-74" transform="translate(29.802 240.852)">
      <ellipse id="freepik--path--inject-74" cx="102.98" cy="6.012" rx="102.98" ry="6.012" fill="#f5f5f5"/>
    </g>
    <g id="freepik--Login--inject-74" transform="translate(60.222 90.299)">
      <path id="Path_1175" data-name="Path 1175" d="M191.474,254.461H123.718a4.318,4.318,0,0,1-4.249-4.058l-6.076-117.671a3.808,3.808,0,0,1,3.845-4.053h67.756a4.313,4.313,0,0,1,4.249,4.053L195.309,250.4a3.814,3.814,0,0,1-3.835,4.058Z" transform="translate(-113.385 -124.845)" fill="#80a7ff"/>
      <path id="Path_1176" data-name="Path 1176" d="M191.474,254.461H123.718a4.318,4.318,0,0,1-4.249-4.058l-6.076-117.671a3.808,3.808,0,0,1,3.845-4.053h67.756a4.313,4.313,0,0,1,4.249,4.053L195.309,250.4a3.814,3.814,0,0,1-3.835,4.058Z" transform="translate(-113.385 -124.845)" fill="#fff" opacity="0.8"/>
      <rect id="Rectangle_460" data-name="Rectangle 460" width="7.494" height="0.531" transform="translate(57.428)" fill="#80a7ff"/>
      <rect id="Rectangle_461" data-name="Rectangle 461" width="2.746" height="0.531" transform="translate(52.085)" fill="#80a7ff"/>
      <path id="Path_1177" data-name="Path 1177" d="M199.97,245.245h-64.8a4.127,4.127,0,0,1-4.079-3.872l-5.8-112.546a3.644,3.644,0,0,1,3.681-3.877h64.8a4.127,4.127,0,0,1,4.074,3.877l5.8,112.546a3.638,3.638,0,0,1-3.675,3.872Z" transform="translate(-118.965 -123.096)" fill="#80a7ff"/>
      <path id="Path_1178" data-name="Path 1178" d="M202.252,244.946h-64.8a1.551,1.551,0,0,1-1.492-1.423l-5.805-112.541a1.059,1.059,0,0,1,1.094-1.153h64.8a1.551,1.551,0,0,1,1.487,1.423l5.832,112.541a1.062,1.062,0,0,1-1.089,1.153Zm-71-114.984a.951.951,0,0,0-.712.287.977.977,0,0,0-.25.728l5.8,112.541a1.418,1.418,0,0,0,1.36,1.3h64.8a.924.924,0,0,0,.706-.287.935.935,0,0,0,.25-.728l-5.795-112.541a1.413,1.413,0,0,0-1.354-1.3Z" transform="translate(-121.247 -125.384)" fill="#fff"/>
      <ellipse id="Ellipse_10" data-name="Ellipse 10" cx="19.121" cy="20.13" rx="19.121" ry="20.13" transform="translate(16.163 31.059) rotate(-45.74)" fill="#fff" opacity="0.3"/>
      <path id="Path_1179" data-name="Path 1179" d="M197.953,166.6a15.249,15.249,0,0,1-1.524,7.563,14.909,14.909,0,0,1-13.528,8.312,16.863,16.863,0,0,1-14.383-8.312,16.348,16.348,0,0,1-2.305-7.563,14.919,14.919,0,0,1,15.052-15.87A16.9,16.9,0,0,1,197.953,166.6Z" transform="translate(-138.14 -135.183)" fill="#fff"/>
      <path id="Path_1180" data-name="Path 1180" d="M198.461,191.1a14.909,14.909,0,0,1-13.528,8.312A16.863,16.863,0,0,1,170.55,191.1a23.986,23.986,0,0,1,13.735-4.249A26.1,26.1,0,0,1,198.461,191.1Z" transform="translate(-140.188 -152.119)" fill="#80a7ff"/>
      <ellipse id="Ellipse_11" data-name="Ellipse 11" cx="6.889" cy="7.255" rx="6.889" ry="7.255" transform="translate(33.644 25.854) rotate(-45.74)" fill="#80a7ff"/>
      <path id="Path_1181" data-name="Path 1181" d="M201.755,259.543H151.016a1.747,1.747,0,0,1-1.726-1.641l-.382-7.436a1.54,1.54,0,0,1,1.556-1.636H201.2a1.747,1.747,0,0,1,1.726,1.636l.382,7.436a1.54,1.54,0,0,1-1.556,1.641Z" transform="translate(-130.039 -181.18)" fill="#fff"/>
      <path id="Path_1182" data-name="Path 1182" d="M198.85,236.791H177.658a1.747,1.747,0,0,1-1.731-1.646l-.08-1.593a1.54,1.54,0,0,1,1.556-1.641H198.59a1.747,1.747,0,0,1,1.726,1.641l.085,1.593a1.551,1.551,0,0,1-1.551,1.647Z" transform="translate(-142.67 -173.247)" opacity="0.3"/>
      <path id="Path_1183" data-name="Path 1183" d="M203.215,328.142H171.47a2.98,2.98,0,0,1-2.937-2.794l-.186-3.665A2.656,2.656,0,0,1,171,318.89h31.735a2.98,2.98,0,0,1,2.937,2.794l.186,3.665a2.656,2.656,0,0,1-2.645,2.794Z" transform="translate(-139.153 -214.029)" opacity="0.3"/>
      <path id="Path_1184" data-name="Path 1184" d="M203.5,293.4H152.756a1.753,1.753,0,0,1-1.726-1.641l-.382-7.436a1.546,1.546,0,0,1,1.556-1.641h50.739a1.747,1.747,0,0,1,1.726,1.641l.388,7.436A1.551,1.551,0,0,1,203.5,293.4Z" transform="translate(-130.855 -197.052)" fill="#fff"/>
      <path id="Path_1185" data-name="Path 1185" d="M161.79,257.306a1.71,1.71,0,0,1-1.726,1.816,1.933,1.933,0,0,1-1.907-1.816,1.7,1.7,0,0,1,1.721-1.816,1.939,1.939,0,0,1,1.912,1.816Z" transform="translate(-134.376 -184.303)" fill="#263238"/>
      <path id="Path_1186" data-name="Path 1186" d="M172.324,257.306a1.7,1.7,0,0,1-1.721,1.816,1.928,1.928,0,0,1-1.907-1.816,1.7,1.7,0,0,1,1.721-1.816A1.928,1.928,0,0,1,172.324,257.306Z" transform="translate(-139.318 -184.303)" fill="#263238"/>
      <path id="Path_1187" data-name="Path 1187" d="M182.79,257.306a1.7,1.7,0,0,1-1.721,1.816,1.939,1.939,0,0,1-1.912-1.816,1.71,1.71,0,0,1,1.726-1.816A1.933,1.933,0,0,1,182.79,257.306Z" transform="translate(-144.222 -184.303)" fill="#263238"/>
      <path id="Path_1188" data-name="Path 1188" d="M193.34,257.306a1.71,1.71,0,0,1-1.721,1.816,1.939,1.939,0,0,1-1.912-1.816,1.71,1.71,0,0,1,1.721-1.816,1.939,1.939,0,0,1,1.912,1.816Z" transform="translate(-149.169 -184.303)" fill="#263238"/>
      <path id="Path_1189" data-name="Path 1189" d="M163.56,291.146a1.7,1.7,0,0,1-1.721,1.816,1.939,1.939,0,0,1-1.912-1.816,1.71,1.71,0,0,1,1.726-1.816A1.933,1.933,0,0,1,163.56,291.146Z" transform="translate(-135.206 -200.169)" fill="#263238"/>
      <path id="Path_1190" data-name="Path 1190" d="M174.07,291.146a1.71,1.71,0,0,1-1.721,1.816,1.939,1.939,0,0,1-1.912-1.816,1.7,1.7,0,0,1,1.721-1.816A1.939,1.939,0,0,1,174.07,291.146Z" transform="translate(-140.133 -200.169)" fill="#263238"/>
      <path id="Path_1191" data-name="Path 1191" d="M184.58,291.146a1.71,1.71,0,0,1-1.726,1.816,1.928,1.928,0,0,1-1.907-1.816,1.7,1.7,0,0,1,1.721-1.816A1.939,1.939,0,0,1,184.58,291.146Z" transform="translate(-145.061 -200.169)" fill="#263238"/>
      <path id="Path_1192" data-name="Path 1192" d="M195.08,291.146a1.7,1.7,0,0,1-1.721,1.816,1.939,1.939,0,0,1-1.912-1.816,1.71,1.71,0,0,1,1.726-1.816,1.928,1.928,0,0,1,1.907,1.816Z" transform="translate(-149.985 -200.169)" fill="#263238"/>
      <path id="Path_1193" data-name="Path 1193" d="M205.59,291.146a1.7,1.7,0,0,1-1.721,1.816,1.939,1.939,0,0,1-1.912-1.816,1.71,1.71,0,0,1,1.721-1.816A1.939,1.939,0,0,1,205.59,291.146Z" transform="translate(-154.913 -200.17)" fill="#263238"/>
      <path id="Path_1194" data-name="Path 1194" d="M216.1,291.146a1.71,1.71,0,0,1-1.726,1.816,1.933,1.933,0,0,1-1.907-1.816,1.7,1.7,0,0,1,1.721-1.816A1.939,1.939,0,0,1,216.1,291.146Z" transform="translate(-159.84 -200.169)" fill="#263238"/>
    </g>
    <g id="freepik--Character--inject-74" transform="translate(124.879 81.341)">
      <path id="Path_1195" data-name="Path 1195" d="M328.851,176.62c.133.2.2.308.287.451l.239.393c.154.266.292.531.425.791.266.531.531,1.062.744,1.593a29.324,29.324,0,0,1,1.147,3.235,33.873,33.873,0,0,1,1.264,6.66l.037.42a2.433,2.433,0,0,1,0,.255v.281a6.8,6.8,0,0,1-.064,1.1,9.105,9.105,0,0,1-.531,1.981,13.708,13.708,0,0,1-1.838,3.187,22.78,22.78,0,0,1-4.945,4.679l-1.466-1.716a30.46,30.46,0,0,0,3.527-4.881,11.153,11.153,0,0,0,1.062-2.507,5.062,5.062,0,0,0,.175-1.137,2.487,2.487,0,0,0,0-.494v-.112a.7.7,0,0,0,0-.149l-.064-.372a42.091,42.091,0,0,0-1.445-5.842c-.308-.951-.685-1.87-1.062-2.767-.186-.451-.4-.892-.611-1.317l-.329-.627-.165-.292-.138-.234Z" transform="translate(-276.864 -138.365)" fill="#803e3c"/>
      <path id="Path_1196" data-name="Path 1196" d="M323.7,221.925l1.923,4.063,1.524-3.436s-1.354-2.974-3.187-2.7Z" transform="translate(-276.653 -158.628)" fill="#7f3e3b"/>
      <path id="Path_1197" data-name="Path 1197" d="M328.7,228.588l1.53-2.507-1.381-1.131-1.524,3.436Z" transform="translate(-278.35 -161.026)" fill="#7f3e3b"/>
      <path id="Path_1198" data-name="Path 1198" d="M312.722,407.224a5.451,5.451,0,0,0,1.179-.159.117.117,0,0,0,.08-.085.106.106,0,0,0-.048-.106c-.154-.1-1.5-.972-2.024-.738a.361.361,0,0,0-.207.3.6.6,0,0,0,.175.531A1.259,1.259,0,0,0,312.722,407.224Zm.876-.313a2.126,2.126,0,0,1-1.593-.074.409.409,0,0,1-.112-.377.129.129,0,0,1,.09-.133C312.271,406.2,313.052,406.576,313.6,406.91Z" transform="translate(-271.024 -245.96)" fill="#80a7ff"/>
      <path id="Path_1199" data-name="Path 1199" d="M314.747,406.153h.053a.117.117,0,0,0,.053-.1c0-.053,0-1.333-.489-1.763a.558.558,0,0,0-.446-.138.366.366,0,0,0-.356.292c-.1.5.706,1.461,1.131,1.7Zm-.76-1.8a.324.324,0,0,1,.234.09,2.406,2.406,0,0,1,.414,1.4c-.425-.34-.93-1.062-.866-1.365,0-.048.037-.111.17-.127Z" transform="translate(-271.895 -245.048)" fill="#80a7ff"/>
      <path id="Path_1200" data-name="Path 1200" d="M301.8,403.974a.112.112,0,0,0-.074-.181c-.218,0-2.125-.09-2.56.377v.032a.335.335,0,0,0-.048.329.589.589,0,0,0,.388.388c.616.191,1.7-.5,2.3-.935Zm-2.475.335A4.2,4.2,0,0,1,301.4,404c-.823.563-1.508.829-1.854.722a.382.382,0,0,1-.255-.255.144.144,0,0,1,0-.133Z" transform="translate(-265.116 -244.878)" fill="#80a7ff"/>
      <path id="Path_1201" data-name="Path 1201" d="M302.266,402.894h0a.122.122,0,0,0,0-.106c-.027-.042-.621-1.062-1.322-1.275a.77.77,0,0,0-.606.074c-.255.149-.271.324-.239.436.138.494,1.492.929,2.077.924a.106.106,0,0,0,.09-.053Zm-1.907-1.062a.445.445,0,0,1,.1-.074.531.531,0,0,1,.446-.058c.462.122.892.717,1.089,1.009-.632-.069-1.593-.457-1.673-.754a.122.122,0,0,1,.037-.127Z" transform="translate(-265.581 -243.797)" fill="#80a7ff"/>
      <path id="Path_1202" data-name="Path 1202" d="M307.456,147.33c-.531,2.656-1.678,8.4.165,10.16,0,0-.722,2.656-5.625,2.656-5.4,0-2.576-2.656-2.576-2.656,2.942-.7,2.868-2.889,2.353-4.939Z" transform="translate(-264.923 -124.632)" fill="#7f3e3b"/>
      <path id="Path_1203" data-name="Path 1203" d="M296.886,134.325a.281.281,0,0,0,.09,0,.212.212,0,0,0,.1-.287,2.093,2.093,0,0,0-1.53-1.168.218.218,0,0,0-.234.186.212.212,0,0,0,.186.234h0a1.668,1.668,0,0,1,1.2.94.212.212,0,0,0,.191.1Z" transform="translate(-263.34 -117.852)" fill="#263238"/>
      <path id="Path_1204" data-name="Path 1204" d="M293.881,140a9.7,9.7,0,0,1-1.551,2.125,1.546,1.546,0,0,0,1.237.393Z" transform="translate(-261.944 -121.195)" fill="#630f0f"/>
      <path id="Path_1205" data-name="Path 1205" d="M295.248,138.254c-.043.356-.271.621-.5.595s-.388-.34-.345-.7.271-.621.531-.595S295.286,137.9,295.248,138.254Z" transform="translate(-262.913 -120.05)" fill="#263238"/>
      <path id="Path_1206" data-name="Path 1206" d="M294.818,137.329,294,137S294.345,137.7,294.818,137.329Z" transform="translate(-262.727 -119.789)" fill="#263238"/>
      <path id="Path_1207" data-name="Path 1207" d="M306.868,393.444l-4.334,1.009-2.634-9.964,4.334-1.009Z" transform="translate(-265.493 -235.356)" fill="#7f3e3b"/>
      <path id="Path_1208" data-name="Path 1208" d="M321.616,398.629H317.17l.345-10.3h4.451Z" transform="translate(-273.591 -237.63)" fill="#7f3e3b"/>
      <path id="Path_1209" data-name="Path 1209" d="M310.839,406.75h5a.356.356,0,0,1,.356.308l.568,3.952a.712.712,0,0,1-.712.791c-1.742-.027-2.581-.133-4.78-.133-1.354,0-3.33.143-5.194.143s-1.97-1.848-1.19-2.013a8.721,8.721,0,0,0,5.21-2.772A1.152,1.152,0,0,1,310.839,406.75Z" transform="translate(-267.616 -246.267)" fill="#263238"/>
      <path id="Path_1210" data-name="Path 1210" d="M299.642,401.017l4.541-2.087a.351.351,0,0,1,.446.128l2.172,3.357a.717.717,0,0,1-.319,1.014c-1.593.7-2.4.961-4.4,1.88-1.227.563-3.718,1.859-5.407,2.656s-2.56-.855-1.923-1.333a11.984,11.984,0,0,0,4.323-5.035A1.137,1.137,0,0,1,299.642,401.017Z" transform="translate(-262.983 -242.584)" fill="#263238"/>
      <path id="Path_1211" data-name="Path 1211" d="M299.9,384.489l1.413,5.343,4.281-1.216-1.354-5.136Z" transform="translate(-265.493 -235.356)" opacity="0.2"/>
      <path id="Path_1212" data-name="Path 1212" d="M322.116,388.33h-4.451l-.175,5.311h4.451Z" transform="translate(-273.741 -237.63)" opacity="0.2"/>
      <path id="Path_1213" data-name="Path 1213" d="M325.609,168.3c1.848.409,3.824,7.053,3.824,7.053l-5.226,5.561s-4.339-6.246-3.452-8.541C321.652,169.979,323.4,167.823,325.609,168.3Z" transform="translate(-275.216 -134.433)" fill="#263238"/>
      <path id="Path_1214" data-name="Path 1214" d="M322.635,175.851c-.935-.855-1.567-.6-2,.08-.425,1.976,2.093,6.113,3.107,7.68C324.212,181.741,324.749,177.8,322.635,175.851Z" transform="translate(-275.194 -137.75)" opacity="0.4"/>
      <path id="Path_1215" data-name="Path 1215" d="M285.441,167.472s-2.125.744,2.125,26.849h18.058c-.3-7.351-.313-11.887,3.187-26.981a53.259,53.259,0,0,0-7.675-1.009,57.04,57.04,0,0,0-8.2,0C289.435,166.654,285.441,167.472,285.441,167.472Z" transform="translate(-258.465 -133.471)" fill="#263238"/>
      <path id="Path_1216" data-name="Path 1216" d="M285.6,184.8c.117,1.269.271,2.7.473,4.313,1.482-1.333,2.693-5.125,2.247-7.335A13.061,13.061,0,0,0,285.6,184.8Z" transform="translate(-258.789 -140.785)" opacity="0.4"/>
      <path id="Path_1217" data-name="Path 1217" d="M268.206,178.486a78.639,78.639,0,0,1-3.288,7.2,44.219,44.219,0,0,1-4.249,6.9l-.34.42-.17.207c-.058.069-.106.133-.2.228a6.61,6.61,0,0,1-1.062.935,8.658,8.658,0,0,1-2.22,1.1,16.216,16.216,0,0,1-4.249.754,31.527,31.527,0,0,1-8.052-.717l.292-2.231c1.222,0,2.5,0,3.718-.1a29.976,29.976,0,0,0,3.644-.4,14.342,14.342,0,0,0,3.261-.914,4.87,4.87,0,0,0,1.174-.712,2.426,2.426,0,0,0,.366-.382s.064-.085.106-.143l.122-.175.25-.351a52.665,52.665,0,0,0,3.553-6.432c1.062-2.257,2.125-4.6,3.1-6.9Z" transform="translate(-239.462 -138.436)" fill="#803e3c"/>
      <path id="Path_1218" data-name="Path 1218" d="M281.554,168.474c-2.215.531-4.934,6.607-4.934,6.607l4.589,6.745s6.113-7.7,5.386-10.044C285.851,169.334,284.258,167.815,281.554,168.474Z" transform="translate(-254.578 -134.474)" fill="#263238"/>
      <path id="Path_1219" data-name="Path 1219" d="M243.612,206.949l-3.829-1.769-.382,3.808s3.187.94,4.78,0Z" transform="translate(-237.127 -151.756)" fill="#7f3e3b"/>
      <path id="Path_1220" data-name="Path 1220" d="M235.486,204.46l-.366,2.9,2.273,1.291.382-3.808Z" transform="translate(-235.12 -151.419)" fill="#7f3e3b"/>
      <path id="Path_1221" data-name="Path 1221" d="M307.321,133c-.813,4.339-1.062,6.2-3.548,8.169-3.718,2.964-8.9,1.02-9.4-3.474-.457-4.047.945-10.463,5.444-11.685a6.018,6.018,0,0,1,7.5,6.99Z" transform="translate(-262.866 -114.533)" fill="#7f3e3b"/>
      <path id="Path_1222" data-name="Path 1222" d="M298.759,131.642c-.25,2.215-.345,7.967,4.52,8.148,5.954.218,7.738-4.87,7.207-6.9,3.1-2.523,3.548-6.862.064-10.182s-11.154-1.466-13.278,1.769C294.579,128.482,298.759,131.642,298.759,131.642Z" transform="translate(-263.837 -112.264)" fill="#263238"/>
      <path id="Path_1223" data-name="Path 1223" d="M312.012,123.2c-.287-2.337-.064-3.946,2.125-3.946s5.173.791,6.267,3.027,1.184,5.736-1.87,5.38S312.357,125.99,312.012,123.2Z" transform="translate(-271.126 -111.466)" fill="#80a7ff"/>
      <path id="Path_1224" data-name="Path 1224" d="M318.419,115.762c-.531-2.783,1.96-10.623,8.009-11.154,2.8-.239,4.1,2.778,2.656,3.277,2.656-.032,4.355,3.479,1.88,4,1.955,1.253,1.471,3.824-1.317,5.088C327.57,117.934,319.136,119.618,318.419,115.762Z" transform="translate(-274.144 -104.595)" fill="#263238"/>
      <path id="Path_1225" data-name="Path 1225" d="M324.916,126.218a10.04,10.04,0,0,1-5.248-1.131,2.6,2.6,0,0,1-1.248-2.018.138.138,0,0,1,.122-.143.127.127,0,0,1,.143.122,2.369,2.369,0,0,0,1.131,1.822c2.406,1.593,7.967,1.062,9.7.531a3.677,3.677,0,0,0,2.714-2.533,2.2,2.2,0,0,0-.887-2.125.127.127,0,0,1,0-.186.133.133,0,0,1,.186,0,2.475,2.475,0,0,1,.983,2.406,3.913,3.913,0,0,1-2.889,2.735,17.363,17.363,0,0,1-4.706.521Z" transform="translate(-274.177 -112.061)" fill="#263238"/>
      <path id="Path_1226" data-name="Path 1226" d="M297.784,139.395a3.266,3.266,0,0,0-.568,2.4c.175,1.115,1.259,1.19,2.045.478s1.471-2,.892-2.921a1.392,1.392,0,0,0-2.369.048Z" transform="translate(-264.217 -120.59)" fill="#7f3e3b"/>
      <path id="Path_1227" data-name="Path 1227" d="M298.89,219.16s2.581,30.535,5.263,47.743c2.162,13.9,3.872,46.389,3.872,46.389h6.065s2.156-31.517,1.062-45.263c-2.778-34.789,3.42-37.625-2.958-48.864Z" transform="translate(-265.02 -158.311)" fill="#80a7ff"/>
      <path id="Path_1228" data-name="Path 1228" d="M308.211,240.89a29.637,29.637,0,0,0-5.731,8.647c.706,6.862,1.546,14.479,2.438,21.15a58.626,58.626,0,0,0,3.293-29.8Z" transform="translate(-266.703 -168.5)" opacity="0.4"/>
      <path id="Path_1229" data-name="Path 1229" d="M285.175,218.8s-5.6,33.349-6.485,48.38c2.2,13.9,11.2,43.282,11.2,43.282l5.518-2s-3.054-32.038-6.374-40.806C296.5,242.494,302,236.131,300.4,218.991,296.568,218.991,285.175,218.8,285.175,218.8Z" transform="translate(-255.549 -158.142)" fill="#80a7ff"/>
      <path id="Path_1230" data-name="Path 1230" d="M297.541,389.728,305,387.7l-.425-2.974-7.983,2.162Z" transform="translate(-263.942 -235.942)" fill="#263238"/>
      <path id="Path_1231" data-name="Path 1231" d="M314.482,393.985h7.728l.4-2.709L314.44,391Z" transform="translate(-272.311 -238.882)" fill="#263238"/>
      <path id="Path_1232" data-name="Path 1232" d="M307.753,217.059l.813,1.62c.064.127-.085.255-.292.255H289.323c-.159,0-.3-.08-.308-.186l-.165-1.593c0-.112.133-.207.308-.207h18.3a.335.335,0,0,1,.3.112Z" transform="translate(-260.312 -157.272)" fill="#80a7ff"/>
      <path id="Path_1233" data-name="Path 1233" d="M307.753,217.059l.813,1.62c.064.127-.085.255-.292.255H289.323c-.159,0-.3-.08-.308-.186l-.165-1.593c0-.112.133-.207.308-.207h18.3a.335.335,0,0,1,.3.112Z" transform="translate(-260.312 -157.272)" opacity="0.5"/>
      <path id="Path_1234" data-name="Path 1234" d="M319.439,218.928h.489c.1,0,.175-.053.17-.112l-.234-2.125c0-.064-.09-.112-.186-.112h-.494c-.1,0-.17.048-.165.112l.228,2.125C319.259,218.885,319.344,218.928,319.439,218.928Z" transform="translate(-274.458 -157.101)" fill="#80a7ff"/>
      <path id="Path_1235" data-name="Path 1235" d="M300.236,179.991a.276.276,0,0,1-.26-.2c-1.731-6.405-5.311-11.685-7.048-12.481a.605.605,0,0,0-.451-.074.266.266,0,1,1-.218-.483,1.062,1.062,0,0,1,.892.074c1.838.871,5.471,6.076,7.287,12.625,1.3,0,3.309-.175,3.8-.218.605-.722,5.056-6.289,3.394-12.381a.26.26,0,0,1,.186-.324.266.266,0,0,1,.324.186c1.854,6.777-3.521,12.89-3.58,12.949a.244.244,0,0,1-.17.09C304.363,179.757,301.713,179.991,300.236,179.991Z" transform="translate(-261.83 -133.631)" fill="#80a7ff"/>
      <path id="Path_1236" data-name="Path 1236" d="M314.085,188.471c-2.895-5.423-4.079-5.805-4.594-7.547a9.029,9.029,0,0,1,1.647-2.656c-.351-.1-1.1-.25-1.593-.34.053-.239.112-.473.165-.7a5.068,5.068,0,0,0-1.593.074v-.531a6.9,6.9,0,0,0-2.055-.133q.09.377.175.765c-.531.1-1.338.266-1.726.377a7.649,7.649,0,0,1,1.62,2.958c-1.562,2.682-7.627,19.923,2.241,21.245S316.974,193.9,314.085,188.471Z" transform="translate(-266.878 -138.362)" fill="#80a7ff"/>
      <path id="Path_1237" data-name="Path 1237" d="M314.085,188.471c-2.895-5.423-4.079-5.805-4.594-7.547a9.029,9.029,0,0,1,1.647-2.656c-.351-.1-1.1-.25-1.593-.34.053-.239.112-.473.165-.7a5.068,5.068,0,0,0-1.593.074v-.531a6.9,6.9,0,0,0-2.055-.133q.09.377.175.765c-.531.1-1.338.266-1.726.377a7.649,7.649,0,0,1,1.62,2.958c-1.562,2.682-7.627,19.923,2.241,21.245S316.974,193.9,314.085,188.471Z" transform="translate(-266.878 -138.362)" fill="#fff" opacity="0.4"/>
      <path id="Path_1238" data-name="Path 1238" d="M308.188,183.3a3.342,3.342,0,0,0-.08.834c0,.2.531.329,1.121.388s3.065.154,2.985-.122.122-.653.133-.887-.983-.244-1.816-.212S308.353,183,308.188,183.3Z" transform="translate(-269.342 -141.438)" fill="#80a7ff"/>
      <path id="Path_1239" data-name="Path 1239" d="M297.093,218.928h.489c.1,0,.17-.053.165-.112l-.228-2.125c0-.064-.09-.112-.191-.112h-.473c-.1,0-.17.048-.165.112l.228,2.125C296.908,218.885,296.992,218.928,297.093,218.928Z" transform="translate(-263.988 -157.101)" fill="#80a7ff"/>
    </g>
  </g>
</svg>
