<svg xmlns="http://www.w3.org/2000/svg" width="283.996" height="268.419" viewBox="0 0 283.996 268.419">
  <g id="Navigation-amico" transform="translate(-17.085 -28.149)">
    <g id="freepik--Floor--inject-134" transform="translate(33.486 142.828)">
      <ellipse id="freepik--floor--inject-134-2" data-name="freepik--floor--inject-134" cx="125.142" cy="72.254" rx="125.142" ry="72.254" fill="#f5f5f5"/>
    </g>
    <g id="freepik--Shadows--inject-134" transform="translate(17.085 133.583)">
      <path id="freepik--Shadow--inject-134" d="M202.646,359.72l95.948-55.4c2.1-1.213,2.1-3.179,0-4.392L122.224,198.547a8.423,8.423,0,0,0-7.614,0L18.662,253.912c-2.1,1.244-2.1,3.185,0,4.4l176.376,101.4a8.41,8.41,0,0,0,7.608.012Z" transform="translate(-17.085 -197.638)" fill="#e0e0e0"/>
    </g>
    <g id="freepik--Plants--inject-134" transform="translate(276.311 186.566)">
      <g id="freepik--plants--inject-134-2" data-name="freepik--plants--inject-134">
        <path id="Path_2026" data-name="Path 2026" d="M437.141,317.223l-3.341-2.88s.131-10.3,3.141-18.587c4.243-11.651,13.231-14.2,15.975-12.441s2.743,5.468-3.975,11.371C444.972,298.181,439.212,306.05,437.141,317.223Z" transform="translate(-433.8 -282.81)" fill="#90caf9"/>
        <g id="Group_63" data-name="Group 63" opacity="0.15">
          <path id="Path_2027" data-name="Path 2027" d="M437.141,317.223l-3.341-2.88s.131-10.3,3.141-18.587c4.243-11.651,13.231-14.2,15.975-12.441s2.743,5.468-3.975,11.371C444.972,298.181,439.212,306.05,437.141,317.223Z" transform="translate(-433.8 -282.81)"/>
        </g>
        <path id="Path_2028" data-name="Path 2028" d="M438.343,313.145h.037a.274.274,0,0,0,.286-.261c.622-11.552,7.564-23.017,13.611-26.985a.267.267,0,0,0,.081-.373.28.28,0,0,0-.379-.081c-6.165,4.05-13.213,15.682-13.86,27.408A.274.274,0,0,0,438.343,313.145Z" transform="translate(-435.432 -283.789)" fill="#fff"/>
        <path id="Path_2029" data-name="Path 2029" d="M448.4,332.286c.529.454,1.9-.056,2.432-.28a5.686,5.686,0,0,0,2.308-1.8,5.412,5.412,0,0,0,1.095-3.11,12.124,12.124,0,0,0-.075-1.779l-.149-1.742a4.273,4.273,0,0,1,.081-1.711c.361-1.095,1.518-1.692,2.557-2.2,1.157-.56,2.395-1.35,2.656-2.706a4.877,4.877,0,0,0-.622-3.073c-.491-.952-1.12-1.829-1.536-2.806a3.365,3.365,0,0,1-.274-2.246,3.489,3.489,0,0,1,.715-1.244,19.086,19.086,0,0,0,1.96-2.364,2.718,2.718,0,0,0,.05-2.868,3.148,3.148,0,0,0-2.221-1.033,5.393,5.393,0,0,0-2.32.342c-2.389.778-4.118,3.11-6.582,3.564a22.512,22.512,0,0,1-2.9.137,3.5,3.5,0,0,0-2.588,1.12c-1.163,1.512,0,3.882-.946,5.549-.834,1.474-2.488,1.779-3.614,3.029a3.415,3.415,0,0,0-.8,1.984,10.016,10.016,0,0,0,.193,3.652,24.558,24.558,0,0,0,1.3,3.508C439.171,324.261,448.328,332.223,448.4,332.286Z" transform="translate(-435.214 -289.804)" fill="#90caf9"/>
        <path id="Path_2030" data-name="Path 2030" d="M446.072,328.838h0a.274.274,0,0,0,.317-.224c1.63-10.743,8.939-21.524,13.256-24.23a.28.28,0,0,0,.087-.373.274.274,0,0,0-.379-.087c-4.4,2.756-11.85,13.717-13.505,24.6A.274.274,0,0,0,446.072,328.838Z" transform="translate(-438.352 -290.773)" fill="#fff"/>
        <path id="Path_2031" data-name="Path 2031" d="M452.59,323.821h.081a36.771,36.771,0,0,1,7.969.255.28.28,0,0,0,.317-.23.268.268,0,0,0-.23-.311,37.5,37.5,0,0,0-8.118-.261.274.274,0,0,0,0,.541Z" transform="translate(-440.821 -298.061)" fill="#fff"/>
      </g>
    </g>
    <g id="freepik--Clouds--inject-134" transform="translate(87.009 94.357)">
      <g id="freepik--clouds--inject-134-2" data-name="freepik--clouds--inject-134" transform="translate(0 0)">
        <path id="freepik--Cloud--inject-134" d="M147.71,136.279l-3.11,1.8a3.114,3.114,0,0,0,0-.411v-.9c0-1.6-1.126-2.252-2.488-1.449a4.9,4.9,0,0,0-1.5,1.437c-.224-2.016-1.81-2.768-3.732-1.655a8.3,8.3,0,0,0-3.732,6.513v1.319a3.608,3.608,0,0,0,.317,1.561l-2.582,1.493a3.11,3.11,0,0,0-1.393,2.414c0,.89.622,1.244,1.393.809l16.852-9.729a3.11,3.11,0,0,0,1.393-2.414C149.091,136.2,148.469,135.837,147.71,136.279Z" transform="translate(-129.49 -134.581)" fill="#ebebeb"/>
        <path id="freepik--cloud--inject-134-2" data-name="freepik--cloud--inject-134" d="M171.413,149.429l-2.283,1.319a2.625,2.625,0,0,0,0-.3v-.659c0-1.176-.827-1.655-1.866-1.064a3.533,3.533,0,0,0-1.095,1.058c-.168-1.481-1.325-2.028-2.737-1.244a6.1,6.1,0,0,0-2.756,4.777v.989a2.6,2.6,0,0,0,.23,1.145l-1.866,1.095a2.239,2.239,0,0,0-1.02,1.767c0,.653.454.914,1.02.591l12.373-7.1a2.24,2.24,0,0,0,1.02-1.767C172.433,149.367,171.979,149.105,171.413,149.429Z" transform="translate(-140.272 -139.719)" fill="#ebebeb"/>
      </g>
    </g>
    <g id="freepik--Device--inject-134" transform="translate(24.497 83.595)">
      <g id="freepik--device--inject-134-2" data-name="freepik--device--inject-134" transform="translate(0 0)">
        <g id="freepik--device--inject-134-3" data-name="freepik--device--inject-134" transform="translate(0 41.754)">
          <g id="freepik--device--inject-134-4" data-name="freepik--device--inject-134">
            <path id="Path_2032" data-name="Path 2032" d="M294.674,313.772c1.325,1.026,1.182,2.488-.423,3.4l-87.83,50.711a7.092,7.092,0,0,1-6.389,0L32.185,270.974c-1.63-.939-1.76-2.414-.379-3.434A7.1,7.1,0,0,0,29,272.8v4.224a7.029,7.029,0,0,0,3.2,5.536L200.02,379.488a7.061,7.061,0,0,0,6.395,0l87.83-50.7a7.036,7.036,0,0,0,3.191-5.53v-4.23A7.141,7.141,0,0,0,294.674,313.772Z" transform="translate(-29 -215.822)" fill="#455a64"/>
            <path id="Path_2033" data-name="Path 2033" d="M295.381,282.072,127.528,185.16a7.11,7.11,0,0,0-6.389,0L33.315,235.871c-1.767,1.014-1.767,2.669,0,3.683l167.847,96.912a7.092,7.092,0,0,0,6.389,0l87.83-50.711C297.141,284.741,297.141,283.061,295.381,282.072Z" transform="translate(-30.13 -184.402)" fill="#37474f"/>
            <path id="Path_2034" data-name="Path 2034" d="M31.806,267.54A7.1,7.1,0,0,0,29,272.8v4.224a7.042,7.042,0,0,0,3.2,5.536L200.02,379.488a6.557,6.557,0,0,0,3.2.765V368.645a6.582,6.582,0,0,1-3.2-.759L32.185,270.974C30.555,270.035,30.425,268.56,31.806,267.54Z" transform="translate(-29 -215.822)" fill="#263238"/>
            <path id="Path_2035" data-name="Path 2035" d="M100.756,239.248a.984.984,0,0,0,0-1.866,3.558,3.558,0,0,0-3.247,0,.982.982,0,0,0,0,1.866,3.6,3.6,0,0,0,3.247,0Z" transform="translate(-54.636 -204.276)"/>
            <path id="Path_2036" data-name="Path 2036" d="M108.3,230.568l12.535-7.235c.753-.429.79-1.113.087-1.518a2.918,2.918,0,0,0-2.625.05l-12.535,7.241c-.746.429-.784,1.107-.087,1.512a2.9,2.9,0,0,0,2.625-.05Z" transform="translate(-57.79 -198.433)"/>
            <path id="Path_2037" data-name="Path 2037" d="M141.344,197.845c-1.505-.871-3.11-.367-4.591.51L54.64,245.719c-1.512.871-1.518,2.283,0,3.16l148.98,86.032a6.071,6.071,0,0,0,5.48,0l82.113-47.371c1.518-.871,1.512-2.289,0-3.16Z" transform="translate(-38.261 -189.311)" fill="#90caf9"/>
            <path id="Path_2038" data-name="Path 2038" d="M141.344,197.845c-1.505-.871-3.11-.367-4.591.51L54.64,245.719c-1.512.871-1.518,2.283,0,3.16l148.98,86.032a6.071,6.071,0,0,0,5.48,0l82.113-47.371c1.518-.871,1.512-2.289,0-3.16Z" transform="translate(-38.261 -189.311)" fill="#fff" opacity="0.96"/>
          </g>
        </g>
        <g id="Group_64" data-name="Group 64" transform="translate(18.662 52.067)" opacity="0.4">
          <path id="Path_2039" data-name="Path 2039" d="M285.178,402.964l30.942-17.853-5.194-1.5A62.966,62.966,0,0,0,262,389.577h0Z" transform="translate(-135.72 -269.07)" fill="#90caf9"/>
          <path id="Path_2040" data-name="Path 2040" d="M355.747,355.522l46.2-26.674L371.025,311,352.78,354.669Z" transform="translate(-170.028 -242.56)" fill="#90caf9"/>
          <path id="Path_2041" data-name="Path 2041" d="M343.924,303.931l-18.04,45.218a62.676,62.676,0,0,0-31.184-2.016l17.418-42.886,25.306-4.068Z" transform="translate(-148.078 -238.471)" fill="#90caf9"/>
          <path id="Path_2042" data-name="Path 2042" d="M250.872,365.464l6.32-15.552-49.1-5.823-8.242,9.169,34.214,19.757a70.1,70.1,0,0,1,16.808-7.552Z" transform="translate(-112.231 -255.065)" fill="#90caf9"/>
          <path id="Path_2043" data-name="Path 2043" d="M329.571,282.41l15.365,8.852L324.65,294.54Z" transform="translate(-159.397 -231.755)" fill="#90caf9"/>
          <ellipse id="Ellipse_22" data-name="Ellipse 22" cx="5.468" cy="3.154" rx="5.468" ry="3.154" transform="translate(66.686 51.893)" fill="#90caf9"/>
          <path id="Path_2044" data-name="Path 2044" d="M261.051,301.741l-75.949-9c-.8,1.829-2.171,2.239-5.362,2.936l21.188,24.261,50.512,5.935Z" transform="translate(-104.631 -235.659)" fill="#90caf9"/>
          <path id="Path_2045" data-name="Path 2045" d="M226.287,267.611l-5.6,13.53L186.2,277.048a7.869,7.869,0,0,0-2.961-1.91l4.734-12.068Z" transform="translate(-105.954 -224.446)" fill="#90caf9"/>
          <path id="Path_2046" data-name="Path 2046" d="M296.51,274.2l-5.928,14.625-37.822-4.485L258.7,269.71Z" transform="translate(-132.228 -226.955)" fill="#90caf9"/>
          <path id="Path_2047" data-name="Path 2047" d="M267.038,248.357,204.389,212.19,193.54,239.642Z" transform="translate(-109.847 -205.217)" fill="#90caf9"/>
          <path id="Path_2048" data-name="Path 2048" d="M149.5,296.139,172.633,322.6l-8.242,9.144L119.67,305.924,147.246,295.1a10.478,10.478,0,0,0,2.252,1.039Z" transform="translate(-81.929 -236.551)" fill="#90caf9"/>
          <path id="Path_2049" data-name="Path 2049" d="M157.773,234.8l11.6-29.362-7.732-4.46L112.38,229.415Z" transform="translate(-79.174 -200.98)" fill="#90caf9"/>
          <path id="Path_2050" data-name="Path 2050" d="M85.612,252.7,59,268.134l33.5,19.34,29.548-11.645c-.062-1.418.622-2.781,2.787-4.05a13.5,13.5,0,0,1,6.457-1.468l4.61-11.763Z" transform="translate(-59 -220.527)" fill="#90caf9"/>
        </g>
        <g id="freepik--City--inject-134" transform="translate(23.346)">
          <path id="Path_2051" data-name="Path 2051" d="M197.69,248.143V238.93l14.227,1.686v9.207Z" transform="translate(-116.099 -163.255)" fill="#90caf9"/>
          <path id="Path_2052" data-name="Path 2052" d="M220.56,236.655l2.93-8.205v10.158l-2.93,7.253Z" transform="translate(-124.742 -159.294)" fill="#90caf9"/>
          <path id="Path_2053" data-name="Path 2053" d="M214.847,227.43l-13.922-1.68-3.235,8.2,14.227,1.686Z" transform="translate(-116.099 -158.274)" fill="#90caf9"/>
          <path id="Path_2054" data-name="Path 2054" d="M197.69,248.143V238.93l14.227,1.686v9.207Z" transform="translate(-116.099 -163.255)" fill="#fff" opacity="0.8"/>
          <path id="Path_2055" data-name="Path 2055" d="M220.56,236.655l2.93-8.205v10.158l-2.93,7.253Z" transform="translate(-124.742 -159.294)" fill="#fff" opacity="0.75"/>
          <path id="Path_2056" data-name="Path 2056" d="M214.847,227.43l-13.922-1.68-3.235,8.2,14.227,1.686Z" transform="translate(-116.099 -158.274)" fill="#fff" opacity="0.9"/>
          <path id="Path_2057" data-name="Path 2057" d="M212.68,282.854V278.73l14.233,1.68v4.131Z" transform="translate(-121.764 -178.297)" fill="#90caf9"/>
          <path id="Path_2058" data-name="Path 2058" d="M235.56,277.11,238.1,270v5.076l-2.538,6.165Z" transform="translate(-130.411 -174.997)" fill="#90caf9"/>
          <path id="Path_2059" data-name="Path 2059" d="M229.451,268.98l-13.928-1.68-2.843,7.11,14.233,1.68Z" transform="translate(-121.764 -173.977)" fill="#90caf9"/>
          <path id="Path_2060" data-name="Path 2060" d="M212.68,282.854V278.73l14.233,1.68v4.131Z" transform="translate(-121.764 -178.297)" fill="#fff" opacity="0.8"/>
          <path id="Path_2061" data-name="Path 2061" d="M235.56,277.11,238.1,270v5.076l-2.538,6.165Z" transform="translate(-130.411 -174.997)" fill="#fff" opacity="0.75"/>
          <path id="Path_2062" data-name="Path 2062" d="M229.451,268.98l-13.928-1.68-2.843,7.11,14.233,1.68Z" transform="translate(-121.764 -173.977)" fill="#fff" opacity="0.9"/>
          <path id="Path_2063" data-name="Path 2063" d="M256.73,367.077V357.87l14.227,1.68v9.213Z" transform="translate(-138.412 -208.206)" fill="#90caf9"/>
          <path id="Path_2064" data-name="Path 2064" d="M279.6,355.589l2.936-8.2v10.158L279.6,364.8Z" transform="translate(-147.055 -204.245)" fill="#90caf9"/>
          <path id="Path_2065" data-name="Path 2065" d="M273.893,346.37l-13.922-1.68-3.241,8.2,14.227,1.68Z" transform="translate(-138.412 -203.225)" fill="#90caf9"/>
          <path id="Path_2066" data-name="Path 2066" d="M256.73,367.077V357.87l14.227,1.68v9.213Z" transform="translate(-138.412 -208.206)" fill="#fff" opacity="0.8"/>
          <path id="Path_2067" data-name="Path 2067" d="M279.6,355.589l2.936-8.2v10.158L279.6,364.8Z" transform="translate(-147.055 -204.245)" fill="#fff" opacity="0.75"/>
          <path id="Path_2068" data-name="Path 2068" d="M273.893,346.37l-13.922-1.68-3.241,8.2,14.227,1.68Z" transform="translate(-138.412 -203.225)" fill="#fff" opacity="0.9"/>
          <path id="Path_2069" data-name="Path 2069" d="M256.34,258.34v-3.39l7.2.852v3.39Z" transform="translate(-138.265 -169.31)" fill="#90caf9"/>
          <path id="Path_2070" data-name="Path 2070" d="M267.92,253.8l1.481-4.155v3.875l-1.481,3.67Z" transform="translate(-142.641 -167.303)" fill="#90caf9"/>
          <path id="Path_2071" data-name="Path 2071" d="M265.024,249.126l-7.048-.846-1.636,4.149,7.2.852Z" transform="translate(-138.265 -166.789)" fill="#90caf9"/>
          <path id="Path_2072" data-name="Path 2072" d="M256.34,258.34v-3.39l7.2.852v3.39Z" transform="translate(-138.265 -169.31)" fill="#fff" opacity="0.8"/>
          <path id="Path_2073" data-name="Path 2073" d="M267.92,253.8l1.481-4.155v3.875l-1.481,3.67Z" transform="translate(-142.641 -167.303)" fill="#fff" opacity="0.75"/>
          <path id="Path_2074" data-name="Path 2074" d="M265.024,249.126l-7.048-.846-1.636,4.149,7.2.852Z" transform="translate(-138.265 -166.789)" fill="#fff" opacity="0.9"/>
          <path id="Path_2075" data-name="Path 2075" d="M171.96,231.679V226.74l10.476,1.238v4.939Z" transform="translate(-106.375 -158.648)" fill="#90caf9"/>
          <path id="Path_2076" data-name="Path 2076" d="M188.8,225.064l2.159-6.034v5.636L188.8,230Z" transform="translate(-112.739 -155.734)" fill="#90caf9"/>
          <path id="Path_2077" data-name="Path 2077" d="M184.594,218.278l-10.252-1.238-2.383,6.034,10.476,1.238Z" transform="translate(-106.375 -154.982)" fill="#90caf9"/>
          <path id="Path_2078" data-name="Path 2078" d="M171.96,231.679V226.74l10.476,1.238v4.939Z" transform="translate(-106.375 -158.648)" fill="#fff" opacity="0.8"/>
          <path id="Path_2079" data-name="Path 2079" d="M188.8,225.064l2.159-6.034v5.636L188.8,230Z" transform="translate(-112.739 -155.734)" fill="#fff" opacity="0.75"/>
          <path id="Path_2080" data-name="Path 2080" d="M184.594,218.278l-10.252-1.238-2.383,6.034,10.476,1.238Z" transform="translate(-106.375 -154.982)" fill="#fff" opacity="0.9"/>
          <path id="Path_2081" data-name="Path 2081" d="M258.35,288.628v-4.4l9.344,1.1v4.4Z" transform="translate(-139.024 -180.375)" fill="#90caf9"/>
          <path id="Path_2082" data-name="Path 2082" d="M273.37,282.731l1.922-5.381v5.026l-1.922,4.759Z" transform="translate(-144.701 -177.775)" fill="#90caf9"/>
          <path id="Path_2083" data-name="Path 2083" d="M269.616,276.681l-9.138-1.1-2.127,5.381,9.344,1.1Z" transform="translate(-139.024 -177.106)" fill="#90caf9"/>
          <path id="Path_2084" data-name="Path 2084" d="M258.35,288.628v-4.4l9.344,1.1v4.4Z" transform="translate(-139.024 -180.375)" fill="#fff" opacity="0.8"/>
          <path id="Path_2085" data-name="Path 2085" d="M273.37,282.731l1.922-5.381v5.026l-1.922,4.759Z" transform="translate(-144.701 -177.775)" fill="#fff" opacity="0.75"/>
          <path id="Path_2086" data-name="Path 2086" d="M269.616,276.681l-9.138-1.1-2.127,5.381,9.344,1.1Z" transform="translate(-139.024 -177.106)" fill="#fff" opacity="0.9"/>
          <path id="Path_2087" data-name="Path 2087" d="M190.23,280.109V275.58l9.611,1.132v4.535Z" transform="translate(-113.28 -177.106)" fill="#90caf9"/>
          <path id="Path_2088" data-name="Path 2088" d="M205.68,274.036l1.978-5.536v5.169l-1.978,4.9Z" transform="translate(-119.119 -174.43)" fill="#90caf9"/>
          <path id="Path_2089" data-name="Path 2089" d="M201.819,267.812l-9.4-1.132-2.19,5.536,9.611,1.132Z" transform="translate(-113.28 -173.743)" fill="#90caf9"/>
          <path id="Path_2090" data-name="Path 2090" d="M190.23,280.109V275.58l9.611,1.132v4.535Z" transform="translate(-113.28 -177.106)" fill="#fff" opacity="0.8"/>
          <path id="Path_2091" data-name="Path 2091" d="M205.68,274.036l1.978-5.536v5.169l-1.978,4.9Z" transform="translate(-119.119 -174.43)" fill="#fff" opacity="0.75"/>
          <path id="Path_2092" data-name="Path 2092" d="M201.819,267.812l-9.4-1.132-2.19,5.536,9.611,1.132Z" transform="translate(-113.28 -173.743)" fill="#fff" opacity="0.9"/>
          <path id="Path_2093" data-name="Path 2093" d="M277.78,290.864v-4.4l9.343,1.107v4.4Z" transform="translate(-146.368 -181.218)" fill="#90caf9"/>
          <path id="Path_2094" data-name="Path 2094" d="M292.8,284.971l1.922-5.381v5.02l-1.922,4.765Z" transform="translate(-152.044 -178.622)" fill="#90caf9"/>
          <path id="Path_2095" data-name="Path 2095" d="M289.046,278.917l-9.138-1.107-2.127,5.381,9.343,1.107Z" transform="translate(-146.368 -177.949)" fill="#90caf9"/>
          <path id="Path_2096" data-name="Path 2096" d="M277.78,290.864v-4.4l9.343,1.107v4.4Z" transform="translate(-146.368 -181.218)" fill="#fff" opacity="0.8"/>
          <path id="Path_2097" data-name="Path 2097" d="M292.8,284.971l1.922-5.381v5.02l-1.922,4.765Z" transform="translate(-152.044 -178.622)" fill="#fff" opacity="0.75"/>
          <path id="Path_2098" data-name="Path 2098" d="M289.046,278.917l-9.138-1.107-2.127,5.381,9.343,1.107Z" transform="translate(-146.368 -177.949)" fill="#fff" opacity="0.9"/>
          <path id="Path_2099" data-name="Path 2099" d="M297.21,293.1v-4.4l9.337,1.107v4.4Z" transform="translate(-153.711 -182.065)" fill="#90caf9"/>
          <path id="Path_2100" data-name="Path 2100" d="M312.22,287.207l1.928-5.387v5.026l-1.928,4.759Z" transform="translate(-159.383 -179.464)" fill="#90caf9"/>
          <path id="Path_2101" data-name="Path 2101" d="M308.476,281.151l-9.138-1.1-2.127,5.381,9.337,1.107Z" transform="translate(-153.711 -178.796)" fill="#90caf9"/>
          <path id="Path_2102" data-name="Path 2102" d="M297.21,293.1v-4.4l9.337,1.107v4.4Z" transform="translate(-153.711 -182.065)" fill="#fff" opacity="0.8"/>
          <path id="Path_2103" data-name="Path 2103" d="M312.22,287.207l1.928-5.387v5.026l-1.928,4.759Z" transform="translate(-159.383 -179.464)" fill="#fff" opacity="0.75"/>
          <path id="Path_2104" data-name="Path 2104" d="M308.476,281.151l-9.138-1.1-2.127,5.381,9.337,1.107Z" transform="translate(-153.711 -178.796)" fill="#fff" opacity="0.9"/>
          <path id="Path_2105" data-name="Path 2105" d="M117.51,269.494v-4.4l9.343,1.107v4.4Z" transform="translate(-85.797 -173.142)" fill="#90caf9"/>
          <path id="Path_2106" data-name="Path 2106" d="M132.53,263.6l1.922-5.381v5.02l-1.922,4.765Z" transform="translate(-91.473 -170.545)" fill="#90caf9"/>
          <path id="Path_2107" data-name="Path 2107" d="M128.776,257.547l-9.138-1.107-2.127,5.381,9.343,1.107Z" transform="translate(-85.797 -169.873)" fill="#90caf9"/>
          <path id="Path_2108" data-name="Path 2108" d="M117.51,269.494v-4.4l9.343,1.107v4.4Z" transform="translate(-85.797 -173.142)" fill="#fff" opacity="0.8"/>
          <path id="Path_2109" data-name="Path 2109" d="M132.53,263.6l1.922-5.381v5.02l-1.922,4.765Z" transform="translate(-91.473 -170.545)" fill="#fff" opacity="0.75"/>
          <path id="Path_2110" data-name="Path 2110" d="M128.776,257.547l-9.138-1.107-2.127,5.381,9.343,1.107Z" transform="translate(-85.797 -169.873)" fill="#fff" opacity="0.9"/>
          <path id="Path_2111" data-name="Path 2111" d="M136.94,271.734v-4.4l9.343,1.107v4.4Z" transform="translate(-93.14 -173.988)" fill="#90caf9"/>
          <path id="Path_2112" data-name="Path 2112" d="M151.96,265.837l1.922-5.387v5.026l-1.922,4.759Z" transform="translate(-98.817 -171.388)" fill="#90caf9"/>
          <path id="Path_2113" data-name="Path 2113" d="M148.206,259.781l-9.138-1.1-2.127,5.381,9.343,1.107Z" transform="translate(-93.14 -170.719)" fill="#90caf9"/>
          <path id="Path_2114" data-name="Path 2114" d="M136.94,271.734v-4.4l9.343,1.107v4.4Z" transform="translate(-93.14 -173.988)" fill="#fff" opacity="0.8"/>
          <path id="Path_2115" data-name="Path 2115" d="M151.96,265.837l1.922-5.387v5.026l-1.922,4.759Z" transform="translate(-98.817 -171.388)" fill="#fff" opacity="0.75"/>
          <path id="Path_2116" data-name="Path 2116" d="M148.206,259.781l-9.138-1.1-2.127,5.381,9.343,1.107Z" transform="translate(-93.14 -170.719)" fill="#fff" opacity="0.9"/>
          <path id="Path_2117" data-name="Path 2117" d="M156.37,273.968v-4.4l9.337,1.107v4.4Z" transform="translate(-100.483 -174.835)" fill="#90caf9"/>
          <path id="Path_2118" data-name="Path 2118" d="M171.38,268.077l1.928-5.387v5.026l-1.928,4.759Z" transform="translate(-106.156 -172.235)" fill="#90caf9"/>
          <path id="Path_2119" data-name="Path 2119" d="M167.636,262.021l-9.144-1.1L156.37,266.3l9.337,1.107Z" transform="translate(-100.483 -171.566)" fill="#90caf9"/>
          <path id="Path_2120" data-name="Path 2120" d="M156.37,273.968v-4.4l9.337,1.107v4.4Z" transform="translate(-100.483 -174.835)" fill="#fff" opacity="0.8"/>
          <path id="Path_2121" data-name="Path 2121" d="M171.38,268.077l1.928-5.387v5.026l-1.928,4.759Z" transform="translate(-106.156 -172.235)" fill="#fff" opacity="0.75"/>
          <path id="Path_2122" data-name="Path 2122" d="M167.636,262.021l-9.144-1.1L156.37,266.3l9.337,1.107Z" transform="translate(-100.483 -171.566)" fill="#fff" opacity="0.9"/>
          <path id="Path_2123" data-name="Path 2123" d="M350.25,247.869V245.25l7.919.933V248.8Z" transform="translate(-173.756 -165.644)" fill="#90caf9"/>
          <path id="Path_2124" data-name="Path 2124" d="M350.25,247.869V245.25l7.919.933V248.8Z" transform="translate(-173.756 -165.644)" fill="#fff" opacity="0.8"/>
          <path id="Path_2125" data-name="Path 2125" d="M362.98,244.686l1.157-3.4v3.185l-1.157,2.83Z" transform="translate(-178.567 -164.147)" fill="#90caf9"/>
          <path id="Path_2126" data-name="Path 2126" d="M362.98,244.686l1.157-3.4v3.185l-1.157,2.83Z" transform="translate(-178.567 -164.147)" fill="#fff" opacity="0.75"/>
          <path id="Path_2127" data-name="Path 2127" d="M359.326,240.727l-7.739-.927-1.337,3.39,7.919.933Z" transform="translate(-173.756 -163.584)" fill="#90caf9"/>
          <path id="Path_2128" data-name="Path 2128" d="M359.326,240.727l-7.739-.927-1.337,3.39,7.919.933Z" transform="translate(-173.756 -163.584)" fill="#fff" opacity="0.9"/>
          <path id="Path_2129" data-name="Path 2129" d="M259.99,335.854v-4.4l9.344,1.107v4.4Z" transform="translate(-139.644 -198.221)" fill="#90caf9"/>
          <path id="Path_2130" data-name="Path 2130" d="M275.01,329.957l1.922-5.387V329.6l-1.922,4.765Z" transform="translate(-145.321 -195.621)" fill="#90caf9"/>
          <path id="Path_2131" data-name="Path 2131" d="M271.256,323.9l-9.138-1.1-2.128,5.381,9.344,1.107Z" transform="translate(-139.644 -194.952)" fill="#90caf9"/>
          <path id="Path_2132" data-name="Path 2132" d="M259.99,335.854v-4.4l9.344,1.107v4.4Z" transform="translate(-139.644 -198.221)" fill="#fff" opacity="0.8"/>
          <path id="Path_2133" data-name="Path 2133" d="M275.01,329.957l1.922-5.387V329.6l-1.922,4.765Z" transform="translate(-145.321 -195.621)" fill="#fff" opacity="0.75"/>
          <path id="Path_2134" data-name="Path 2134" d="M271.256,323.9l-9.138-1.1-2.128,5.381,9.344,1.107Z" transform="translate(-139.644 -194.952)" fill="#fff" opacity="0.9"/>
          <path id="Path_2135" data-name="Path 2135" d="M278.73,338.088v-4.4l9.343,1.1v4.4Z" transform="translate(-146.727 -199.068)" fill="#90caf9"/>
          <path id="Path_2136" data-name="Path 2136" d="M293.75,332.191l1.928-5.381v5.02L293.75,336.6Z" transform="translate(-152.403 -196.468)" fill="#90caf9"/>
          <path id="Path_2137" data-name="Path 2137" d="M290,326.141l-9.144-1.1-2.127,5.381,9.343,1.1Z" transform="translate(-146.727 -195.799)" fill="#90caf9"/>
          <path id="Path_2138" data-name="Path 2138" d="M278.73,338.088v-4.4l9.343,1.1v4.4Z" transform="translate(-146.727 -199.068)" fill="#fff" opacity="0.8"/>
          <path id="Path_2139" data-name="Path 2139" d="M293.75,332.191l1.928-5.381v5.02L293.75,336.6Z" transform="translate(-152.403 -196.468)" fill="#fff" opacity="0.75"/>
          <path id="Path_2140" data-name="Path 2140" d="M290,326.141l-9.144-1.1-2.127,5.381,9.343,1.1Z" transform="translate(-146.727 -195.799)" fill="#fff" opacity="0.9"/>
          <path id="Path_2141" data-name="Path 2141" d="M212.55,359.568v-4.4l9.344,1.1v4.4Z" transform="translate(-121.715 -207.186)" fill="#90caf9"/>
          <path id="Path_2142" data-name="Path 2142" d="M227.57,353.671l1.922-5.381v5.026l-1.922,4.759Z" transform="translate(-127.392 -204.585)" fill="#90caf9"/>
          <path id="Path_2143" data-name="Path 2143" d="M223.816,347.617l-9.138-1.107L212.55,351.9l9.344,1.1Z" transform="translate(-121.715 -203.913)" fill="#90caf9"/>
          <path id="Path_2144" data-name="Path 2144" d="M212.55,359.568v-4.4l9.344,1.1v4.4Z" transform="translate(-121.715 -207.186)" fill="#fff" opacity="0.8"/>
          <path id="Path_2145" data-name="Path 2145" d="M227.57,353.671l1.922-5.381v5.026l-1.922,4.759Z" transform="translate(-127.392 -204.585)" fill="#fff" opacity="0.75"/>
          <path id="Path_2146" data-name="Path 2146" d="M223.816,347.617l-9.138-1.107L212.55,351.9l9.344,1.1Z" transform="translate(-121.715 -203.913)" fill="#fff" opacity="0.9"/>
          <path id="Path_2147" data-name="Path 2147" d="M231.29,361.8v-4.4l9.344,1.107v4.4Z" transform="translate(-128.798 -208.028)" fill="#90caf9"/>
          <path id="Path_2148" data-name="Path 2148" d="M246.31,355.907l1.928-5.387v5.026l-1.928,4.759Z" transform="translate(-134.474 -205.428)" fill="#90caf9"/>
          <path id="Path_2149" data-name="Path 2149" d="M242.562,349.851l-9.144-1.1-2.127,5.381,9.344,1.107Z" transform="translate(-128.798 -204.759)" fill="#90caf9"/>
          <path id="Path_2150" data-name="Path 2150" d="M231.29,361.8v-4.4l9.344,1.107v4.4Z" transform="translate(-128.798 -208.028)" fill="#fff" opacity="0.8"/>
          <path id="Path_2151" data-name="Path 2151" d="M246.31,355.907l1.928-5.387v5.026l-1.928,4.759Z" transform="translate(-134.474 -205.428)" fill="#fff" opacity="0.75"/>
          <path id="Path_2152" data-name="Path 2152" d="M242.562,349.851l-9.144-1.1-2.127,5.381,9.344,1.107Z" transform="translate(-128.798 -204.759)" fill="#fff" opacity="0.9"/>
          <path id="Path_2153" data-name="Path 2153" d="M345.25,325.974v-4.4l9.337,1.107v4.4Z" transform="translate(-171.866 -194.487)" fill="#90caf9"/>
          <path id="Path_2154" data-name="Path 2154" d="M360.26,320.077l1.928-5.387v5.026l-1.928,4.759Z" transform="translate(-177.539 -191.887)" fill="#90caf9"/>
          <path id="Path_2155" data-name="Path 2155" d="M356.516,314.021l-9.144-1.1L345.25,318.3l9.337,1.107Z" transform="translate(-171.866 -191.218)" fill="#90caf9"/>
          <path id="Path_2156" data-name="Path 2156" d="M345.25,325.974v-4.4l9.337,1.107v4.4Z" transform="translate(-171.866 -194.487)" fill="#fff" opacity="0.8"/>
          <path id="Path_2157" data-name="Path 2157" d="M360.26,320.077l1.928-5.387v5.026l-1.928,4.759Z" transform="translate(-177.539 -191.887)" fill="#fff" opacity="0.75"/>
          <path id="Path_2158" data-name="Path 2158" d="M356.516,314.021l-9.144-1.1L345.25,318.3l9.337,1.107Z" transform="translate(-171.866 -191.218)" fill="#fff" opacity="0.9"/>
          <path id="Path_2159" data-name="Path 2159" d="M339.36,340.554v-4.4l9.337,1.107v4.4Z" transform="translate(-169.64 -199.997)" fill="#90caf9"/>
          <path id="Path_2160" data-name="Path 2160" d="M354.37,334.657l1.928-5.387V334.3l-1.928,4.765Z" transform="translate(-175.313 -197.397)" fill="#90caf9"/>
          <path id="Path_2161" data-name="Path 2161" d="M350.626,328.6l-9.144-1.1-2.121,5.381,9.337,1.107Z" transform="translate(-169.64 -196.728)" fill="#90caf9"/>
          <path id="Path_2162" data-name="Path 2162" d="M339.36,340.554v-4.4l9.337,1.107v4.4Z" transform="translate(-169.64 -199.997)" fill="#fff" opacity="0.8"/>
          <path id="Path_2163" data-name="Path 2163" d="M354.37,334.657l1.928-5.387V334.3l-1.928,4.765Z" transform="translate(-175.313 -197.397)" fill="#fff" opacity="0.75"/>
          <path id="Path_2164" data-name="Path 2164" d="M350.626,328.6l-9.144-1.1-2.121,5.381,9.337,1.107Z" transform="translate(-169.64 -196.728)" fill="#fff" opacity="0.9"/>
          <path id="Path_2165" data-name="Path 2165" d="M333.46,355.134v-4.4l9.344,1.107v4.4Z" transform="translate(-167.411 -205.508)" fill="#90caf9"/>
          <path id="Path_2166" data-name="Path 2166" d="M348.48,349.237l1.928-5.387v5.026l-1.928,4.765Z" transform="translate(-173.087 -202.907)" fill="#90caf9"/>
          <path id="Path_2167" data-name="Path 2167" d="M344.732,343.181l-9.144-1.1-2.127,5.381,9.344,1.107Z" transform="translate(-167.411 -202.239)" fill="#90caf9"/>
          <path id="Path_2168" data-name="Path 2168" d="M333.46,355.134v-4.4l9.344,1.107v4.4Z" transform="translate(-167.411 -205.508)" fill="#fff" opacity="0.8"/>
          <path id="Path_2169" data-name="Path 2169" d="M348.48,349.237l1.928-5.387v5.026l-1.928,4.765Z" transform="translate(-173.087 -202.907)" fill="#fff" opacity="0.75"/>
          <path id="Path_2170" data-name="Path 2170" d="M344.732,343.181l-9.144-1.1-2.127,5.381,9.344,1.107Z" transform="translate(-167.411 -202.239)" fill="#fff" opacity="0.9"/>
          <path id="Path_2171" data-name="Path 2171" d="M327.57,369.718v-4.4l9.343,1.1v4.4Z" transform="translate(-165.185 -211.022)" fill="#90caf9"/>
          <path id="Path_2172" data-name="Path 2172" d="M342.59,363.821l1.928-5.381v5.02l-1.928,4.765Z" transform="translate(-170.861 -208.421)" fill="#90caf9"/>
          <path id="Path_2173" data-name="Path 2173" d="M338.842,357.767,329.7,356.66l-2.127,5.387,9.343,1.1Z" transform="translate(-165.185 -207.749)" fill="#90caf9"/>
          <path id="Path_2174" data-name="Path 2174" d="M327.57,369.718v-4.4l9.343,1.1v4.4Z" transform="translate(-165.185 -211.022)" fill="#fff" opacity="0.8"/>
          <path id="Path_2175" data-name="Path 2175" d="M342.59,363.821l1.928-5.381v5.02l-1.928,4.765Z" transform="translate(-170.861 -208.421)" fill="#fff" opacity="0.75"/>
          <path id="Path_2176" data-name="Path 2176" d="M338.842,357.767,329.7,356.66l-2.127,5.387,9.343,1.1Z" transform="translate(-165.185 -207.749)" fill="#fff" opacity="0.9"/>
          <path id="Path_2177" data-name="Path 2177" d="M319.75,323.008v-4.4l9.344,1.1v4.4Z" transform="translate(-162.229 -193.369)" fill="#90caf9"/>
          <path id="Path_2178" data-name="Path 2178" d="M334.77,317.111l1.928-5.381v5.02l-1.928,4.765Z" transform="translate(-167.906 -190.768)" fill="#90caf9"/>
          <path id="Path_2179" data-name="Path 2179" d="M331.022,311.057l-9.144-1.107-2.128,5.387,9.344,1.1Z" transform="translate(-162.229 -190.096)" fill="#90caf9"/>
          <path id="Path_2180" data-name="Path 2180" d="M319.75,323.008v-4.4l9.344,1.1v4.4Z" transform="translate(-162.229 -193.369)" fill="#fff" opacity="0.8"/>
          <path id="Path_2181" data-name="Path 2181" d="M334.77,317.111l1.928-5.381v5.02l-1.928,4.765Z" transform="translate(-167.906 -190.768)" fill="#fff" opacity="0.75"/>
          <path id="Path_2182" data-name="Path 2182" d="M331.022,311.057l-9.144-1.107-2.128,5.387,9.344,1.1Z" transform="translate(-162.229 -190.096)" fill="#fff" opacity="0.9"/>
          <path id="Path_2183" data-name="Path 2183" d="M313.86,337.588v-4.4l9.344,1.1v4.4Z" transform="translate(-160.003 -198.879)" fill="#90caf9"/>
          <path id="Path_2184" data-name="Path 2184" d="M328.88,331.691l1.928-5.381v5.026L328.88,336.1Z" transform="translate(-165.68 -196.279)" fill="#90caf9"/>
          <path id="Path_2185" data-name="Path 2185" d="M325.132,325.641l-9.144-1.1-2.128,5.381,9.344,1.1Z" transform="translate(-160.003 -195.61)" fill="#90caf9"/>
          <path id="Path_2186" data-name="Path 2186" d="M313.86,337.588v-4.4l9.344,1.1v4.4Z" transform="translate(-160.003 -198.879)" fill="#fff" opacity="0.8"/>
          <path id="Path_2187" data-name="Path 2187" d="M328.88,331.691l1.928-5.381v5.026L328.88,336.1Z" transform="translate(-165.68 -196.279)" fill="#fff" opacity="0.75"/>
          <path id="Path_2188" data-name="Path 2188" d="M325.132,325.641l-9.144-1.1-2.128,5.381,9.344,1.1Z" transform="translate(-160.003 -195.61)" fill="#fff" opacity="0.9"/>
          <path id="Path_2189" data-name="Path 2189" d="M307.97,352.174v-4.4l9.344,1.107v4.4Z" transform="translate(-157.777 -204.389)" fill="#90caf9"/>
          <path id="Path_2190" data-name="Path 2190" d="M322.99,346.277l1.928-5.387v5.026l-1.928,4.759Z" transform="translate(-163.454 -201.789)" fill="#90caf9"/>
          <path id="Path_2191" data-name="Path 2191" d="M319.242,340.221l-9.144-1.1L307.97,344.5l9.344,1.107Z" transform="translate(-157.777 -201.12)" fill="#90caf9"/>
          <path id="Path_2192" data-name="Path 2192" d="M307.97,352.174v-4.4l9.344,1.107v4.4Z" transform="translate(-157.777 -204.389)" fill="#fff" opacity="0.8"/>
          <path id="Path_2193" data-name="Path 2193" d="M322.99,346.277l1.928-5.387v5.026l-1.928,4.759Z" transform="translate(-163.454 -201.789)" fill="#fff" opacity="0.75"/>
          <path id="Path_2194" data-name="Path 2194" d="M319.242,340.221l-9.144-1.1L307.97,344.5l9.344,1.107Z" transform="translate(-157.777 -201.12)" fill="#fff" opacity="0.9"/>
          <path id="Path_2195" data-name="Path 2195" d="M302.08,366.754v-4.4l9.344,1.107v4.4Z" transform="translate(-155.551 -209.899)" fill="#90caf9"/>
          <path id="Path_2196" data-name="Path 2196" d="M317.1,360.857l1.928-5.387V360.5l-1.928,4.759Z" transform="translate(-161.228 -207.299)" fill="#90caf9"/>
          <path id="Path_2197" data-name="Path 2197" d="M313.352,354.8l-9.144-1.1-2.128,5.381,9.344,1.107Z" transform="translate(-155.551 -206.63)" fill="#90caf9"/>
          <path id="Path_2198" data-name="Path 2198" d="M302.08,366.754v-4.4l9.344,1.107v4.4Z" transform="translate(-155.551 -209.899)" fill="#fff" opacity="0.8"/>
          <path id="Path_2199" data-name="Path 2199" d="M317.1,360.857l1.928-5.387V360.5l-1.928,4.759Z" transform="translate(-161.228 -207.299)" fill="#fff" opacity="0.75"/>
          <path id="Path_2200" data-name="Path 2200" d="M313.352,354.8l-9.144-1.1-2.128,5.381,9.344,1.107Z" transform="translate(-155.551 -206.63)" fill="#fff" opacity="0.9"/>
          <path id="Path_2201" data-name="Path 2201" d="M370.13,350.249V346.79l7.353.871v3.459Z" transform="translate(-181.269 -204.019)" fill="#90caf9"/>
          <path id="Path_2202" data-name="Path 2202" d="M381.95,345.616l1.512-4.236v3.95l-1.512,3.745Z" transform="translate(-185.736 -201.974)" fill="#90caf9"/>
          <path id="Path_2203" data-name="Path 2203" d="M378.995,340.851l-7.191-.871-1.673,4.236,7.353.871Z" transform="translate(-181.269 -201.445)" fill="#90caf9"/>
          <path id="Path_2204" data-name="Path 2204" d="M370.13,350.249V346.79l7.353.871v3.459Z" transform="translate(-181.269 -204.019)" fill="#fff" opacity="0.8"/>
          <path id="Path_2205" data-name="Path 2205" d="M381.95,345.616l1.512-4.236v3.95l-1.512,3.745Z" transform="translate(-185.736 -201.974)" fill="#fff" opacity="0.75"/>
          <path id="Path_2206" data-name="Path 2206" d="M378.995,340.851l-7.191-.871-1.673,4.236,7.353.871Z" transform="translate(-181.269 -201.445)" fill="#fff" opacity="0.9"/>
          <path id="Path_2207" data-name="Path 2207" d="M364.23,366.645V363.18l7.347.871v3.459Z" transform="translate(-179.04 -210.213)" fill="#90caf9"/>
          <path id="Path_2208" data-name="Path 2208" d="M376.04,362.006l1.518-4.236v3.95l-1.518,3.745Z" transform="translate(-183.503 -208.168)" fill="#90caf9"/>
          <path id="Path_2209" data-name="Path 2209" d="M373.095,357.241l-7.191-.871-1.673,4.236,7.347.871Z" transform="translate(-179.04 -207.639)" fill="#90caf9"/>
          <path id="Path_2210" data-name="Path 2210" d="M364.23,366.645V363.18l7.347.871v3.459Z" transform="translate(-179.04 -210.213)" fill="#fff" opacity="0.8"/>
          <path id="Path_2211" data-name="Path 2211" d="M376.04,362.006l1.518-4.236v3.95l-1.518,3.745Z" transform="translate(-183.503 -208.168)" fill="#fff" opacity="0.75"/>
          <path id="Path_2212" data-name="Path 2212" d="M373.095,357.241l-7.191-.871-1.673,4.236,7.347.871Z" transform="translate(-179.04 -207.639)" fill="#fff" opacity="0.9"/>
          <path id="Path_2213" data-name="Path 2213" d="M237.38,325.577v-16.5l11.583,1.369V326.94Z" transform="translate(-131.099 -189.767)" fill="#90caf9"/>
          <path id="Path_2214" data-name="Path 2214" d="M237.38,325.577v-16.5l11.583,1.369V326.94Z" transform="translate(-131.099 -189.767)" fill="#fff" opacity="0.8"/>
          <path id="Path_2215" data-name="Path 2215" d="M256,308.835l1.5-4.025v17.318l-1.5,3.2Z" transform="translate(-138.136 -188.153)" fill="#90caf9"/>
          <path id="Path_2216" data-name="Path 2216" d="M256,308.835l1.5-4.025v17.318l-1.5,3.2Z" transform="translate(-138.136 -188.153)" fill="#fff" opacity="0.75"/>
          <path id="Path_2217" data-name="Path 2217" d="M250.462,303.986l-11.315-1.356-1.767,4.012,11.583,1.369Z" transform="translate(-131.099 -187.329)" fill="#90caf9"/>
          <path id="Path_2218" data-name="Path 2218" d="M250.462,303.986l-11.315-1.356-1.767,4.012,11.583,1.369Z" transform="translate(-131.099 -187.329)" fill="#fff" opacity="0.9"/>
          <path id="Path_2219" data-name="Path 2219" d="M143.26,234.618V215.11l6.675.746v19.5Z" transform="translate(-95.529 -154.253)" fill="#90caf9"/>
          <path id="Path_2220" data-name="Path 2220" d="M143.26,234.618V215.11l6.675.746v19.5Z" transform="translate(-95.529 -154.253)" fill="#fff" opacity="0.8"/>
          <path id="Path_2221" data-name="Path 2221" d="M153.99,213.865l1.5-4.025v20.329l-1.5,3.2Z" transform="translate(-99.584 -152.261)" fill="#90caf9"/>
          <path id="Path_2222" data-name="Path 2222" d="M153.99,213.865l1.5-4.025v20.329l-1.5,3.2Z" transform="translate(-99.584 -152.261)" fill="#fff" opacity="0.75"/>
          <path id="Path_2223" data-name="Path 2223" d="M151.434,209.394l-6.407-.734-1.767,4.012,6.675.746Z" transform="translate(-95.529 -151.815)" fill="#90caf9"/>
          <path id="Path_2224" data-name="Path 2224" d="M151.434,209.394l-6.407-.734-1.767,4.012,6.675.746Z" transform="translate(-95.529 -151.815)" fill="#fff" opacity="0.9"/>
          <path id="Path_2225" data-name="Path 2225" d="M155.19,234.92v-17.2l3.533.379v17.206Z" transform="translate(-100.037 -155.239)" fill="#90caf9"/>
          <path id="Path_2226" data-name="Path 2226" d="M155.19,234.92v-17.2l3.533.379v17.206Z" transform="translate(-100.037 -155.239)" fill="#fff" opacity="0.8"/>
          <path id="Path_2227" data-name="Path 2227" d="M160.87,217.26l.554-1.76v17.9l-.554,1.064Z" transform="translate(-102.184 -154.4)" fill="#90caf9"/>
          <path id="Path_2228" data-name="Path 2228" d="M160.87,217.26l.554-1.76v17.9l-.554,1.064Z" transform="translate(-102.184 -154.4)" fill="#fff" opacity="0.75"/>
          <path id="Path_2229" data-name="Path 2229" d="M159.277,215.269l-3.309-.379-.778,1.76,3.533.379Z" transform="translate(-100.037 -154.17)" fill="#90caf9"/>
          <path id="Path_2230" data-name="Path 2230" d="M159.277,215.269l-3.309-.379-.778,1.76,3.533.379Z" transform="translate(-100.037 -154.17)" fill="#fff" opacity="0.9"/>
          <path id="Path_2231" data-name="Path 2231" d="M215.12,322.927v-16.5l11.583,1.362v16.5Z" transform="translate(-122.687 -188.765)" fill="#90caf9"/>
          <path id="Path_2232" data-name="Path 2232" d="M215.12,322.927v-16.5l11.583,1.362v16.5Z" transform="translate(-122.687 -188.765)" fill="#fff" opacity="0.8"/>
          <path id="Path_2233" data-name="Path 2233" d="M233.74,306.179l1.505-4.019v17.318l-1.505,3.2Z" transform="translate(-129.724 -187.152)" fill="#90caf9"/>
          <path id="Path_2234" data-name="Path 2234" d="M233.74,306.179l1.505-4.019v17.318l-1.505,3.2Z" transform="translate(-129.724 -187.152)" fill="#fff" opacity="0.75"/>
          <path id="Path_2235" data-name="Path 2235" d="M228.208,301.336l-11.315-1.356-1.773,4.012,11.583,1.362Z" transform="translate(-122.687 -186.328)" fill="#90caf9"/>
          <path id="Path_2236" data-name="Path 2236" d="M228.208,301.336l-11.315-1.356-1.773,4.012,11.583,1.362Z" transform="translate(-122.687 -186.328)" fill="#fff" opacity="0.9"/>
          <path id="Path_2237" data-name="Path 2237" d="M166.21,246.459V241.52l10.469,1.238V247.7Z" transform="translate(-104.202 -164.234)" fill="#90caf9"/>
          <path id="Path_2238" data-name="Path 2238" d="M183.04,239.844l2.165-6.034v5.636l-2.165,5.337Z" transform="translate(-110.563 -161.32)" fill="#90caf9"/>
          <path id="Path_2239" data-name="Path 2239" d="M178.844,233.058l-10.252-1.238-2.383,6.034,10.469,1.238Z" transform="translate(-104.202 -160.568)" fill="#90caf9"/>
          <path id="Path_2240" data-name="Path 2240" d="M166.21,246.459V241.52l10.469,1.238V247.7Z" transform="translate(-104.202 -164.234)" fill="#fff" opacity="0.8"/>
          <path id="Path_2241" data-name="Path 2241" d="M183.04,239.844l2.165-6.034v5.636l-2.165,5.337Z" transform="translate(-110.563 -161.32)" fill="#fff" opacity="0.75"/>
          <path id="Path_2242" data-name="Path 2242" d="M178.844,233.058l-10.252-1.238-2.383,6.034,10.469,1.238Z" transform="translate(-104.202 -160.568)" fill="#fff" opacity="0.9"/>
          <path id="Path_2243" data-name="Path 2243" d="M143.311,304.12l-7.5,4.33L129.8,305l7.888-4.554Z" transform="translate(-90.442 -186.505)" fill="#90caf9"/>
          <path id="Path_2244" data-name="Path 2244" d="M143.311,304.12l-7.5,4.33L129.8,305l7.888-4.554Z" transform="translate(-90.442 -186.505)" fill="#fff" opacity="0.9"/>
          <path id="Path_2245" data-name="Path 2245" d="M129.8,311.341V307.77l6.009,3.446v3.589Z" transform="translate(-90.442 -189.272)" fill="#90caf9"/>
          <path id="Path_2246" data-name="Path 2246" d="M129.8,311.341V307.77l6.009,3.446v3.589Z" transform="translate(-90.442 -189.272)" fill="#fff" opacity="0.8"/>
          <path id="Path_2247" data-name="Path 2247" d="M146.962,306.35v3.589l-7.5,4.33V310.68Z" transform="translate(-94.092 -188.735)" fill="#90caf9"/>
          <path id="Path_2248" data-name="Path 2248" d="M146.962,306.35v3.589l-7.5,4.33V310.68Z" transform="translate(-94.092 -188.735)" fill="#fff" opacity="0.75"/>
          <path id="Path_2249" data-name="Path 2249" d="M156.8,312.074l-7.5,4.33-6-3.446,7.888-4.547Z" transform="translate(-95.54 -189.514)" fill="#90caf9"/>
          <path id="Path_2250" data-name="Path 2250" d="M156.8,312.074l-7.5,4.33-6-3.446,7.888-4.547Z" transform="translate(-95.54 -189.514)" fill="#fff" opacity="0.9"/>
          <path id="Path_2251" data-name="Path 2251" d="M143.29,319.291V315.72l6,3.446v3.589Z" transform="translate(-95.54 -192.276)" fill="#90caf9"/>
          <path id="Path_2252" data-name="Path 2252" d="M143.29,319.291V315.72l6,3.446v3.589Z" transform="translate(-95.54 -192.276)" fill="#fff" opacity="0.8"/>
          <path id="Path_2253" data-name="Path 2253" d="M160.442,314.3v3.589l-7.5,4.33V318.63Z" transform="translate(-99.187 -191.74)" fill="#90caf9"/>
          <path id="Path_2254" data-name="Path 2254" d="M160.442,314.3v3.589l-7.5,4.33V318.63Z" transform="translate(-99.187 -191.74)" fill="#fff" opacity="0.75"/>
          <path id="Path_2255" data-name="Path 2255" d="M170.551,319.95l-7.5,4.323-6.009-3.44,7.888-4.554Z" transform="translate(-100.736 -192.488)" fill="#90caf9"/>
          <path id="Path_2256" data-name="Path 2256" d="M170.551,319.95l-7.5,4.323-6.009-3.44,7.888-4.554Z" transform="translate(-100.736 -192.488)" fill="#fff" opacity="0.9"/>
          <path id="Path_2257" data-name="Path 2257" d="M157.04,327.164V323.6l6.009,3.44v3.6Z" transform="translate(-100.736 -195.254)" fill="#90caf9"/>
          <path id="Path_2258" data-name="Path 2258" d="M157.04,327.164V323.6l6.009,3.44v3.6Z" transform="translate(-100.736 -195.254)" fill="#fff" opacity="0.8"/>
          <path id="Path_2259" data-name="Path 2259" d="M174.2,322.18v3.589l-7.5,4.33v-3.6Z" transform="translate(-104.387 -194.718)" fill="#90caf9"/>
          <path id="Path_2260" data-name="Path 2260" d="M174.2,322.18v3.589l-7.5,4.33v-3.6Z" transform="translate(-104.387 -194.718)" fill="#fff" opacity="0.75"/>
          <path id="Path_2261" data-name="Path 2261" d="M190.071,323.5l-7.5,4.33-6.009-3.446,7.888-4.547Z" transform="translate(-108.114 -193.833)" fill="#90caf9"/>
          <path id="Path_2262" data-name="Path 2262" d="M190.071,323.5l-7.5,4.33-6.009-3.446,7.888-4.547Z" transform="translate(-108.114 -193.833)" fill="#fff" opacity="0.9"/>
          <path id="Path_2263" data-name="Path 2263" d="M176.56,335.741V327.15l6.009,3.446v8.616Z" transform="translate(-108.114 -196.596)" fill="#90caf9"/>
          <path id="Path_2264" data-name="Path 2264" d="M176.56,335.741V327.15l6.009,3.446v8.616Z" transform="translate(-108.114 -196.596)" fill="#fff" opacity="0.8"/>
          <path id="Path_2265" data-name="Path 2265" d="M193.722,325.73v8.609l-7.5,4.336V330.06Z" transform="translate(-111.764 -196.059)" fill="#90caf9"/>
          <path id="Path_2266" data-name="Path 2266" d="M193.722,325.73v8.609l-7.5,4.336V330.06Z" transform="translate(-111.764 -196.059)" fill="#fff" opacity="0.75"/>
          <path id="Path_2267" data-name="Path 2267" d="M117.58,291.034l-8.13,3.042-6.009-3.44,8.522-3.266Z" transform="translate(-80.479 -181.562)" fill="#90caf9"/>
          <path id="Path_2268" data-name="Path 2268" d="M117.58,291.034l-8.13,3.042-6.009-3.44,8.522-3.266Z" transform="translate(-80.479 -181.562)" fill="#fff" opacity="0.9"/>
          <path id="Path_2269" data-name="Path 2269" d="M103.44,296.184V292.62l6.009,3.44v3.6Z" transform="translate(-80.479 -183.546)" fill="#90caf9"/>
          <path id="Path_2270" data-name="Path 2270" d="M103.44,296.184V292.62l6.009,3.44v3.6Z" transform="translate(-80.479 -183.546)" fill="#fff" opacity="0.8"/>
          <path id="Path_2271" data-name="Path 2271" d="M121.23,293.26v3.589L113.1,299.9v-3.6Z" transform="translate(-84.13 -183.788)" fill="#90caf9"/>
          <path id="Path_2272" data-name="Path 2272" d="M121.23,293.26v3.589L113.1,299.9v-3.6Z" transform="translate(-84.13 -183.788)" fill="#fff" opacity="0.75"/>
          <path id="Path_2273" data-name="Path 2273" d="M138.536,283.034l-8.137,3.048-6.009-3.446,8.522-3.266Z" transform="translate(-88.397 -178.539)" fill="#90caf9"/>
          <path id="Path_2274" data-name="Path 2274" d="M138.536,283.034l-8.137,3.048-6.009-3.446,8.522-3.266Z" transform="translate(-88.397 -178.539)" fill="#fff" opacity="0.9"/>
          <path id="Path_2275" data-name="Path 2275" d="M124.39,288.191V284.62l6.009,3.446v3.589Z" transform="translate(-88.397 -180.523)" fill="#90caf9"/>
          <path id="Path_2276" data-name="Path 2276" d="M124.39,288.191V284.62l6.009,3.446v3.589Z" transform="translate(-88.397 -180.523)" fill="#fff" opacity="0.8"/>
          <path id="Path_2277" data-name="Path 2277" d="M142.187,285.26v3.6L134.05,291.9v-3.589Z" transform="translate(-92.048 -180.765)" fill="#90caf9"/>
          <path id="Path_2278" data-name="Path 2278" d="M142.187,285.26v3.6L134.05,291.9v-3.589Z" transform="translate(-92.048 -180.765)" fill="#fff" opacity="0.75"/>
          <path id="Path_2279" data-name="Path 2279" d="M226.48,253.4v-5.2l15.2,1.792v5.2Z" transform="translate(-126.98 -166.759)" fill="#90caf9"/>
          <path id="Path_2280" data-name="Path 2280" d="M226.48,253.4v-5.2l15.2,1.792v5.2Z" transform="translate(-126.98 -166.759)" fill="#fff" opacity="0.75"/>
          <path id="Path_2281" data-name="Path 2281" d="M250.92,245.619l3.21-8.989v6.246l-3.21,7.944Z" transform="translate(-136.216 -162.386)" fill="#90caf9"/>
          <path id="Path_2282" data-name="Path 2282" d="M250.92,245.619l3.21-8.989v6.246l-3.21,7.944Z" transform="translate(-136.216 -162.386)" fill="#fff" opacity="0.65"/>
          <path id="Path_2283" data-name="Path 2283" d="M244.893,235.542l-14.867-1.792-3.546,8.989,15.2,1.792Z" transform="translate(-126.98 -161.297)" fill="#90caf9"/>
          <path id="Path_2284" data-name="Path 2284" d="M244.893,235.542l-14.867-1.792-3.546,8.989,15.2,1.792Z" transform="translate(-126.98 -161.297)" fill="#fff" opacity="0.9"/>
          <path id="Path_2285" data-name="Path 2285" d="M229.62,230.708V205.34l11.906,1.4v25.368Z" transform="translate(-128.166 -150.56)" fill="#90caf9"/>
          <path id="Path_2286" data-name="Path 2286" d="M229.62,230.708V205.34l11.906,1.4v25.368Z" transform="translate(-128.166 -150.56)" fill="#fff" opacity="0.75"/>
          <path id="Path_2287" data-name="Path 2287" d="M248.76,203.168l2.6-7.278V222.1l-2.6,6.438Z" transform="translate(-135.4 -146.989)" fill="#90caf9"/>
          <path id="Path_2288" data-name="Path 2288" d="M248.76,203.168l2.6-7.278V222.1l-2.6,6.438Z" transform="translate(-135.4 -146.989)" fill="#fff" opacity="0.65"/>
          <path id="Path_2289" data-name="Path 2289" d="M244.127,195.04l-11.633-1.4-2.874,7.278,11.906,1.4Z" transform="translate(-128.166 -146.139)" fill="#90caf9"/>
          <path id="Path_2290" data-name="Path 2290" d="M244.127,195.04l-11.633-1.4-2.874,7.278,11.906,1.4Z" transform="translate(-128.166 -146.139)" fill="#fff" opacity="0.9"/>
          <path id="Path_2291" data-name="Path 2291" d="M235.59,194.309V180.48l6.494.765v13.829Z" transform="translate(-130.423 -141.165)" fill="#90caf9"/>
          <path id="Path_2292" data-name="Path 2292" d="M235.59,194.309V180.48l6.494.765v13.829Z" transform="translate(-130.423 -141.165)" fill="#fff" opacity="0.75"/>
          <path id="Path_2293" data-name="Path 2293" d="M246.03,179.3l1.418-3.969v14.289l-1.418,3.508Z" transform="translate(-134.368 -139.219)" fill="#90caf9"/>
          <path id="Path_2294" data-name="Path 2294" d="M246.03,179.3l1.418-3.969v14.289l-1.418,3.508Z" transform="translate(-134.368 -139.219)" fill="#fff" opacity="0.65"/>
          <path id="Path_2295" data-name="Path 2295" d="M243.5,174.865l-6.351-.765-1.561,3.969,6.494.765Z" transform="translate(-130.423 -138.754)" fill="#90caf9"/>
          <path id="Path_2296" data-name="Path 2296" d="M243.5,174.865l-6.351-.765-1.561,3.969,6.494.765Z" transform="translate(-130.423 -138.754)" fill="#fff" opacity="0.9"/>
          <path id="Path_2297" data-name="Path 2297" d="M346.28,290.934V250.96l11.913,1.4v39.974Z" transform="translate(-172.256 -167.802)" fill="#90caf9"/>
          <path id="Path_2298" data-name="Path 2298" d="M346.28,290.934V250.96l11.913,1.4v39.974Z" transform="translate(-172.256 -167.802)" fill="#fff" opacity="0.75"/>
          <path id="Path_2299" data-name="Path 2299" d="M365.43,250.115l1.742-5.095v40.814l-1.742,4.255Z" transform="translate(-179.493 -165.557)" fill="#90caf9"/>
          <path id="Path_2300" data-name="Path 2300" d="M365.43,250.115l1.742-5.095v40.814l-1.742,4.255Z" transform="translate(-179.493 -165.557)" fill="#fff" opacity="0.65"/>
          <path id="Path_2301" data-name="Path 2301" d="M359.935,244.17l-11.639-1.4-2.015,5.095,11.913,1.4Z" transform="translate(-172.256 -164.706)" fill="#90caf9"/>
          <path id="Path_2302" data-name="Path 2302" d="M359.935,244.17l-11.639-1.4-2.015,5.095,11.913,1.4Z" transform="translate(-172.256 -164.706)" fill="#fff" opacity="0.9"/>
          <path id="Path_2303" data-name="Path 2303" d="M377.26,313.233V276.22l10.382,1.151V314.39Z" transform="translate(-183.964 -177.348)" fill="#90caf9"/>
          <path id="Path_2304" data-name="Path 2304" d="M377.26,313.233V276.22l10.382,1.151V314.39Z" transform="translate(-183.964 -177.348)" fill="#fff" opacity="0.75"/>
          <path id="Path_2305" data-name="Path 2305" d="M393.95,274.272l2.339-6.252v38.295l-2.339,4.977Z" transform="translate(-190.272 -174.249)" fill="#90caf9"/>
          <path id="Path_2306" data-name="Path 2306" d="M393.95,274.272l2.339-6.252v38.295l-2.339,4.977Z" transform="translate(-190.272 -174.249)" fill="#fff" opacity="0.65"/>
          <path id="Path_2307" data-name="Path 2307" d="M389.981,267.321l-9.972-1.151-2.75,6.252,10.382,1.151Z" transform="translate(-183.964 -173.55)" fill="#90caf9"/>
          <path id="Path_2308" data-name="Path 2308" d="M389.981,267.321l-9.972-1.151-2.75,6.252,10.382,1.151Z" transform="translate(-183.964 -173.55)" fill="#fff" opacity="0.9"/>
          <path id="Path_2309" data-name="Path 2309" d="M395.83,313.71V280.28l5.5.591V314.3Z" transform="translate(-190.982 -178.883)" fill="#90caf9"/>
          <path id="Path_2310" data-name="Path 2310" d="M395.83,313.71V280.28l5.5.591V314.3Z" transform="translate(-190.982 -178.883)" fill="#fff" opacity="0.75"/>
          <path id="Path_2311" data-name="Path 2311" d="M404.67,279.563l.852-2.743v34.531l-.852,1.642Z" transform="translate(-194.323 -177.575)" fill="#90caf9"/>
          <path id="Path_2312" data-name="Path 2312" d="M404.67,279.563l.852-2.743v34.531l-.852,1.642Z" transform="translate(-194.323 -177.575)" fill="#fff" opacity="0.65"/>
          <path id="Path_2313" data-name="Path 2313" d="M402.181,276.465l-5.145-.585-1.207,2.737,5.5.591Z" transform="translate(-190.982 -177.22)" fill="#90caf9"/>
          <path id="Path_2314" data-name="Path 2314" d="M402.181,276.465l-5.145-.585-1.207,2.737,5.5.591Z" transform="translate(-190.982 -177.22)" fill="#fff" opacity="0.9"/>
          <path id="Path_2315" data-name="Path 2315" d="M66.53,270.17,81.7,278.923v4.759L66.53,274.929Z" transform="translate(-66.53 -175.062)" fill="#90caf9"/>
          <path id="Path_2316" data-name="Path 2316" d="M66.53,270.17,81.7,278.923v4.759L66.53,274.929Z" transform="translate(-66.53 -175.062)" opacity="0.35"/>
          <path id="Path_2317" data-name="Path 2317" d="M106.07,274.929V270.17l-15.16,8.753v4.759" transform="translate(-75.744 -175.062)" fill="#90caf9"/>
          <path id="Path_2318" data-name="Path 2318" d="M106.07,270.17l-15.16,8.753v4.759l15.16-8.753Z" transform="translate(-75.744 -175.062)" opacity="0.15"/>
          <path id="Path_2319" data-name="Path 2319" d="M96.856,264.853,81.7,256.1,66.53,264.853,81.7,273.605Z" transform="translate(-66.53 -169.744)" fill="#90caf9"/>
          <path id="Path_2320" data-name="Path 2320" d="M96.856,264.853,81.7,256.1,66.53,264.853,81.7,273.605Z" transform="translate(-66.53 -169.744)" opacity="0.5"/>
          <path id="Path_2321" data-name="Path 2321" d="M66.53,268.106,81.7,276.858V275.4L66.53,266.65Z" transform="translate(-66.53 -173.731)" fill="#90caf9"/>
          <path id="Path_2322" data-name="Path 2322" d="M66.53,268.106,81.7,276.858V275.4L66.53,266.65Z" transform="translate(-66.53 -173.731)" opacity="0.35"/>
          <path id="Path_2323" data-name="Path 2323" d="M90.91,276.858l15.16-8.753V266.65L90.91,275.4Z" transform="translate(-75.744 -173.731)" fill="#90caf9"/>
          <path id="Path_2324" data-name="Path 2324" d="M90.91,276.858l15.16-8.753V266.65L90.91,275.4Z" transform="translate(-75.744 -173.731)" opacity="0.15"/>
          <path id="Path_2325" data-name="Path 2325" d="M96.856,261.333,81.7,252.58,66.53,261.333,81.7,270.085Z" transform="translate(-66.53 -168.414)" fill="#90caf9"/>
          <path id="Path_2326" data-name="Path 2326" d="M96.856,261.333,81.7,252.58,66.53,261.333,81.7,270.085Z" transform="translate(-66.53 -168.414)" opacity="0.5"/>
          <path id="Path_2327" data-name="Path 2327" d="M66.53,264.326,81.7,273.078v-1.456L66.53,262.87Z" transform="translate(-66.53 -172.303)" fill="#90caf9"/>
          <path id="Path_2328" data-name="Path 2328" d="M66.53,264.326,81.7,273.078v-1.456L66.53,262.87Z" transform="translate(-66.53 -172.303)" opacity="0.35"/>
          <path id="Path_2329" data-name="Path 2329" d="M90.91,273.078l15.16-8.753V262.87l-15.16,8.753Z" transform="translate(-75.744 -172.303)" fill="#90caf9"/>
          <path id="Path_2330" data-name="Path 2330" d="M90.91,273.078l15.16-8.753V262.87l-15.16,8.753Z" transform="translate(-75.744 -172.303)" opacity="0.15"/>
          <path id="Path_2331" data-name="Path 2331" d="M96.856,257.553,81.7,248.8,66.53,257.553,81.7,266.305Z" transform="translate(-66.53 -166.985)" fill="#90caf9"/>
          <path id="Path_2332" data-name="Path 2332" d="M96.856,257.553,81.7,248.8,66.53,257.553,81.7,266.305Z" transform="translate(-66.53 -166.985)" opacity="0.5"/>
          <path id="Path_2333" data-name="Path 2333" d="M83.234,247.543V210.791L70.6,203.5v36.746Z" transform="translate(-68.068 -149.865)" fill="#90caf9"/>
          <path id="Path_2334" data-name="Path 2334" d="M90.91,210.791l12.634-7.291v36.746l-12.634,7.3Z" transform="translate(-75.744 -149.865)" fill="#90caf9"/>
          <path id="Path_2335" data-name="Path 2335" d="M95.869,199.067l-12.634-7.3-12.634,7.3,12.634,7.291Z" transform="translate(-68.068 -145.432)" fill="#90caf9"/>
          <path id="Path_2336" data-name="Path 2336" d="M95.869,199.067l-12.634-7.3-12.634,7.3,12.634,7.291Z" transform="translate(-68.068 -145.432)" opacity="0.4"/>
          <path id="Path_2337" data-name="Path 2337" d="M83.234,247.543V210.791L70.6,203.5v36.746Z" transform="translate(-68.068 -149.865)" opacity="0.2"/>
          <path id="Path_2338" data-name="Path 2338" d="M84.769,190.446V159.492L74.66,153.52v31.091Z" transform="translate(-69.603 -130.976)" fill="#90caf9"/>
          <path id="Path_2339" data-name="Path 2339" d="M90.91,190.446V159.492l10.1-5.972v31.091Z" transform="translate(-75.744 -130.976)" fill="#90caf9"/>
          <path id="Path_2340" data-name="Path 2340" d="M94.871,150.017l-10.1-5.767L74.66,150.017l10.109,5.972Z" transform="translate(-69.603 -127.473)" fill="#90caf9"/>
          <path id="Path_2341" data-name="Path 2341" d="M94.871,150.017l-10.1-5.767L74.66,150.017l10.109,5.972Z" transform="translate(-69.603 -127.473)" opacity="0.4"/>
          <path id="Path_2342" data-name="Path 2342" d="M84.769,190.446V159.492L74.66,153.52v31.091Z" transform="translate(-69.603 -130.976)" opacity="0.2"/>
          <path id="Path_2343" data-name="Path 2343" d="M90.91,154.615v-4.373l6.314-3.652v4.379Z" transform="translate(-75.744 -128.357)" fill="#90caf9"/>
          <path id="Path_2344" data-name="Path 2344" d="M80.75,150.969V146.59l6.32,3.652v4.373Z" transform="translate(-71.904 -128.357)" fill="#90caf9"/>
          <path id="Path_2345" data-name="Path 2345" d="M80.75,150.969V146.59l6.32,3.652v4.373Z" transform="translate(-71.904 -128.357)" opacity="0.2"/>
          <path id="Path_2346" data-name="Path 2346" d="M93.384,144.375,87.07,140.73l-6.32,3.645,6.32,3.652Z" transform="translate(-71.904 -126.142)" fill="#90caf9"/>
          <path id="Path_2347" data-name="Path 2347" d="M93.384,144.375,87.07,140.73l-6.32,3.645,6.32,3.652Z" transform="translate(-71.904 -126.142)" opacity="0.4"/>
          <path id="Path_2348" data-name="Path 2348" d="M90.91,137.7V117.28L94.7,135.513Z" transform="translate(-75.744 -117.28)" fill="#90caf9"/>
          <path id="Path_2349" data-name="Path 2349" d="M90.91,137.7V117.28L94.7,135.513Z" transform="translate(-75.744 -117.28)" opacity="0.1"/>
          <path id="Path_2350" data-name="Path 2350" d="M84.74,135.513l3.838-18.233V137.7Z" transform="translate(-73.412 -117.28)" fill="#90caf9"/>
          <path id="Path_2351" data-name="Path 2351" d="M84.74,135.513l3.838-18.233V137.7Z" transform="translate(-73.412 -117.28)" opacity="0.25"/>
        </g>
      </g>
    </g>
    <g id="freepik--Locators--inject-134" transform="translate(47.383 28.149)">
      <g id="freepik--Pin--inject-134">
        <path id="Path_2353" data-name="Path 2353" d="M70.524,55.62V53.754a23.284,23.284,0,0,1,1.182-7.036h0c1.922-5.941,5.972-11.626,10.656-14.308,2.98-1.723,5.7-1.935,7.782-.9l-4.1-2.358a6.065,6.065,0,0,0-3.409-1,4.473,4.473,0,0,0-.572.031,4.63,4.63,0,0,0-.622.068,5.008,5.008,0,0,0-.622.112,6.185,6.185,0,0,0-.622.168A10.469,10.469,0,0,0,78.909,29c-.218.093-.435.205-.659.311s-.448.236-.666.361c-6.5,3.757-11.794,13.312-11.794,21.4v1.866c0,8.043,10.818,16.8,10.818,16.8l4.355,2.488a1.864,1.864,0,0,1-.218-.168C77.541,69,70.524,61.81,70.524,55.62ZM83.438,38.706a4.9,4.9,0,0,1,.075.622c0,.075,0,.143,0,.218a3.556,3.556,0,0,1,0,.367A13.063,13.063,0,0,1,77.6,50.159l-.355.193c-.118.062-.236.112-.348.162l-.342.143h-.037c.51,2.886,2.911,3.894,5.823,2.227a13.056,13.056,0,0,0,5.91-10.252C88.272,39.291,86.188,37.7,83.438,38.706Z" transform="translate(-65.79 -28.149)" fill="#90caf9"/>
        <path id="Path_2354" data-name="Path 2354" d="M70.524,55.62V53.754a23.284,23.284,0,0,1,1.182-7.036h0c1.922-5.941,5.972-11.626,10.656-14.308,2.98-1.723,5.7-1.935,7.782-.9l-4.1-2.358a6.065,6.065,0,0,0-3.409-1,4.473,4.473,0,0,0-.572.031,4.63,4.63,0,0,0-.622.068,5.008,5.008,0,0,0-.622.112,6.185,6.185,0,0,0-.622.168A10.469,10.469,0,0,0,78.909,29c-.218.093-.435.205-.659.311s-.448.236-.666.361c-6.5,3.757-11.794,13.312-11.794,21.4v1.866c0,8.043,10.818,16.8,10.818,16.8l4.355,2.488a1.864,1.864,0,0,1-.218-.168C77.541,69,70.524,61.81,70.524,55.62Z" transform="translate(-65.79 -28.149)" opacity="0.3"/>
        <path id="Path_2355" data-name="Path 2355" d="M89.954,44.94a4.9,4.9,0,0,1,.075.622c0,.075,0,.143,0,.218a3.556,3.556,0,0,1,0,.367,13.063,13.063,0,0,1-5.916,10.246l-.355.193c-.118.062-.236.112-.348.162l-.342.143H83.03c.51,2.886,2.911,3.894,5.823,2.227a13.056,13.056,0,0,0,5.91-10.252C94.787,45.524,92.7,43.938,89.954,44.94Z" transform="translate(-72.305 -34.383)" opacity="0.5"/>
        <path id="Path_2356" data-name="Path 2356" d="M97.079,41.774c0-8.043-5.294-11.508-11.819-7.732S73.44,47.391,73.44,55.435V57.3c0,6.221,7.017,13.381,10.246,16.36a1.593,1.593,0,0,0,2.488-.473c2.787-5.7,10.9-22.892,10.9-29.555ZM85.259,54.533c-3.266,1.866-5.916.361-5.916-3.415a12.973,12.973,0,0,1,5.9-10.214c3.266-1.866,5.916-.361,5.916,3.415a13.014,13.014,0,0,1-5.916,10.214Z" transform="translate(-68.681 -29.799)" fill="#90caf9"/>
        <path id="Path_2357" data-name="Path 2357" d="M97.079,41.774c0-8.043-5.294-11.508-11.819-7.732S73.44,47.391,73.44,55.435V57.3c0,6.221,7.017,13.381,10.246,16.36a1.593,1.593,0,0,0,2.488-.473c2.787-5.7,10.9-22.892,10.9-29.555ZM85.259,54.533c-3.266,1.866-5.916.361-5.916-3.415a12.973,12.973,0,0,1,5.9-10.214c3.266-1.866,5.916-.361,5.916,3.415a13.014,13.014,0,0,1-5.916,10.214Z" transform="translate(-68.681 -29.799)" fill="#90caf9"/>
      </g>
      <g id="freepik--pin--inject-134-2" data-name="freepik--pin--inject-134" transform="translate(104.887 69.025)">
        <path id="Path_2358" data-name="Path 2358" d="M235.98,148.155v-.622a7.627,7.627,0,0,1,.392-2.314h0a8.641,8.641,0,0,1,3.5-4.709,2.675,2.675,0,0,1,2.557-.3l-1.35-.778a1.984,1.984,0,0,0-1.113-.323h-.411a1.19,1.19,0,0,0-.205.037l-.2.05a2.941,2.941,0,0,0-.423.162l-.218.1-.224.118a8.847,8.847,0,0,0-3.888,7.029v.622c0,2.644,3.558,5.518,3.558,5.518l1.437.815-.068-.056C238.288,152.547,235.98,150.189,235.98,148.155Zm4.249-5.561q.005.1,0,.205v.068a.834.834,0,0,1,0,.124,4.3,4.3,0,0,1-1.947,3.365l-.112.062-.118.056-.112.044h0c.162.946.952,1.275,1.91.728a4.3,4.3,0,0,0,1.941-3.365C241.815,142.774,241.131,142.264,240.229,142.593Z" transform="translate(-234.4 -139.11)" fill="#90caf9"/>
        <path id="Path_2359" data-name="Path 2359" d="M235.98,148.155v-.622a7.627,7.627,0,0,1,.392-2.314h0a8.641,8.641,0,0,1,3.5-4.709,2.675,2.675,0,0,1,2.557-.3l-1.35-.778a1.984,1.984,0,0,0-1.113-.323h-.411a1.19,1.19,0,0,0-.205.037l-.2.05a2.941,2.941,0,0,0-.423.162l-.218.1-.224.118a8.847,8.847,0,0,0-3.888,7.029v.622c0,2.644,3.558,5.518,3.558,5.518l1.437.815-.068-.056C238.288,152.547,235.98,150.189,235.98,148.155Z" transform="translate(-234.4 -139.11)" fill="#fff" opacity="0.6"/>
        <path id="Path_2360" data-name="Path 2360" d="M242.349,144.65q.005.1,0,.205v.193a4.292,4.292,0,0,1-1.941,3.365l-.118.062-.112.056-.118.044h0c.168.946.958,1.275,1.91.728a4.292,4.292,0,0,0,1.941-3.365C243.936,144.83,243.257,144.32,242.349,144.65Z" transform="translate(-236.539 -141.166)" fill="#fff" opacity="0.6"/>
        <path id="Path_2361" data-name="Path 2361" d="M244.745,143.61c0-2.644-1.742-3.782-3.888-2.544A8.867,8.867,0,0,0,237,148.1v.622c0,2.034,2.3,4.392,3.365,5.375a.523.523,0,0,0,.827-.156c.914-1.866,3.583-7.521,3.583-9.711Zm-3.888,4.193c-1.076.622-1.947.118-1.947-1.12a4.3,4.3,0,0,1,1.947-3.359c1.07-.622,1.941-.118,1.941,1.126a4.3,4.3,0,0,1-1.941,3.353Z" transform="translate(-235.383 -139.66)" fill="#90caf9"/>
        <path id="Path_2362" data-name="Path 2362" d="M244.745,143.61c0-2.644-1.742-3.782-3.888-2.544A8.867,8.867,0,0,0,237,148.1v.622c0,2.034,2.3,4.392,3.365,5.375a.523.523,0,0,0,.827-.156c.914-1.866,3.583-7.521,3.583-9.711Zm-3.888,4.193c-1.076.622-1.947.118-1.947-1.12a4.3,4.3,0,0,1,1.947-3.359c1.07-.622,1.941-.118,1.941,1.126a4.3,4.3,0,0,1-1.941,3.353Z" transform="translate(-235.383 -139.66)" fill="#90caf9"/>
        <g id="Group_65" data-name="Group 65" transform="translate(1.617 0.906)" opacity="0.8">
          <path id="Path_2363" data-name="Path 2363" d="M244.745,143.61c0-2.644-1.742-3.782-3.888-2.544A8.867,8.867,0,0,0,237,148.1v.622c0,2.034,2.3,4.392,3.365,5.375a.523.523,0,0,0,.827-.156c.914-1.866,3.583-7.521,3.583-9.711Zm-3.888,4.193c-1.076.622-1.947.118-1.947-1.12a4.3,4.3,0,0,1,1.947-3.359c1.07-.622,1.941-.118,1.941,1.126a4.3,4.3,0,0,1-1.941,3.353Z" transform="translate(-237 -140.566)" fill="#fff"/>
        </g>
      </g>
      <g id="freepik--pin--inject-134-3" data-name="freepik--pin--inject-134" transform="translate(177.365 109.69)">
        <path id="Path_2364" data-name="Path 2364" d="M352.465,213.512v-.622a7.626,7.626,0,0,1,.392-2.314h0a8.64,8.64,0,0,1,3.5-4.709,2.675,2.675,0,0,1,2.557-.3l-1.35-.765a2,2,0,0,0-1.12-.323h-.386l-.2.037-.205.05a3.637,3.637,0,0,0-.423.162l-.211.1-.224.118a8.894,8.894,0,0,0-3.888,7.029v.622c0,2.644,3.558,5.518,3.558,5.518l1.437.815-.068-.056C354.773,217.867,352.465,215.515,352.465,213.512Zm4.249-5.561q.005.1,0,.205v.068a.83.83,0,0,1,0,.124,4.3,4.3,0,0,1-1.947,3.365l-.112.062-.118.056-.112.044h0c.168.946.958,1.244,1.916.728a4.3,4.3,0,0,0,1.941-3.365c.019-1.126-.666-1.648-1.568-1.325Z" transform="translate(-350.91 -204.48)" fill="#90caf9"/>
        <path id="Path_2365" data-name="Path 2365" d="M352.465,213.512v-.622a7.626,7.626,0,0,1,.392-2.314h0a8.64,8.64,0,0,1,3.5-4.709,2.675,2.675,0,0,1,2.557-.3l-1.35-.765a2,2,0,0,0-1.12-.323h-.386l-.2.037-.205.05a3.637,3.637,0,0,0-.423.162l-.211.1-.224.118a8.894,8.894,0,0,0-3.888,7.029v.622c0,2.644,3.558,5.518,3.558,5.518l1.437.815-.068-.056C354.773,217.867,352.465,215.515,352.465,213.512Z" transform="translate(-350.91 -204.48)" fill="#fff" opacity="0.6"/>
        <path id="Path_2366" data-name="Path 2366" d="M358.819,209.942q.005.1,0,.205v.193a4.292,4.292,0,0,1-1.941,3.365l-.118.062-.112.056-.118.044h0c.168.946.958,1.244,1.91.728a4.292,4.292,0,0,0,1.941-3.365C360.406,210.141,359.721,209.619,358.819,209.942Z" transform="translate(-353.034 -206.508)" fill="#fff" opacity="0.6"/>
        <path id="Path_2367" data-name="Path 2367" d="M361.192,208.91c0-2.644-1.742-3.782-3.888-2.544a8.9,8.9,0,0,0-3.894,7.036v.622c0,2.034,2.308,4.392,3.372,5.375a.523.523,0,0,0,.827-.156c.914-1.866,3.583-7.521,3.583-9.711ZM357.3,213.1c-1.076.622-1.947.118-1.947-1.12a4.3,4.3,0,0,1,1.947-3.372c1.07-.622,1.941-.118,1.941,1.126A4.3,4.3,0,0,1,357.3,213.1Z" transform="translate(-351.855 -205.004)" fill="#90caf9"/>
        <path id="Path_2368" data-name="Path 2368" d="M361.192,208.91c0-2.644-1.742-3.782-3.888-2.544a8.9,8.9,0,0,0-3.894,7.036v.622c0,2.034,2.308,4.392,3.372,5.375a.523.523,0,0,0,.827-.156c.914-1.866,3.583-7.521,3.583-9.711ZM357.3,213.1c-1.076.622-1.947.118-1.947-1.12a4.3,4.3,0,0,1,1.947-3.372c1.07-.622,1.941-.118,1.941,1.126A4.3,4.3,0,0,1,357.3,213.1Z" transform="translate(-351.855 -205.004)" fill="#90caf9"/>
        <g id="Group_66" data-name="Group 66" transform="translate(1.555 0.862)" opacity="0.8">
          <path id="Path_2369" data-name="Path 2369" d="M361.192,208.91c0-2.644-1.742-3.782-3.888-2.544a8.9,8.9,0,0,0-3.894,7.036v.622c0,2.034,2.308,4.392,3.372,5.375a.523.523,0,0,0,.827-.156c.914-1.866,3.583-7.521,3.583-9.711ZM357.3,213.1c-1.076.622-1.947.118-1.947-1.12a4.3,4.3,0,0,1,1.947-3.372c1.07-.622,1.941-.118,1.941,1.126A4.3,4.3,0,0,1,357.3,213.1Z" transform="translate(-353.41 -205.866)" fill="#fff"/>
        </g>
      </g>
    </g>
  </g>
</svg>
